<?xml version="1.0" encoding="UTF-8" standalone="no"?>
<!DOCTYPE svg PUBLIC "-//W3C//DTD SVG 1.1//EN"
 "http://www.w3.org/Graphics/SVG/1.1/DTD/svg11.dtd">
<!-- Generated by graphviz version 2.43.0 (0)
 -->
<!-- Title: %3 Pages: 1 -->
<svg width="630pt" height="500pt"
 viewBox="0.00 0.00 630.00 500.00" xmlns="http://www.w3.org/2000/svg" xmlns:xlink="http://www.w3.org/1999/xlink">
<g id="graph0" class="graph" transform="scale(1 1) rotate(0) translate(4 496)">
<title>%3</title>
<!-- V1 -->
<g id="node1" class="node">
<title>V1</title>
<path fill="#e3e5e9" stroke="#9aa0a6" stroke-width="1.3" d="M203,-492C203,-492 173,-492 173,-492 167,-492 161,-486 161,-480 161,-480 161,-468 161,-468 161,-462 167,-456 173,-456 173,-456 203,-456 203,-456 209,-456 215,-462 215,-468 215,-468 215,-480 215,-480 215,-486 209,-492 203,-492"/>
<text text-anchor="start" x="178.5" y="-476.1" font-family="Helvetica,sans-Serif" font-weight="bold" font-size="13.00" fill="#1d1b16">V1</text>
<text text-anchor="start" x="175.5" y="-465.5" font-family="Helvetica,sans-Serif" font-size="10.00" fill="#1d1b16">1.1%</text>
</g>
<!-- V2 -->
<g id="node3" class="node">
<title>V2</title>
<path fill="#e6e0f8" stroke="#7c6bd6" stroke-width="1.3" d="M203,-416C203,-416 173,-416 173,-416 167,-416 161,-410 161,-404 161,-404 161,-392 161,-392 161,-386 167,-380 173,-380 173,-380 203,-380 203,-380 209,-380 215,-386 215,-392 215,-392 215,-404 215,-404 215,-410 209,-416 203,-416"/>
<text text-anchor="start" x="178.5" y="-400.1" font-family="Helvetica,sans-Serif" font-weight="bold" font-size="13.00" fill="#1d1b16">V2</text>
<text text-anchor="start" x="175.5" y="-389.5" font-family="Helvetica,sans-Serif" font-size="10.00" fill="#1d1b16">2.3%</text>
</g>
<!-- V1&#45;&gt;V2 -->
<g id="edge1" class="edge">
<title>V1&#45;&gt;V2</title>
<path fill="none" stroke="#a89f90" stroke-width="1.1" d="M188,-455.84C188,-446.12 188,-433.82 188,-423.15"/>
<polygon fill="#a89f90" stroke="#a89f90" stroke-width="1.1" points="190.45,-423.07 188,-416.07 185.55,-423.07 190.45,-423.07"/>
</g>
<!-- DI1 -->
<g id="node2" class="node">
<title>DI1</title>
<path fill="#e3e5e9" stroke="#9aa0a6" stroke-width="1.3" d="M277,-492C277,-492 247,-492 247,-492 241,-492 235,-486 235,-480 235,-480 235,-468 235,-468 235,-462 241,-456 247,-456 247,-456 277,-456 277,-456 283,-456 289,-462 289,-468 289,-468 289,-480 289,-480 289,-486 283,-492 277,-492"/>
<text text-anchor="start" x="249.5" y="-476.1" font-family="Helvetica,sans-Serif" font-weight="bold" font-size="13.00" fill="#1d1b16">DI1</text>
<text text-anchor="start" x="249.5" y="-465.5" font-family="Helvetica,sans-Serif" font-size="10.00" fill="#1d1b16">1.1%</text>
</g>
<!-- V3 -->
<g id="node4" class="node">
<title>V3</title>
<path fill="#e6e0f8" stroke="#7c6bd6" stroke-width="1.3" d="M203,-340C203,-340 173,-340 173,-340 167,-340 161,-334 161,-328 161,-328 161,-316 161,-316 161,-310 167,-304 173,-304 173,-304 203,-304 203,-304 209,-304 215,-310 215,-316 215,-316 215,-328 215,-328 215,-334 209,-340 203,-340"/>
<text text-anchor="start" x="178.5" y="-324.1" font-family="Helvetica,sans-Serif" font-weight="bold" font-size="13.00" fill="#1d1b16">V3</text>
<text text-anchor="start" x="175.5" y="-313.5" font-family="Helvetica,sans-Serif" font-size="10.00" fill="#1d1b16">3.4%</text>
</g>
<!-- V2&#45;&gt;V3 -->
<g id="edge2" class="edge">
<title>V2&#45;&gt;V3</title>
<path fill="none" stroke="#a89f90" stroke-width="1.1" d="M188,-379.84C188,-370.12 188,-357.82 188,-347.15"/>
<polygon fill="#a89f90" stroke="#a89f90" stroke-width="1.1" points="190.45,-347.07 188,-340.07 185.55,-347.07 190.45,-347.07"/>
</g>
<!-- V4 -->
<g id="node5" class="node">
<title>V4</title>
<path fill="#e6e0f8" stroke="#7c6bd6" stroke-width="1.3" d="M119,-340C119,-340 89,-340 89,-340 83,-340 77,-334 77,-328 77,-328 77,-316 77,-316 77,-310 83,-304 89,-304 89,-304 119,-304 119,-304 125,-304 131,-310 131,-316 131,-316 131,-328 131,-328 131,-334 125,-340 119,-340"/>
<text text-anchor="start" x="94.5" y="-324.1" font-family="Helvetica,sans-Serif" font-weight="bold" font-size="13.00" fill="#1d1b16">V4</text>
<text text-anchor="start" x="91.5" y="-313.5" font-family="Helvetica,sans-Serif" font-size="10.00" fill="#1d1b16">3.4%</text>
</g>
<!-- V2&#45;&gt;V4 -->
<g id="edge3" class="edge">
<title>V2&#45;&gt;V4</title>
<path fill="none" stroke="#a89f90" stroke-width="1.1" d="M168.52,-379.84C156.64,-369.38 141.36,-355.91 128.65,-344.71"/>
<polygon fill="#a89f90" stroke="#a89f90" stroke-width="1.1" points="130.25,-342.86 123.38,-340.07 127.01,-346.54 130.25,-342.86"/>
</g>
<!-- V13 -->
<g id="node18" class="node">
<title>V13</title>
<path fill="#e6e0f8" stroke="#7c6bd6" stroke-width="1.3" d="M282,-340C282,-340 252,-340 252,-340 246,-340 240,-334 240,-328 240,-328 240,-316 240,-316 240,-310 246,-304 252,-304 252,-304 282,-304 282,-304 288,-304 294,-310 294,-316 294,-316 294,-328 294,-328 294,-334 288,-340 282,-340"/>
<text text-anchor="start" x="253" y="-324.1" font-family="Helvetica,sans-Serif" font-weight="bold" font-size="13.00" fill="#1d1b16">V13</text>
<text text-anchor="start" x="254.5" y="-313.5" font-family="Helvetica,sans-Serif" font-size="10.00" fill="#1d1b16">4.6%</text>
</g>
<!-- V2&#45;&gt;V13 -->
<g id="edge17" class="edge">
<title>V2&#45;&gt;V13</title>
<path fill="none" stroke="#a89f90" stroke-width="1.1" d="M206.32,-379.84C217.39,-369.47 231.61,-356.15 243.5,-345.02"/>
<polygon fill="#a89f90" stroke="#a89f90" stroke-width="1.1" points="245.34,-346.64 248.78,-340.07 241.99,-343.07 245.34,-346.64"/>
</g>
<!-- V8 -->
<g id="node8" class="node">
<title>V8</title>
<path fill="#f8d9d6" stroke="#e0625b" stroke-width="1.3" d="M112,-112C112,-112 82,-112 82,-112 76,-112 70,-106 70,-100 70,-100 70,-88 70,-88 70,-82 76,-76 82,-76 82,-76 112,-76 112,-76 118,-76 124,-82 124,-88 124,-88 124,-100 124,-100 124,-106 118,-112 112,-112"/>
<text text-anchor="start" x="87.5" y="-96.1" font-family="Helvetica,sans-Serif" font-weight="bold" font-size="13.00" fill="#1d1b16">V8</text>
<text text-anchor="start" x="84.5" y="-85.5" font-family="Helvetica,sans-Serif" font-size="10.00" fill="#1d1b16">8.0%</text>
</g>
<!-- V3&#45;&gt;V8 -->
<g id="edge7" class="edge">
<title>V3&#45;&gt;V8</title>
<path fill="none" stroke="#a89f90" stroke-width="1.1" d="M184.94,-304C178.89,-272.72 163.71,-204.48 138,-152 132.17,-140.1 123.9,-128.04 116.32,-118.09"/>
<polygon fill="#a89f90" stroke="#a89f90" stroke-width="1.1" points="118.19,-116.5 111.95,-112.49 114.32,-119.52 118.19,-116.5"/>
</g>
<!-- V14 -->
<g id="node19" class="node">
<title>V14</title>
<path fill="#f8d9d6" stroke="#e0625b" stroke-width="1.3" d="M242,-264C242,-264 212,-264 212,-264 206,-264 200,-258 200,-252 200,-252 200,-240 200,-240 200,-234 206,-228 212,-228 212,-228 242,-228 242,-228 248,-228 254,-234 254,-240 254,-240 254,-252 254,-252 254,-258 248,-264 242,-264"/>
<text text-anchor="start" x="213" y="-248.1" font-family="Helvetica,sans-Serif" font-weight="bold" font-size="13.00" fill="#1d1b16">V14</text>
<text text-anchor="start" x="214.5" y="-237.5" font-family="Helvetica,sans-Serif" font-size="10.00" fill="#1d1b16">6.9%</text>
</g>
<!-- V3&#45;&gt;V14 -->
<g id="edge19" class="edge">
<title>V3&#45;&gt;V14</title>
<path fill="none" stroke="#a89f90" stroke-width="1.1" d="M197.05,-303.84C202.26,-293.94 208.9,-281.35 214.6,-270.53"/>
<polygon fill="#a89f90" stroke="#a89f90" stroke-width="1.1" points="216.91,-271.4 218,-264.07 212.57,-269.12 216.91,-271.4"/>
</g>
<!-- V6 -->
<g id="node6" class="node">
<title>V6</title>
<path fill="#e6e0f8" stroke="#7c6bd6" stroke-width="1.3" d="M116,-264C116,-264 86,-264 86,-264 80,-264 74,-258 74,-252 74,-252 74,-240 74,-240 74,-234 80,-228 86,-228 86,-228 116,-228 116,-228 122,-228 128,-234 128,-240 128,-240 128,-252 128,-252 128,-258 122,-264 116,-264"/>
<text text-anchor="start" x="91.5" y="-248.1" font-family="Helvetica,sans-Serif" font-weight="bold" font-size="13.00" fill="#1d1b16">V6</text>
<text text-anchor="start" x="88.5" y="-237.5" font-family="Helvetica,sans-Serif" font-size="10.00" fill="#1d1b16">4.6%</text>
</g>
<!-- V4&#45;&gt;V6 -->
<g id="edge4" class="edge">
<title>V4&#45;&gt;V6</title>
<path fill="none" stroke="#a89f90" stroke-width="1.1" d="M103.3,-303.84C102.91,-294.12 102.41,-281.82 101.98,-271.15"/>
<polygon fill="#a89f90" stroke="#a89f90" stroke-width="1.1" points="104.42,-270.96 101.69,-264.07 99.53,-271.16 104.42,-270.96"/>
</g>
<!-- V7 -->
<g id="node7" class="node">
<title>V7</title>
<path fill="#e6e0f8" stroke="#7c6bd6" stroke-width="1.3" d="M116,-188C116,-188 86,-188 86,-188 80,-188 74,-182 74,-176 74,-176 74,-164 74,-164 74,-158 80,-152 86,-152 86,-152 116,-152 116,-152 122,-152 128,-158 128,-164 128,-164 128,-176 128,-176 128,-182 122,-188 116,-188"/>
<text text-anchor="start" x="91.5" y="-172.1" font-family="Helvetica,sans-Serif" font-weight="bold" font-size="13.00" fill="#1d1b16">V7</text>
<text text-anchor="start" x="88.5" y="-161.5" font-family="Helvetica,sans-Serif" font-size="10.00" fill="#1d1b16">5.7%</text>
</g>
<!-- V6&#45;&gt;V7 -->
<g id="edge5" class="edge">
<title>V6&#45;&gt;V7</title>
<path fill="none" stroke="#a89f90" stroke-width="1.1" d="M101,-227.84C101,-218.12 101,-205.82 101,-195.15"/>
<polygon fill="#a89f90" stroke="#a89f90" stroke-width="1.1" points="103.45,-195.07 101,-188.07 98.55,-195.07 103.45,-195.07"/>
</g>
<!-- V9 -->
<g id="node9" class="node">
<title>V9</title>
<path fill="#e6e0f8" stroke="#7c6bd6" stroke-width="1.3" d="M42,-188C42,-188 12,-188 12,-188 6,-188 0,-182 0,-176 0,-176 0,-164 0,-164 0,-158 6,-152 12,-152 12,-152 42,-152 42,-152 48,-152 54,-158 54,-164 54,-164 54,-176 54,-176 54,-182 48,-188 42,-188"/>
<text text-anchor="start" x="17.5" y="-172.1" font-family="Helvetica,sans-Serif" font-weight="bold" font-size="13.00" fill="#1d1b16">V9</text>
<text text-anchor="start" x="14.5" y="-161.5" font-family="Helvetica,sans-Serif" font-size="10.00" fill="#1d1b16">5.7%</text>
</g>
<!-- V6&#45;&gt;V9 -->
<g id="edge8" class="edge">
<title>V6&#45;&gt;V9</title>
<path fill="none" stroke="#a89f90" stroke-width="1.1" d="M83.84,-227.84C73.56,-217.56 60.39,-204.39 49.32,-193.32"/>
<polygon fill="#a89f90" stroke="#a89f90" stroke-width="1.1" points="50.75,-191.29 44.07,-188.07 47.29,-194.75 50.75,-191.29"/>
</g>
<!-- V7&#45;&gt;V8 -->
<g id="edge6" class="edge">
<title>V7&#45;&gt;V8</title>
<path fill="none" stroke="#a89f90" stroke-width="1.1" d="M100.07,-151.84C99.55,-142.12 98.88,-129.82 98.31,-119.15"/>
<polygon fill="#a89f90" stroke="#a89f90" stroke-width="1.1" points="100.75,-118.93 97.92,-112.07 95.85,-119.19 100.75,-118.93"/>
</g>
<!-- V17 -->
<g id="node23" class="node">
<title>V17</title>
<path fill="#f9e9c9" stroke="#d99a16" stroke-width="1.3" d="M244,-36C244,-36 214,-36 214,-36 208,-36 202,-30 202,-24 202,-24 202,-12 202,-12 202,-6 208,0 214,0 214,0 244,0 244,0 250,0 256,-6 256,-12 256,-12 256,-24 256,-24 256,-30 250,-36 244,-36"/>
<text text-anchor="start" x="215" y="-20.1" font-family="Helvetica,sans-Serif" font-weight="bold" font-size="13.00" fill="#1d1b16">V17</text>
<text text-anchor="start" x="213.5" y="-9.5" font-family="Helvetica,sans-Serif" font-size="10.00" fill="#1d1b16">17.9%</text>
</g>
<!-- V8&#45;&gt;V17 -->
<g id="edge23" class="edge">
<title>V8&#45;&gt;V17</title>
<path fill="none" stroke="#a89f90" stroke-width="1.1" d="M124.03,-77.85C144.63,-66.3 173.11,-50.33 195.21,-37.94"/>
<polygon fill="#a89f90" stroke="#a89f90" stroke-width="1.1" points="196.64,-39.95 201.55,-34.39 194.25,-35.67 196.64,-39.95"/>
</g>
<!-- V5 -->
<g id="node10" class="node">
<title>V5</title>
<path fill="#e3e5e9" stroke="#9aa0a6" stroke-width="1.3" d="M462,-188C462,-188 432,-188 432,-188 426,-188 420,-182 420,-176 420,-176 420,-164 420,-164 420,-158 426,-152 432,-152 432,-152 462,-152 462,-152 468,-152 474,-158 474,-164 474,-164 474,-176 474,-176 474,-182 468,-188 462,-188"/>
<text text-anchor="start" x="437.5" y="-172.1" font-family="Helvetica,sans-Serif" font-weight="bold" font-size="13.00" fill="#1d1b16">V5</text>
<text text-anchor="start" x="434.5" y="-161.5" font-family="Helvetica,sans-Serif" font-size="10.00" fill="#1d1b16">1.1%</text>
</g>
<!-- V10 -->
<g id="node11" class="node">
<title>V10</title>
<path fill="#e6e0f8" stroke="#7c6bd6" stroke-width="1.3" d="M388,-112C388,-112 358,-112 358,-112 352,-112 346,-106 346,-100 346,-100 346,-88 346,-88 346,-82 352,-76 358,-76 358,-76 388,-76 388,-76 394,-76 400,-82 400,-88 400,-88 400,-100 400,-100 400,-106 394,-112 388,-112"/>
<text text-anchor="start" x="359" y="-96.1" font-family="Helvetica,sans-Serif" font-weight="bold" font-size="13.00" fill="#1d1b16">V10</text>
<text text-anchor="start" x="360.5" y="-85.5" font-family="Helvetica,sans-Serif" font-size="10.00" fill="#1d1b16">2.3%</text>
</g>
<!-- V5&#45;&gt;V10 -->
<g id="edge9" class="edge">
<title>V5&#45;&gt;V10</title>
<path fill="none" stroke="#a89f90" stroke-width="1.1" d="M429.84,-151.84C419.56,-141.56 406.39,-128.39 395.32,-117.32"/>
<polygon fill="#a89f90" stroke="#a89f90" stroke-width="1.1" points="396.75,-115.29 390.07,-112.07 393.29,-118.75 396.75,-115.29"/>
</g>
<!-- V11 -->
<g id="node12" class="node">
<title>V11</title>
<path fill="#e6e0f8" stroke="#7c6bd6" stroke-width="1.3" d="M536,-112C536,-112 506,-112 506,-112 500,-112 494,-106 494,-100 494,-100 494,-88 494,-88 494,-82 500,-76 506,-76 506,-76 536,-76 536,-76 542,-76 548,-82 548,-88 548,-88 548,-100 548,-100 548,-106 542,-112 536,-112"/>
<text text-anchor="start" x="507" y="-96.1" font-family="Helvetica,sans-Serif" font-weight="bold" font-size="13.00" fill="#1d1b16">V11</text>
<text text-anchor="start" x="508.5" y="-85.5" font-family="Helvetica,sans-Serif" font-size="10.00" fill="#1d1b16">2.3%</text>
</g>
<!-- V5&#45;&gt;V11 -->
<g id="edge10" class="edge">
<title>V5&#45;&gt;V11</title>
<path fill="none" stroke="#a89f90" stroke-width="1.1" d="M464.16,-151.84C474.44,-141.56 487.61,-128.39 498.68,-117.32"/>
<polygon fill="#a89f90" stroke="#a89f90" stroke-width="1.1" points="500.71,-118.75 503.93,-112.07 497.25,-115.29 500.71,-118.75"/>
</g>
<!-- DI2 -->
<g id="node13" class="node">
<title>DI2</title>
<path fill="#e6e0f8" stroke="#7c6bd6" stroke-width="1.3" d="M462,-112C462,-112 432,-112 432,-112 426,-112 420,-106 420,-100 420,-100 420,-88 420,-88 420,-82 426,-76 432,-76 432,-76 462,-76 462,-76 468,-76 474,-82 474,-88 474,-88 474,-100 474,-100 474,-106 468,-112 462,-112"/>
<text text-anchor="start" x="434.5" y="-96.1" font-family="Helvetica,sans-Serif" font-weight="bold" font-size="13.00" fill="#1d1b16">DI2</text>
<text text-anchor="start" x="434.5" y="-85.5" font-family="Helvetica,sans-Serif" font-size="10.00" fill="#1d1b16">2.3%</text>
</g>
<!-- V5&#45;&gt;DI2 -->
<g id="edge11" class="edge">
<title>V5&#45;&gt;DI2</title>
<path fill="none" stroke="#a89f90" stroke-width="1.1" d="M447,-151.84C447,-142.12 447,-129.82 447,-119.15"/>
<polygon fill="#a89f90" stroke="#a89f90" stroke-width="1.1" points="449.45,-119.07 447,-112.07 444.55,-119.07 449.45,-119.07"/>
</g>
<!-- EP1 -->
<g id="node14" class="node">
<title>EP1</title>
<path fill="#e6e0f8" stroke="#7c6bd6" stroke-width="1.3" d="M610,-112C610,-112 580,-112 580,-112 574,-112 568,-106 568,-100 568,-100 568,-88 568,-88 568,-82 574,-76 580,-76 580,-76 610,-76 610,-76 616,-76 622,-82 622,-88 622,-88 622,-100 622,-100 622,-106 616,-112 610,-112"/>
<text text-anchor="start" x="581" y="-96.1" font-family="Helvetica,sans-Serif" font-weight="bold" font-size="13.00" fill="#1d1b16">EP1</text>
<text text-anchor="start" x="582.5" y="-85.5" font-family="Helvetica,sans-Serif" font-size="10.00" fill="#1d1b16">2.3%</text>
</g>
<!-- V5&#45;&gt;EP1 -->
<g id="edge12" class="edge">
<title>V5&#45;&gt;EP1</title>
<path fill="none" stroke="#a89f90" stroke-width="1.1" d="M474.15,-155.43C498.69,-143.16 534.91,-125.05 561.29,-111.85"/>
<polygon fill="#a89f90" stroke="#a89f90" stroke-width="1.1" points="562.61,-113.93 567.78,-108.61 560.42,-109.55 562.61,-113.93"/>
</g>
<!-- TRAP2 -->
<g id="node16" class="node">
<title>TRAP2</title>
<path fill="#d3f1e9" stroke="#1aa39a" stroke-width="1.3" d="M314,-112C314,-112 272,-112 272,-112 266,-112 260,-106 260,-100 260,-100 260,-88 260,-88 260,-82 266,-76 272,-76 272,-76 314,-76 314,-76 320,-76 326,-82 326,-88 326,-88 326,-100 326,-100 326,-106 320,-112 314,-112"/>
<text text-anchor="start" x="269" y="-96.1" font-family="Helvetica,sans-Serif" font-weight="bold" font-size="13.00" fill="#1d1b16">TRAP2</text>
<text text-anchor="start" x="280.5" y="-85.5" font-family="Helvetica,sans-Serif" font-size="10.00" fill="#1d1b16">2.3%</text>
</g>
<!-- V5&#45;&gt;TRAP2 -->
<g id="edge15" class="edge">
<title>V5&#45;&gt;TRAP2</title>
<path fill="none" stroke="#a89f90" stroke-width="1.1" d="M419.82,-155.94C395.6,-144.3 359.85,-127.12 332.48,-113.97"/>
<polygon fill="#a89f90" stroke="#a89f90" stroke-width="1.1" points="333.44,-111.71 326.07,-110.89 331.31,-116.13 333.44,-111.71"/>
</g>
<!-- EP2 -->
<g id="node15" class="node">
<title>EP2</title>
<path fill="#e6e0f8" stroke="#7c6bd6" stroke-width="1.3" d="M462,-36C462,-36 432,-36 432,-36 426,-36 420,-30 420,-24 420,-24 420,-12 420,-12 420,-6 426,0 432,0 432,0 462,0 462,0 468,0 474,-6 474,-12 474,-12 474,-24 474,-24 474,-30 468,-36 462,-36"/>
<text text-anchor="start" x="433" y="-20.1" font-family="Helvetica,sans-Serif" font-weight="bold" font-size="13.00" fill="#1d1b16">EP2</text>
<text text-anchor="start" x="434.5" y="-9.5" font-family="Helvetica,sans-Serif" font-size="10.00" fill="#1d1b16">4.6%</text>
</g>
<!-- V10&#45;&gt;EP2 -->
<g id="edge13" class="edge">
<title>V10&#45;&gt;EP2</title>
<path fill="none" stroke="#a89f90" stroke-width="1.1" d="M390.16,-75.84C400.44,-65.56 413.61,-52.39 424.68,-41.32"/>
<polygon fill="#a89f90" stroke="#a89f90" stroke-width="1.1" points="426.71,-42.75 429.93,-36.07 423.25,-39.29 426.71,-42.75"/>
</g>
<!-- V10&#45;&gt;V17 -->
<g id="edge24" class="edge">
<title>V10&#45;&gt;V17</title>
<path fill="none" stroke="#a89f90" stroke-width="1.1" d="M345.91,-79.08C322.33,-66.96 288.04,-49.34 262.69,-36.31"/>
<polygon fill="#a89f90" stroke="#a89f90" stroke-width="1.1" points="263.8,-34.13 256.45,-33.11 261.56,-38.49 263.8,-34.13"/>
</g>
<!-- V11&#45;&gt;EP2 -->
<g id="edge14" class="edge">
<title>V11&#45;&gt;EP2</title>
<path fill="none" stroke="#a89f90" stroke-width="1.1" d="M503.84,-75.84C493.56,-65.56 480.39,-52.39 469.32,-41.32"/>
<polygon fill="#a89f90" stroke="#a89f90" stroke-width="1.1" points="470.75,-39.29 464.07,-36.07 467.29,-42.75 470.75,-39.29"/>
</g>
<!-- V11&#45;&gt;V17 -->
<g id="edge25" class="edge">
<title>V11&#45;&gt;V17</title>
<path fill="none" stroke="#a89f90" stroke-width="1.1" d="M493.78,-79.72C490.53,-78.36 487.22,-77.08 484,-76 406.98,-50.02 312.85,-32.48 263.29,-24.3"/>
<polygon fill="#a89f90" stroke="#a89f90" stroke-width="1.1" points="263.62,-21.87 256.31,-23.16 262.83,-26.71 263.62,-21.87"/>
</g>
<!-- V12 -->
<g id="node17" class="node">
<title>V12</title>
<path fill="#e3e5e9" stroke="#9aa0a6" stroke-width="1.3" d="M312,-416C312,-416 282,-416 282,-416 276,-416 270,-410 270,-404 270,-404 270,-392 270,-392 270,-386 276,-380 282,-380 282,-380 312,-380 312,-380 318,-380 324,-386 324,-392 324,-392 324,-404 324,-404 324,-410 318,-416 312,-416"/>
<text text-anchor="start" x="283" y="-400.1" font-family="Helvetica,sans-Serif" font-weight="bold" font-size="13.00" fill="#1d1b16">V12</text>
<text text-anchor="start" x="284.5" y="-389.5" font-family="Helvetica,sans-Serif" font-size="10.00" fill="#1d1b16">1.1%</text>
</g>
<!-- V12&#45;&gt;V13 -->
<g id="edge16" class="edge">
<title>V12&#45;&gt;V13</title>
<path fill="none" stroke="#a89f90" stroke-width="1.1" d="M290.04,-379.84C286.07,-370.03 281.02,-357.58 276.66,-346.84"/>
<polygon fill="#a89f90" stroke="#a89f90" stroke-width="1.1" points="278.82,-345.64 273.92,-340.07 274.28,-347.48 278.82,-345.64"/>
</g>
<!-- TRAP1 -->
<g id="node22" class="node">
<title>TRAP1</title>
<path fill="#d3f1e9" stroke="#1aa39a" stroke-width="1.3" d="M314,-188C314,-188 272,-188 272,-188 266,-188 260,-182 260,-176 260,-176 260,-164 260,-164 260,-158 266,-152 272,-152 272,-152 314,-152 314,-152 320,-152 326,-158 326,-164 326,-164 326,-176 326,-176 326,-182 320,-188 314,-188"/>
<text text-anchor="start" x="269" y="-172.1" font-family="Helvetica,sans-Serif" font-weight="bold" font-size="13.00" fill="#1d1b16">TRAP1</text>
<text text-anchor="start" x="280.5" y="-161.5" font-family="Helvetica,sans-Serif" font-size="10.00" fill="#1d1b16">8.0%</text>
</g>
<!-- V12&#45;&gt;TRAP1 -->
<g id="edge20" class="edge">
<title>V12&#45;&gt;TRAP1</title>
<path fill="none" stroke="#a89f90" stroke-width="1.1" d="M299.66,-379.84C301.28,-368.55 303.18,-353.43 304,-340 307.15,-288.43 300.8,-228.04 296.5,-195.23"/>
<polygon fill="#a89f90" stroke="#a89f90" stroke-width="1.1" points="298.92,-194.88 295.56,-188.27 294.07,-195.53 298.92,-194.88"/>
</g>
<!-- V13&#45;&gt;V14 -->
<g id="edge18" class="edge">
<title>V13&#45;&gt;V14</title>
<path fill="none" stroke="#a89f90" stroke-width="1.1" d="M257.72,-303.84C252.37,-293.94 245.57,-281.35 239.72,-270.53"/>
<polygon fill="#a89f90" stroke="#a89f90" stroke-width="1.1" points="241.71,-269.06 236.23,-264.07 237.4,-271.39 241.71,-269.06"/>
</g>
<!-- V13&#45;&gt;TRAP1 -->
<g id="edge21" class="edge">
<title>V13&#45;&gt;TRAP1</title>
<path fill="none" stroke="#a89f90" stroke-width="1.1" d="M269.98,-303.79C274.61,-277.12 283.52,-225.7 288.79,-195.26"/>
<polygon fill="#a89f90" stroke="#a89f90" stroke-width="1.1" points="291.27,-195.32 290.05,-188.01 286.44,-194.48 291.27,-195.32"/>
</g>
<!-- V14&#45;&gt;TRAP1 -->
<g id="edge22" class="edge">
<title>V14&#45;&gt;TRAP1</title>
<path fill="none" stroke="#a89f90" stroke-width="1.1" d="M242.31,-227.84C251.47,-217.56 263.22,-204.39 273.1,-193.32"/>
<polygon fill="#a89f90" stroke="#a89f90" stroke-width="1.1" points="274.94,-194.92 277.78,-188.07 271.29,-191.66 274.94,-194.92"/>
</g>
<!-- V14&#45;&gt;V17 -->
<g id="edge26" class="edge">
<title>V14&#45;&gt;V17</title>
<path fill="none" stroke="#a89f90" stroke-width="1.1" d="M227.15,-227.64C227.51,-187.69 228.38,-89.17 228.79,-43.27"/>
<polygon fill="#a89f90" stroke="#a89f90" stroke-width="1.1" points="231.24,-43.13 228.85,-36.11 226.34,-43.09 231.24,-43.13"/>
</g>
<!-- V15 -->
<g id="node20" class="node">
<title>V15</title>
<path fill="#e3e5e9" stroke="#9aa0a6" stroke-width="1.3" d="M186,-112C186,-112 156,-112 156,-112 150,-112 144,-106 144,-100 144,-100 144,-88 144,-88 144,-82 150,-76 156,-76 156,-76 186,-76 186,-76 192,-76 198,-82 198,-88 198,-88 198,-100 198,-100 198,-106 192,-112 186,-112"/>
<text text-anchor="start" x="157" y="-96.1" font-family="Helvetica,sans-Serif" font-weight="bold" font-size="13.00" fill="#1d1b16">V15</text>
<text text-anchor="start" x="158.5" y="-85.5" font-family="Helvetica,sans-Serif" font-size="10.00" fill="#1d1b16">1.1%</text>
</g>
<!-- V15&#45;&gt;V17 -->
<g id="edge27" class="edge">
<title>V15&#45;&gt;V17</title>
<path fill="none" stroke="#a89f90" stroke-width="1.1" d="M184.45,-75.84C192.43,-65.66 202.64,-52.63 211.27,-41.62"/>
<polygon fill="#a89f90" stroke="#a89f90" stroke-width="1.1" points="213.23,-43.09 215.62,-36.07 209.37,-40.07 213.23,-43.09"/>
</g>
<!-- V16 -->
<g id="node21" class="node">
<title>V16</title>
<path fill="#e3e5e9" stroke="#9aa0a6" stroke-width="1.3" d="M351,-492C351,-492 321,-492 321,-492 315,-492 309,-486 309,-480 309,-480 309,-468 309,-468 309,-462 315,-456 321,-456 321,-456 351,-456 351,-456 357,-456 363,-462 363,-468 363,-468 363,-480 363,-480 363,-486 357,-492 351,-492"/>
<text text-anchor="start" x="322" y="-476.1" font-family="Helvetica,sans-Serif" font-weight="bold" font-size="13.00" fill="#1d1b16">V16</text>
<text text-anchor="start" x="323.5" y="-465.5" font-family="Helvetica,sans-Serif" font-size="10.00" fill="#1d1b16">1.1%</text>
</g>
<!-- FD1 -->
<g id="node24" class="node">
<title>FD1</title>
<path fill="#d9e7fc" stroke="#3d7bd6" stroke-width="1.3" d="M425,-492C425,-492 395,-492 395,-492 389,-492 383,-486 383,-480 383,-480 383,-468 383,-468 383,-462 389,-456 395,-456 395,-456 425,-456 425,-456 431,-456 437,-462 437,-468 437,-468 437,-480 437,-480 437,-486 431,-492 425,-492"/>
<text text-anchor="start" x="395.5" y="-476.1" font-family="Helvetica,sans-Serif" font-weight="bold" font-size="13.00" fill="#1d1b16">FD1</text>
<text text-anchor="start" x="397.5" y="-465.5" font-family="Helvetica,sans-Serif" font-size="10.00" fill="#1d1b16">1.1%</text>
</g>
<!-- FD2 -->
<g id="node25" class="node">
<title>FD2</title>
<path fill="#d9e7fc" stroke="#3d7bd6" stroke-width="1.3" d="M405,-416C405,-416 375,-416 375,-416 369,-416 363,-410 363,-404 363,-404 363,-392 363,-392 363,-386 369,-380 375,-380 375,-380 405,-380 405,-380 411,-380 417,-386 417,-392 417,-392 417,-404 417,-404 417,-410 411,-416 405,-416"/>
<text text-anchor="start" x="375.5" y="-400.1" font-family="Helvetica,sans-Serif" font-weight="bold" font-size="13.00" fill="#1d1b16">FD2</text>
<text text-anchor="start" x="377.5" y="-389.5" font-family="Helvetica,sans-Serif" font-size="10.00" fill="#1d1b16">2.3%</text>
</g>
<!-- FD1&#45;&gt;FD2 -->
<g id="edge28" class="edge">
<title>FD1&#45;&gt;FD2</title>
<path fill="none" stroke="#a89f90" stroke-width="1.1" d="M405.36,-455.84C402.71,-446.03 399.35,-433.58 396.44,-422.84"/>
<polygon fill="#a89f90" stroke="#a89f90" stroke-width="1.1" points="398.81,-422.19 394.61,-416.07 394.07,-423.47 398.81,-422.19"/>
</g>
<!-- FD3 -->
<g id="node26" class="node">
<title>FD3</title>
<path fill="#d9e7fc" stroke="#3d7bd6" stroke-width="1.3" d="M479,-416C479,-416 449,-416 449,-416 443,-416 437,-410 437,-404 437,-404 437,-392 437,-392 437,-386 443,-380 449,-380 449,-380 479,-380 479,-380 485,-380 491,-386 491,-392 491,-392 491,-404 491,-404 491,-410 485,-416 479,-416"/>
<text text-anchor="start" x="449.5" y="-400.1" font-family="Helvetica,sans-Serif" font-weight="bold" font-size="13.00" fill="#1d1b16">FD3</text>
<text text-anchor="start" x="451.5" y="-389.5" font-family="Helvetica,sans-Serif" font-size="10.00" fill="#1d1b16">2.3%</text>
</g>
<!-- FD1&#45;&gt;FD3 -->
<g id="edge29" class="edge">
<title>FD1&#45;&gt;FD3</title>
<path fill="none" stroke="#a89f90" stroke-width="1.1" d="M422.52,-455.84C429.89,-445.75 439.28,-432.87 447.27,-421.92"/>
<polygon fill="#a89f90" stroke="#a89f90" stroke-width="1.1" points="449.4,-423.17 451.54,-416.07 445.44,-420.28 449.4,-423.17"/>
</g>
<!-- RF1 -->
<g id="node27" class="node">
<title>RF1</title>
<path fill="#d9e7fc" stroke="#3d7bd6" stroke-width="1.3" d="M499,-492C499,-492 469,-492 469,-492 463,-492 457,-486 457,-480 457,-480 457,-468 457,-468 457,-462 463,-456 469,-456 469,-456 499,-456 499,-456 505,-456 511,-462 511,-468 511,-468 511,-480 511,-480 511,-486 505,-492 499,-492"/>
<text text-anchor="start" x="470" y="-476.1" font-family="Helvetica,sans-Serif" font-weight="bold" font-size="13.00" fill="#1d1b16">RF1</text>
<text text-anchor="start" x="471.5" y="-465.5" font-family="Helvetica,sans-Serif" font-size="10.00" fill="#1d1b16">1.1%</text>
</g>
</g>
</svg>
