<?xml version="1.0" encoding="UTF-8" standalone="no"?>
<!DOCTYPE svg PUBLIC "-//W3C//DTD SVG 1.1//EN"
 "http://www.w3.org/Graphics/SVG/1.1/DTD/svg11.dtd">
<!-- Generated by graphviz version 2.43.0 (0)
 -->
<!-- Title: %3 Pages: 1 -->
<svg width="731pt" height="576pt"
 viewBox="0.00 0.00 731.00 576.00" xmlns="http://www.w3.org/2000/svg" xmlns:xlink="http://www.w3.org/1999/xlink">
<g id="graph0" class="graph" transform="scale(1 1) rotate(0) translate(4 572)">
<title>%3</title>
<!-- V6 -->
<g id="node1" class="node">
<title>V6</title>
<path fill="#e3e5e9" stroke="#9aa0a6" stroke-width="1.3" d="M190,-492C190,-492 160,-492 160,-492 154,-492 148,-486 148,-480 148,-480 148,-468 148,-468 148,-462 154,-456 160,-456 160,-456 190,-456 190,-456 196,-456 202,-462 202,-468 202,-468 202,-480 202,-480 202,-486 196,-492 190,-492"/>
<text text-anchor="start" x="165.5" y="-476.1" font-family="Helvetica,sans-Serif" font-weight="bold" font-size="13.00" fill="#1d1b16">V6</text>
<text text-anchor="start" x="162.5" y="-465.5" font-family="Helvetica,sans-Serif" font-size="10.00" fill="#1d1b16">0.8%</text>
</g>
<!-- V7 -->
<g id="node2" class="node">
<title>V7</title>
<path fill="#e6e0f8" stroke="#7c6bd6" stroke-width="1.3" d="M306,-416C306,-416 276,-416 276,-416 270,-416 264,-410 264,-404 264,-404 264,-392 264,-392 264,-386 270,-380 276,-380 276,-380 306,-380 306,-380 312,-380 318,-386 318,-392 318,-392 318,-404 318,-404 318,-410 312,-416 306,-416"/>
<text text-anchor="start" x="281.5" y="-400.1" font-family="Helvetica,sans-Serif" font-weight="bold" font-size="13.00" fill="#1d1b16">V7</text>
<text text-anchor="start" x="278.5" y="-389.5" font-family="Helvetica,sans-Serif" font-size="10.00" fill="#1d1b16">1.6%</text>
</g>
<!-- V6&#45;&gt;V7 -->
<g id="edge1" class="edge">
<title>V6&#45;&gt;V7</title>
<path fill="none" stroke="#a89f90" stroke-width="1.1" d="M201.9,-455.84C218.59,-445.19 240.16,-431.43 257.9,-420.12"/>
<polygon fill="#a89f90" stroke="#a89f90" stroke-width="1.1" points="259.66,-421.9 264.24,-416.07 257.02,-417.77 259.66,-421.9"/>
</g>
<!-- V8 -->
<g id="node3" class="node">
<title>V8</title>
<path fill="#e6e0f8" stroke="#7c6bd6" stroke-width="1.3" d="M46,-264C46,-264 16,-264 16,-264 10,-264 4,-258 4,-252 4,-252 4,-240 4,-240 4,-234 10,-228 16,-228 16,-228 46,-228 46,-228 52,-228 58,-234 58,-240 58,-240 58,-252 58,-252 58,-258 52,-264 46,-264"/>
<text text-anchor="start" x="21.5" y="-248.1" font-family="Helvetica,sans-Serif" font-weight="bold" font-size="13.00" fill="#1d1b16">V8</text>
<text text-anchor="start" x="18.5" y="-237.5" font-family="Helvetica,sans-Serif" font-size="10.00" fill="#1d1b16">1.6%</text>
</g>
<!-- V6&#45;&gt;V8 -->
<g id="edge2" class="edge">
<title>V6&#45;&gt;V8</title>
<path fill="none" stroke="#a89f90" stroke-width="1.1" d="M147.84,-468.35C119.1,-461.89 74.82,-447.28 52,-416 20.52,-372.85 23.01,-306.44 27.21,-271.09"/>
<polygon fill="#a89f90" stroke="#a89f90" stroke-width="1.1" points="29.65,-271.29 28.12,-264.04 24.79,-270.67 29.65,-271.29"/>
</g>
<!-- DI1 -->
<g id="node4" class="node">
<title>DI1</title>
<path fill="#e6e0f8" stroke="#7c6bd6" stroke-width="1.3" d="M290,-340C290,-340 260,-340 260,-340 254,-340 248,-334 248,-328 248,-328 248,-316 248,-316 248,-310 254,-304 260,-304 260,-304 290,-304 290,-304 296,-304 302,-310 302,-316 302,-316 302,-328 302,-328 302,-334 296,-340 290,-340"/>
<text text-anchor="start" x="262.5" y="-324.1" font-family="Helvetica,sans-Serif" font-weight="bold" font-size="13.00" fill="#1d1b16">DI1</text>
<text text-anchor="start" x="262.5" y="-313.5" font-family="Helvetica,sans-Serif" font-size="10.00" fill="#1d1b16">2.4%</text>
</g>
<!-- V6&#45;&gt;DI1 -->
<g id="edge3" class="edge">
<title>V6&#45;&gt;DI1</title>
<path fill="none" stroke="#a89f90" stroke-width="1.1" d="M186.47,-455.79C204.48,-428.78 239.41,-376.39 259.59,-346.11"/>
<polygon fill="#a89f90" stroke="#a89f90" stroke-width="1.1" points="261.82,-347.19 263.66,-340.01 257.74,-344.47 261.82,-347.19"/>
</g>
<!-- TRAP2 -->
<g id="node5" class="node">
<title>TRAP2</title>
<path fill="#d3f1e9" stroke="#1aa39a" stroke-width="1.3" d="M116,-416C116,-416 74,-416 74,-416 68,-416 62,-410 62,-404 62,-404 62,-392 62,-392 62,-386 68,-380 74,-380 74,-380 116,-380 116,-380 122,-380 128,-386 128,-392 128,-392 128,-404 128,-404 128,-410 122,-416 116,-416"/>
<text text-anchor="start" x="71" y="-400.1" font-family="Helvetica,sans-Serif" font-weight="bold" font-size="13.00" fill="#1d1b16">TRAP2</text>
<text text-anchor="start" x="82.5" y="-389.5" font-family="Helvetica,sans-Serif" font-size="10.00" fill="#1d1b16">1.6%</text>
</g>
<!-- V6&#45;&gt;TRAP2 -->
<g id="edge5" class="edge">
<title>V6&#45;&gt;TRAP2</title>
<path fill="none" stroke="#a89f90" stroke-width="1.1" d="M156.45,-455.84C145.24,-445.47 130.84,-432.15 118.8,-421.02"/>
<polygon fill="#a89f90" stroke="#a89f90" stroke-width="1.1" points="120.26,-419.02 113.45,-416.07 116.93,-422.62 120.26,-419.02"/>
</g>
<!-- V9 -->
<g id="node13" class="node">
<title>V9</title>
<path fill="#e6e0f8" stroke="#7c6bd6" stroke-width="1.3" d="M190,-416C190,-416 160,-416 160,-416 154,-416 148,-410 148,-404 148,-404 148,-392 148,-392 148,-386 154,-380 160,-380 160,-380 190,-380 190,-380 196,-380 202,-386 202,-392 202,-392 202,-404 202,-404 202,-410 196,-416 190,-416"/>
<text text-anchor="start" x="165.5" y="-400.1" font-family="Helvetica,sans-Serif" font-weight="bold" font-size="13.00" fill="#1d1b16">V9</text>
<text text-anchor="start" x="162.5" y="-389.5" font-family="Helvetica,sans-Serif" font-size="10.00" fill="#1d1b16">1.6%</text>
</g>
<!-- V6&#45;&gt;V9 -->
<g id="edge14" class="edge">
<title>V6&#45;&gt;V9</title>
<path fill="none" stroke="#a89f90" stroke-width="1.1" d="M175,-455.84C175,-446.12 175,-433.82 175,-423.15"/>
<polygon fill="#a89f90" stroke="#a89f90" stroke-width="1.1" points="177.45,-423.07 175,-416.07 172.55,-423.07 177.45,-423.07"/>
</g>
<!-- V7&#45;&gt;DI1 -->
<g id="edge4" class="edge">
<title>V7&#45;&gt;DI1</title>
<path fill="none" stroke="#a89f90" stroke-width="1.1" d="M287.29,-379.84C285.19,-370.12 282.53,-357.82 280.22,-347.15"/>
<polygon fill="#a89f90" stroke="#a89f90" stroke-width="1.1" points="282.56,-346.39 278.69,-340.07 277.78,-347.43 282.56,-346.39"/>
</g>
<!-- DI2 -->
<g id="node11" class="node">
<title>DI2</title>
<path fill="#e6e0f8" stroke="#7c6bd6" stroke-width="1.3" d="M364,-340C364,-340 334,-340 334,-340 328,-340 322,-334 322,-328 322,-328 322,-316 322,-316 322,-310 328,-304 334,-304 334,-304 364,-304 364,-304 370,-304 376,-310 376,-316 376,-316 376,-328 376,-328 376,-334 370,-340 364,-340"/>
<text text-anchor="start" x="336.5" y="-324.1" font-family="Helvetica,sans-Serif" font-weight="bold" font-size="13.00" fill="#1d1b16">DI2</text>
<text text-anchor="start" x="336.5" y="-313.5" font-family="Helvetica,sans-Serif" font-size="10.00" fill="#1d1b16">5.7%</text>
</g>
<!-- V7&#45;&gt;DI2 -->
<g id="edge11" class="edge">
<title>V7&#45;&gt;DI2</title>
<path fill="none" stroke="#a89f90" stroke-width="1.1" d="M304.45,-379.84C312.43,-369.66 322.64,-356.63 331.27,-345.62"/>
<polygon fill="#a89f90" stroke="#a89f90" stroke-width="1.1" points="333.23,-347.09 335.62,-340.07 329.37,-344.07 333.23,-347.09"/>
</g>
<!-- V16 -->
<g id="node20" class="node">
<title>V16</title>
<path fill="#f9e9c9" stroke="#d99a16" stroke-width="1.3" d="M137,-112C137,-112 107,-112 107,-112 101,-112 95,-106 95,-100 95,-100 95,-88 95,-88 95,-82 101,-76 107,-76 107,-76 137,-76 137,-76 143,-76 149,-82 149,-88 149,-88 149,-100 149,-100 149,-106 143,-112 137,-112"/>
<text text-anchor="start" x="108" y="-96.1" font-family="Helvetica,sans-Serif" font-weight="bold" font-size="13.00" fill="#1d1b16">V16</text>
<text text-anchor="start" x="106.5" y="-85.5" font-family="Helvetica,sans-Serif" font-size="10.00" fill="#1d1b16">11.6%</text>
</g>
<!-- V8&#45;&gt;V16 -->
<g id="edge22" class="edge">
<title>V8&#45;&gt;V16</title>
<path fill="none" stroke="#a89f90" stroke-width="1.1" d="M41.44,-227.79C57.83,-200.78 89.61,-148.39 107.98,-118.11"/>
<polygon fill="#a89f90" stroke="#a89f90" stroke-width="1.1" points="110.15,-119.26 111.68,-112.01 105.96,-116.72 110.15,-119.26"/>
</g>
<!-- V13 -->
<g id="node21" class="node">
<title>V13</title>
<path fill="#e6e0f8" stroke="#7c6bd6" stroke-width="1.3" d="M42,-188C42,-188 12,-188 12,-188 6,-188 0,-182 0,-176 0,-176 0,-164 0,-164 0,-158 6,-152 12,-152 12,-152 42,-152 42,-152 48,-152 54,-158 54,-164 54,-164 54,-176 54,-176 54,-182 48,-188 42,-188"/>
<text text-anchor="start" x="13" y="-172.1" font-family="Helvetica,sans-Serif" font-weight="bold" font-size="13.00" fill="#1d1b16">V13</text>
<text text-anchor="start" x="14.5" y="-161.5" font-family="Helvetica,sans-Serif" font-size="10.00" fill="#1d1b16">2.4%</text>
</g>
<!-- V8&#45;&gt;V13 -->
<g id="edge25" class="edge">
<title>V8&#45;&gt;V13</title>
<path fill="none" stroke="#a89f90" stroke-width="1.1" d="M30.07,-227.84C29.55,-218.12 28.88,-205.82 28.31,-195.15"/>
<polygon fill="#a89f90" stroke="#a89f90" stroke-width="1.1" points="30.75,-194.93 27.92,-188.07 25.85,-195.19 30.75,-194.93"/>
</g>
<!-- V1 -->
<g id="node6" class="node">
<title>V1</title>
<path fill="#e3e5e9" stroke="#9aa0a6" stroke-width="1.3" d="M415,-568C415,-568 385,-568 385,-568 379,-568 373,-562 373,-556 373,-556 373,-544 373,-544 373,-538 379,-532 385,-532 385,-532 415,-532 415,-532 421,-532 427,-538 427,-544 427,-544 427,-556 427,-556 427,-562 421,-568 415,-568"/>
<text text-anchor="start" x="390.5" y="-552.1" font-family="Helvetica,sans-Serif" font-weight="bold" font-size="13.00" fill="#1d1b16">V1</text>
<text text-anchor="start" x="387.5" y="-541.5" font-family="Helvetica,sans-Serif" font-size="10.00" fill="#1d1b16">0.8%</text>
</g>
<!-- V2 -->
<g id="node7" class="node">
<title>V2</title>
<path fill="#e6e0f8" stroke="#7c6bd6" stroke-width="1.3" d="M489,-492C489,-492 459,-492 459,-492 453,-492 447,-486 447,-480 447,-480 447,-468 447,-468 447,-462 453,-456 459,-456 459,-456 489,-456 489,-456 495,-456 501,-462 501,-468 501,-468 501,-480 501,-480 501,-486 495,-492 489,-492"/>
<text text-anchor="start" x="464.5" y="-476.1" font-family="Helvetica,sans-Serif" font-weight="bold" font-size="13.00" fill="#1d1b16">V2</text>
<text text-anchor="start" x="461.5" y="-465.5" font-family="Helvetica,sans-Serif" font-size="10.00" fill="#1d1b16">1.6%</text>
</g>
<!-- V1&#45;&gt;V2 -->
<g id="edge6" class="edge">
<title>V1&#45;&gt;V2</title>
<path fill="none" stroke="#a89f90" stroke-width="1.1" d="M417.16,-531.84C427.44,-521.56 440.61,-508.39 451.68,-497.32"/>
<polygon fill="#a89f90" stroke="#a89f90" stroke-width="1.1" points="453.71,-498.75 456.93,-492.07 450.25,-495.29 453.71,-498.75"/>
</g>
<!-- V3 -->
<g id="node8" class="node">
<title>V3</title>
<path fill="#e6e0f8" stroke="#7c6bd6" stroke-width="1.3" d="M415,-492C415,-492 385,-492 385,-492 379,-492 373,-486 373,-480 373,-480 373,-468 373,-468 373,-462 379,-456 385,-456 385,-456 415,-456 415,-456 421,-456 427,-462 427,-468 427,-468 427,-480 427,-480 427,-486 421,-492 415,-492"/>
<text text-anchor="start" x="390.5" y="-476.1" font-family="Helvetica,sans-Serif" font-weight="bold" font-size="13.00" fill="#1d1b16">V3</text>
<text text-anchor="start" x="387.5" y="-465.5" font-family="Helvetica,sans-Serif" font-size="10.00" fill="#1d1b16">1.6%</text>
</g>
<!-- V1&#45;&gt;V3 -->
<g id="edge7" class="edge">
<title>V1&#45;&gt;V3</title>
<path fill="none" stroke="#a89f90" stroke-width="1.1" d="M400,-531.84C400,-522.12 400,-509.82 400,-499.15"/>
<polygon fill="#a89f90" stroke="#a89f90" stroke-width="1.1" points="402.45,-499.07 400,-492.07 397.55,-499.07 402.45,-499.07"/>
</g>
<!-- TRAP1 -->
<g id="node12" class="node">
<title>TRAP1</title>
<path fill="#d3f1e9" stroke="#1aa39a" stroke-width="1.3" d="M392,-416C392,-416 350,-416 350,-416 344,-416 338,-410 338,-404 338,-404 338,-392 338,-392 338,-386 344,-380 350,-380 350,-380 392,-380 392,-380 398,-380 404,-386 404,-392 404,-392 404,-404 404,-404 404,-410 398,-416 392,-416"/>
<text text-anchor="start" x="347" y="-400.1" font-family="Helvetica,sans-Serif" font-weight="bold" font-size="13.00" fill="#1d1b16">TRAP1</text>
<text text-anchor="start" x="358.5" y="-389.5" font-family="Helvetica,sans-Serif" font-size="10.00" fill="#1d1b16">2.4%</text>
</g>
<!-- V1&#45;&gt;TRAP1 -->
<g id="edge12" class="edge">
<title>V1&#45;&gt;TRAP1</title>
<path fill="none" stroke="#a89f90" stroke-width="1.1" d="M385.1,-531.86C376.83,-521.18 367.35,-506.71 363,-492 356.27,-469.27 359.84,-442.14 364.14,-423.07"/>
<polygon fill="#a89f90" stroke="#a89f90" stroke-width="1.1" points="366.55,-423.56 365.81,-416.18 361.78,-422.41 366.55,-423.56"/>
</g>
<!-- V5 -->
<g id="node10" class="node">
<title>V5</title>
<path fill="#e6e0f8" stroke="#7c6bd6" stroke-width="1.3" d="M466,-416C466,-416 436,-416 436,-416 430,-416 424,-410 424,-404 424,-404 424,-392 424,-392 424,-386 430,-380 436,-380 436,-380 466,-380 466,-380 472,-380 478,-386 478,-392 478,-392 478,-404 478,-404 478,-410 472,-416 466,-416"/>
<text text-anchor="start" x="441.5" y="-400.1" font-family="Helvetica,sans-Serif" font-weight="bold" font-size="13.00" fill="#1d1b16">V5</text>
<text text-anchor="start" x="438.5" y="-389.5" font-family="Helvetica,sans-Serif" font-size="10.00" fill="#1d1b16">3.3%</text>
</g>
<!-- V3&#45;&gt;V5 -->
<g id="edge8" class="edge">
<title>V3&#45;&gt;V5</title>
<path fill="none" stroke="#a89f90" stroke-width="1.1" d="M411.83,-455.84C418.78,-445.75 427.66,-432.87 435.2,-421.92"/>
<polygon fill="#a89f90" stroke="#a89f90" stroke-width="1.1" points="437.28,-423.22 439.24,-416.07 433.25,-420.44 437.28,-423.22"/>
</g>
<!-- V3&#45;&gt;TRAP1 -->
<g id="edge13" class="edge">
<title>V3&#45;&gt;TRAP1</title>
<path fill="none" stroke="#a89f90" stroke-width="1.1" d="M393.27,-455.84C389.43,-446.03 384.55,-433.58 380.34,-422.84"/>
<polygon fill="#a89f90" stroke="#a89f90" stroke-width="1.1" points="382.52,-421.69 377.69,-416.07 377.96,-423.48 382.52,-421.69"/>
</g>
<!-- V4 -->
<g id="node9" class="node">
<title>V4</title>
<path fill="#e3e5e9" stroke="#9aa0a6" stroke-width="1.3" d="M563,-492C563,-492 533,-492 533,-492 527,-492 521,-486 521,-480 521,-480 521,-468 521,-468 521,-462 527,-456 533,-456 533,-456 563,-456 563,-456 569,-456 575,-462 575,-468 575,-468 575,-480 575,-480 575,-486 569,-492 563,-492"/>
<text text-anchor="start" x="538.5" y="-476.1" font-family="Helvetica,sans-Serif" font-weight="bold" font-size="13.00" fill="#1d1b16">V4</text>
<text text-anchor="start" x="535.5" y="-465.5" font-family="Helvetica,sans-Serif" font-size="10.00" fill="#1d1b16">0.8%</text>
</g>
<!-- V4&#45;&gt;V5 -->
<g id="edge9" class="edge">
<title>V4&#45;&gt;V5</title>
<path fill="none" stroke="#a89f90" stroke-width="1.1" d="M525.5,-455.84C511.67,-445.28 493.83,-431.67 479.07,-420.42"/>
<polygon fill="#a89f90" stroke="#a89f90" stroke-width="1.1" points="480.43,-418.37 473.38,-416.07 477.45,-422.26 480.43,-418.37"/>
</g>
<!-- V5&#45;&gt;DI2 -->
<g id="edge10" class="edge">
<title>V5&#45;&gt;DI2</title>
<path fill="none" stroke="#a89f90" stroke-width="1.1" d="M427.34,-379.84C412.8,-369.28 394.03,-355.67 378.52,-344.42"/>
<polygon fill="#a89f90" stroke="#a89f90" stroke-width="1.1" points="379.63,-342.2 372.53,-340.07 376.76,-346.16 379.63,-342.2"/>
</g>
<!-- EP1 -->
<g id="node15" class="node">
<title>EP1</title>
<path fill="#f8d9d6" stroke="#e0625b" stroke-width="1.3" d="M232,-264C232,-264 202,-264 202,-264 196,-264 190,-258 190,-252 190,-252 190,-240 190,-240 190,-234 196,-228 202,-228 202,-228 232,-228 232,-228 238,-228 244,-234 244,-240 244,-240 244,-252 244,-252 244,-258 238,-264 232,-264"/>
<text text-anchor="start" x="203" y="-248.1" font-family="Helvetica,sans-Serif" font-weight="bold" font-size="13.00" fill="#1d1b16">EP1</text>
<text text-anchor="start" x="204.5" y="-237.5" font-family="Helvetica,sans-Serif" font-size="10.00" fill="#1d1b16">7.3%</text>
</g>
<!-- DI2&#45;&gt;EP1 -->
<g id="edge17" class="edge">
<title>DI2&#45;&gt;EP1</title>
<path fill="none" stroke="#a89f90" stroke-width="1.1" d="M321.97,-305.85C301.37,-294.3 272.89,-278.33 250.79,-265.94"/>
<polygon fill="#a89f90" stroke="#a89f90" stroke-width="1.1" points="251.75,-263.67 244.45,-262.39 249.36,-267.95 251.75,-263.67"/>
</g>
<!-- V15 -->
<g id="node23" class="node">
<title>V15</title>
<path fill="#f8d9d6" stroke="#e0625b" stroke-width="1.3" d="M306,-112C306,-112 276,-112 276,-112 270,-112 264,-106 264,-100 264,-100 264,-88 264,-88 264,-82 270,-76 276,-76 276,-76 306,-76 306,-76 312,-76 318,-82 318,-88 318,-88 318,-100 318,-100 318,-106 312,-112 306,-112"/>
<text text-anchor="start" x="277" y="-96.1" font-family="Helvetica,sans-Serif" font-weight="bold" font-size="13.00" fill="#1d1b16">V15</text>
<text text-anchor="start" x="278.5" y="-85.5" font-family="Helvetica,sans-Serif" font-size="10.00" fill="#1d1b16">9.8%</text>
</g>
<!-- DI2&#45;&gt;V15 -->
<g id="edge26" class="edge">
<title>DI2&#45;&gt;V15</title>
<path fill="none" stroke="#a89f90" stroke-width="1.1" d="M349.37,-303.62C349.49,-272.3 347.25,-204.78 328,-152 323.65,-140.07 316.41,-128.09 309.49,-118.22"/>
<polygon fill="#a89f90" stroke="#a89f90" stroke-width="1.1" points="311.34,-116.59 305.25,-112.36 307.37,-119.47 311.34,-116.59"/>
</g>
<!-- V10 -->
<g id="node14" class="node">
<title>V10</title>
<path fill="#e6e0f8" stroke="#7c6bd6" stroke-width="1.3" d="M132,-340C132,-340 102,-340 102,-340 96,-340 90,-334 90,-328 90,-328 90,-316 90,-316 90,-310 96,-304 102,-304 102,-304 132,-304 132,-304 138,-304 144,-310 144,-316 144,-316 144,-328 144,-328 144,-334 138,-340 132,-340"/>
<text text-anchor="start" x="103" y="-324.1" font-family="Helvetica,sans-Serif" font-weight="bold" font-size="13.00" fill="#1d1b16">V10</text>
<text text-anchor="start" x="104.5" y="-313.5" font-family="Helvetica,sans-Serif" font-size="10.00" fill="#1d1b16">2.4%</text>
</g>
<!-- V9&#45;&gt;V10 -->
<g id="edge15" class="edge">
<title>V9&#45;&gt;V10</title>
<path fill="none" stroke="#a89f90" stroke-width="1.1" d="M161.55,-379.84C153.57,-369.66 143.36,-356.63 134.73,-345.62"/>
<polygon fill="#a89f90" stroke="#a89f90" stroke-width="1.1" points="136.63,-344.07 130.38,-340.07 132.77,-347.09 136.63,-344.07"/>
</g>
<!-- V9&#45;&gt;EP1 -->
<g id="edge16" class="edge">
<title>V9&#45;&gt;EP1</title>
<path fill="none" stroke="#a89f90" stroke-width="1.1" d="M179.84,-379.79C183.01,-368.48 187.26,-353.36 191,-340 197.55,-316.63 205.01,-289.95 210.25,-271.17"/>
<polygon fill="#a89f90" stroke="#a89f90" stroke-width="1.1" points="212.69,-271.54 212.21,-264.14 207.97,-270.22 212.69,-271.54"/>
</g>
<!-- TRAP3 -->
<g id="node17" class="node">
<title>TRAP3</title>
<path fill="#d3f1e9" stroke="#1aa39a" stroke-width="1.3" d="M148,-264C148,-264 106,-264 106,-264 100,-264 94,-258 94,-252 94,-252 94,-240 94,-240 94,-234 100,-228 106,-228 106,-228 148,-228 148,-228 154,-228 160,-234 160,-240 160,-240 160,-252 160,-252 160,-258 154,-264 148,-264"/>
<text text-anchor="start" x="103" y="-248.1" font-family="Helvetica,sans-Serif" font-weight="bold" font-size="13.00" fill="#1d1b16">TRAP3</text>
<text text-anchor="start" x="114.5" y="-237.5" font-family="Helvetica,sans-Serif" font-size="10.00" fill="#1d1b16">3.3%</text>
</g>
<!-- V9&#45;&gt;TRAP3 -->
<g id="edge19" class="edge">
<title>V9&#45;&gt;TRAP3</title>
<path fill="none" stroke="#a89f90" stroke-width="1.1" d="M172.3,-379.89C169.06,-360.99 162.91,-329.82 154,-304 150.07,-292.62 144.54,-280.51 139.51,-270.38"/>
<polygon fill="#a89f90" stroke="#a89f90" stroke-width="1.1" points="141.64,-269.18 136.29,-264.05 137.27,-271.4 141.64,-269.18"/>
</g>
<!-- V10&#45;&gt;TRAP3 -->
<g id="edge20" class="edge">
<title>V10&#45;&gt;TRAP3</title>
<path fill="none" stroke="#a89f90" stroke-width="1.1" d="M119.32,-303.84C120.63,-294.12 122.29,-281.82 123.74,-271.15"/>
<polygon fill="#a89f90" stroke="#a89f90" stroke-width="1.1" points="126.18,-271.34 124.69,-264.07 121.33,-270.68 126.18,-271.34"/>
</g>
<!-- EP2 -->
<g id="node16" class="node">
<title>EP2</title>
<path fill="#f8d9d6" stroke="#e0625b" stroke-width="1.3" d="M232,-188C232,-188 202,-188 202,-188 196,-188 190,-182 190,-176 190,-176 190,-164 190,-164 190,-158 196,-152 202,-152 202,-152 232,-152 232,-152 238,-152 244,-158 244,-164 244,-164 244,-176 244,-176 244,-182 238,-188 232,-188"/>
<text text-anchor="start" x="203" y="-172.1" font-family="Helvetica,sans-Serif" font-weight="bold" font-size="13.00" fill="#1d1b16">EP2</text>
<text text-anchor="start" x="204.5" y="-161.5" font-family="Helvetica,sans-Serif" font-size="10.00" fill="#1d1b16">8.1%</text>
</g>
<!-- EP1&#45;&gt;EP2 -->
<g id="edge18" class="edge">
<title>EP1&#45;&gt;EP2</title>
<path fill="none" stroke="#a89f90" stroke-width="1.1" d="M217,-227.84C217,-218.12 217,-205.82 217,-195.15"/>
<polygon fill="#a89f90" stroke="#a89f90" stroke-width="1.1" points="219.45,-195.07 217,-188.07 214.55,-195.07 219.45,-195.07"/>
</g>
<!-- EP2&#45;&gt;V16 -->
<g id="edge21" class="edge">
<title>EP2&#45;&gt;V16</title>
<path fill="none" stroke="#a89f90" stroke-width="1.1" d="M194.97,-151.84C181.42,-141.28 163.94,-127.67 149.49,-116.42"/>
<polygon fill="#a89f90" stroke="#a89f90" stroke-width="1.1" points="150.94,-114.44 143.91,-112.07 147.93,-118.3 150.94,-114.44"/>
</g>
<!-- EP2&#45;&gt;V15 -->
<g id="edge27" class="edge">
<title>EP2&#45;&gt;V15</title>
<path fill="none" stroke="#a89f90" stroke-width="1.1" d="M234.16,-151.84C244.44,-141.56 257.61,-128.39 268.68,-117.32"/>
<polygon fill="#a89f90" stroke="#a89f90" stroke-width="1.1" points="270.71,-118.75 273.93,-112.07 267.25,-115.29 270.71,-118.75"/>
</g>
<!-- V11 -->
<g id="node18" class="node">
<title>V11</title>
<path fill="#e3e5e9" stroke="#9aa0a6" stroke-width="1.3" d="M158,-188C158,-188 128,-188 128,-188 122,-188 116,-182 116,-176 116,-176 116,-164 116,-164 116,-158 122,-152 128,-152 128,-152 158,-152 158,-152 164,-152 170,-158 170,-164 170,-164 170,-176 170,-176 170,-182 164,-188 158,-188"/>
<text text-anchor="start" x="129" y="-172.1" font-family="Helvetica,sans-Serif" font-weight="bold" font-size="13.00" fill="#1d1b16">V11</text>
<text text-anchor="start" x="130.5" y="-161.5" font-family="Helvetica,sans-Serif" font-size="10.00" fill="#1d1b16">0.8%</text>
</g>
<!-- V11&#45;&gt;V16 -->
<g id="edge23" class="edge">
<title>V11&#45;&gt;V16</title>
<path fill="none" stroke="#a89f90" stroke-width="1.1" d="M138.13,-151.84C135.35,-142.03 131.81,-129.58 128.77,-118.84"/>
<polygon fill="#a89f90" stroke="#a89f90" stroke-width="1.1" points="131.11,-118.14 126.84,-112.07 126.4,-119.47 131.11,-118.14"/>
</g>
<!-- V12 -->
<g id="node19" class="node">
<title>V12</title>
<path fill="#e3e5e9" stroke="#9aa0a6" stroke-width="1.3" d="M306,-188C306,-188 276,-188 276,-188 270,-188 264,-182 264,-176 264,-176 264,-164 264,-164 264,-158 270,-152 276,-152 276,-152 306,-152 306,-152 312,-152 318,-158 318,-164 318,-164 318,-176 318,-176 318,-182 312,-188 306,-188"/>
<text text-anchor="start" x="277" y="-172.1" font-family="Helvetica,sans-Serif" font-weight="bold" font-size="13.00" fill="#1d1b16">V12</text>
<text text-anchor="start" x="278.5" y="-161.5" font-family="Helvetica,sans-Serif" font-size="10.00" fill="#1d1b16">0.8%</text>
</g>
<!-- V12&#45;&gt;V15 -->
<g id="edge28" class="edge">
<title>V12&#45;&gt;V15</title>
<path fill="none" stroke="#a89f90" stroke-width="1.1" d="M291,-151.84C291,-142.12 291,-129.82 291,-119.15"/>
<polygon fill="#a89f90" stroke="#a89f90" stroke-width="1.1" points="293.45,-119.07 291,-112.07 288.55,-119.07 293.45,-119.07"/>
</g>
<!-- V13&#45;&gt;V16 -->
<g id="edge24" class="edge">
<title>V13&#45;&gt;V16</title>
<path fill="none" stroke="#a89f90" stroke-width="1.1" d="M49.03,-151.84C62.58,-141.28 80.06,-127.67 94.51,-116.42"/>
<polygon fill="#a89f90" stroke="#a89f90" stroke-width="1.1" points="96.07,-118.3 100.09,-112.07 93.06,-114.44 96.07,-118.3"/>
</g>
<!-- FD3 -->
<g id="node27" class="node">
<title>FD3</title>
<path fill="#d9e7fc" stroke="#3d7bd6" stroke-width="1.3" d="M42,-112C42,-112 12,-112 12,-112 6,-112 0,-106 0,-100 0,-100 0,-88 0,-88 0,-82 6,-76 12,-76 12,-76 42,-76 42,-76 48,-76 54,-82 54,-88 54,-88 54,-100 54,-100 54,-106 48,-112 42,-112"/>
<text text-anchor="start" x="12.5" y="-96.1" font-family="Helvetica,sans-Serif" font-weight="bold" font-size="13.00" fill="#1d1b16">FD3</text>
<text text-anchor="start" x="14.5" y="-85.5" font-family="Helvetica,sans-Serif" font-size="10.00" fill="#1d1b16">3.3%</text>
</g>
<!-- V13&#45;&gt;FD3 -->
<g id="edge32" class="edge">
<title>V13&#45;&gt;FD3</title>
<path fill="none" stroke="#a89f90" stroke-width="1.1" d="M27,-151.84C27,-142.12 27,-129.82 27,-119.15"/>
<polygon fill="#a89f90" stroke="#a89f90" stroke-width="1.1" points="29.45,-119.07 27,-112.07 24.55,-119.07 29.45,-119.07"/>
</g>
<!-- V14 -->
<g id="node22" class="node">
<title>V14</title>
<path fill="#e3e5e9" stroke="#9aa0a6" stroke-width="1.3" d="M637,-568C637,-568 607,-568 607,-568 601,-568 595,-562 595,-556 595,-556 595,-544 595,-544 595,-538 601,-532 607,-532 607,-532 637,-532 637,-532 643,-532 649,-538 649,-544 649,-544 649,-556 649,-556 649,-562 643,-568 637,-568"/>
<text text-anchor="start" x="608" y="-552.1" font-family="Helvetica,sans-Serif" font-weight="bold" font-size="13.00" fill="#1d1b16">V14</text>
<text text-anchor="start" x="609.5" y="-541.5" font-family="Helvetica,sans-Serif" font-size="10.00" fill="#1d1b16">0.8%</text>
</g>
<!-- FD1 -->
<g id="node25" class="node">
<title>FD1</title>
<path fill="#d9e7fc" stroke="#3d7bd6" stroke-width="1.3" d="M637,-492C637,-492 607,-492 607,-492 601,-492 595,-486 595,-480 595,-480 595,-468 595,-468 595,-462 601,-456 607,-456 607,-456 637,-456 637,-456 643,-456 649,-462 649,-468 649,-468 649,-480 649,-480 649,-486 643,-492 637,-492"/>
<text text-anchor="start" x="607.5" y="-476.1" font-family="Helvetica,sans-Serif" font-weight="bold" font-size="13.00" fill="#1d1b16">FD1</text>
<text text-anchor="start" x="609.5" y="-465.5" font-family="Helvetica,sans-Serif" font-size="10.00" fill="#1d1b16">1.6%</text>
</g>
<!-- V14&#45;&gt;FD1 -->
<g id="edge30" class="edge">
<title>V14&#45;&gt;FD1</title>
<path fill="none" stroke="#a89f90" stroke-width="1.1" d="M622,-531.84C622,-522.12 622,-509.82 622,-499.15"/>
<polygon fill="#a89f90" stroke="#a89f90" stroke-width="1.1" points="624.45,-499.07 622,-492.07 619.55,-499.07 624.45,-499.07"/>
</g>
<!-- EP3 -->
<g id="node24" class="node">
<title>EP3</title>
<path fill="#f8d9d6" stroke="#e0625b" stroke-width="1.3" d="M269,-36C269,-36 239,-36 239,-36 233,-36 227,-30 227,-24 227,-24 227,-12 227,-12 227,-6 233,0 239,0 239,0 269,0 269,0 275,0 281,-6 281,-12 281,-12 281,-24 281,-24 281,-30 275,-36 269,-36"/>
<text text-anchor="start" x="240" y="-20.1" font-family="Helvetica,sans-Serif" font-weight="bold" font-size="13.00" fill="#1d1b16">EP3</text>
<text text-anchor="start" x="238.5" y="-9.5" font-family="Helvetica,sans-Serif" font-size="10.00" fill="#1d1b16">10.6%</text>
</g>
<!-- V15&#45;&gt;EP3 -->
<g id="edge29" class="edge">
<title>V15&#45;&gt;EP3</title>
<path fill="none" stroke="#a89f90" stroke-width="1.1" d="M282.42,-75.84C277.47,-65.94 271.17,-53.35 265.77,-42.53"/>
<polygon fill="#a89f90" stroke="#a89f90" stroke-width="1.1" points="267.86,-41.24 262.54,-36.07 263.47,-43.43 267.86,-41.24"/>
</g>
<!-- FD2 -->
<g id="node26" class="node">
<title>FD2</title>
<path fill="#d9e7fc" stroke="#3d7bd6" stroke-width="1.3" d="M343,-36C343,-36 313,-36 313,-36 307,-36 301,-30 301,-24 301,-24 301,-12 301,-12 301,-6 307,0 313,0 313,0 343,0 343,0 349,0 355,-6 355,-12 355,-12 355,-24 355,-24 355,-30 349,-36 343,-36"/>
<text text-anchor="start" x="313.5" y="-20.1" font-family="Helvetica,sans-Serif" font-weight="bold" font-size="13.00" fill="#1d1b16">FD2</text>
<text text-anchor="start" x="312.5" y="-9.5" font-family="Helvetica,sans-Serif" font-size="10.00" fill="#1d1b16">10.6%</text>
</g>
<!-- V15&#45;&gt;FD2 -->
<g id="edge31" class="edge">
<title>V15&#45;&gt;FD2</title>
<path fill="none" stroke="#a89f90" stroke-width="1.1" d="M299.58,-75.84C304.53,-65.94 310.83,-53.35 316.23,-42.53"/>
<polygon fill="#a89f90" stroke="#a89f90" stroke-width="1.1" points="318.53,-43.43 319.46,-36.07 314.14,-41.24 318.53,-43.43"/>
</g>
<!-- RF1 -->
<g id="node28" class="node">
<title>RF1</title>
<path fill="#d9e7fc" stroke="#3d7bd6" stroke-width="1.3" d="M711,-568C711,-568 681,-568 681,-568 675,-568 669,-562 669,-556 669,-556 669,-544 669,-544 669,-538 675,-532 681,-532 681,-532 711,-532 711,-532 717,-532 723,-538 723,-544 723,-544 723,-556 723,-556 723,-562 717,-568 711,-568"/>
<text text-anchor="start" x="682" y="-552.1" font-family="Helvetica,sans-Serif" font-weight="bold" font-size="13.00" fill="#1d1b16">RF1</text>
<text text-anchor="start" x="683.5" y="-541.5" font-family="Helvetica,sans-Serif" font-size="10.00" fill="#1d1b16">0.8%</text>
</g>
</g>
</svg>
