<?xml version="1.0" encoding="UTF-8" standalone="no"?>
<!DOCTYPE svg PUBLIC "-//W3C//DTD SVG 1.1//EN"
 "http://www.w3.org/Graphics/SVG/1.1/DTD/svg11.dtd">
<!-- Generated by graphviz version 2.43.0 (0)
 -->
<!-- Title: %3 Pages: 1 -->
<svg width="630pt" height="500pt"
 viewBox="0.00 0.00 630.00 500.00" xmlns="http://www.w3.org/2000/svg" xmlns:xlink="http://www.w3.org/1999/xlink">
<g id="graph0" class="graph" transform="scale(1 1) rotate(0) translate(4 496)">
<title>%3</title>
<!-- V2 -->
<g id="node1" class="node">
<title>V2</title>
<path fill="#e3e5e9" stroke="#9aa0a6" stroke-width="1.3" d="M116,-340C116,-340 86,-340 86,-340 80,-340 74,-334 74,-328 74,-328 74,-316 74,-316 74,-310 80,-304 86,-304 86,-304 116,-304 116,-304 122,-304 128,-310 128,-316 128,-316 128,-328 128,-328 128,-334 122,-340 116,-340"/>
<text text-anchor="start" x="91.5" y="-324.1" font-family="Helvetica,sans-Serif" font-weight="bold" font-size="13.00" fill="#1d1b16">V2</text>
<text text-anchor="start" x="88.5" y="-313.5" font-family="Helvetica,sans-Serif" font-size="10.00" fill="#1d1b16">1.1%</text>
</g>
<!-- V3 -->
<g id="node2" class="node">
<title>V3</title>
<path fill="#e6e0f8" stroke="#7c6bd6" stroke-width="1.3" d="M116,-264C116,-264 86,-264 86,-264 80,-264 74,-258 74,-252 74,-252 74,-240 74,-240 74,-234 80,-228 86,-228 86,-228 116,-228 116,-228 122,-228 128,-234 128,-240 128,-240 128,-252 128,-252 128,-258 122,-264 116,-264"/>
<text text-anchor="start" x="91.5" y="-248.1" font-family="Helvetica,sans-Serif" font-weight="bold" font-size="13.00" fill="#1d1b16">V3</text>
<text text-anchor="start" x="88.5" y="-237.5" font-family="Helvetica,sans-Serif" font-size="10.00" fill="#1d1b16">2.3%</text>
</g>
<!-- V2&#45;&gt;V3 -->
<g id="edge1" class="edge">
<title>V2&#45;&gt;V3</title>
<path fill="none" stroke="#a89f90" stroke-width="1.1" d="M101,-303.84C101,-294.12 101,-281.82 101,-271.15"/>
<polygon fill="#a89f90" stroke="#a89f90" stroke-width="1.1" points="103.45,-271.07 101,-264.07 98.55,-271.07 103.45,-271.07"/>
</g>
<!-- DI1 -->
<g id="node5" class="node">
<title>DI1</title>
<path fill="#e6e0f8" stroke="#7c6bd6" stroke-width="1.3" d="M42,-264C42,-264 12,-264 12,-264 6,-264 0,-258 0,-252 0,-252 0,-240 0,-240 0,-234 6,-228 12,-228 12,-228 42,-228 42,-228 48,-228 54,-234 54,-240 54,-240 54,-252 54,-252 54,-258 48,-264 42,-264"/>
<text text-anchor="start" x="14.5" y="-248.1" font-family="Helvetica,sans-Serif" font-weight="bold" font-size="13.00" fill="#1d1b16">DI1</text>
<text text-anchor="start" x="14.5" y="-237.5" font-family="Helvetica,sans-Serif" font-size="10.00" fill="#1d1b16">2.3%</text>
</g>
<!-- V2&#45;&gt;DI1 -->
<g id="edge3" class="edge">
<title>V2&#45;&gt;DI1</title>
<path fill="none" stroke="#a89f90" stroke-width="1.1" d="M83.84,-303.84C73.56,-293.56 60.39,-280.39 49.32,-269.32"/>
<polygon fill="#a89f90" stroke="#a89f90" stroke-width="1.1" points="50.75,-267.29 44.07,-264.07 47.29,-270.75 50.75,-267.29"/>
</g>
<!-- TRAP2 -->
<g id="node9" class="node">
<title>TRAP2</title>
<path fill="#d3f1e9" stroke="#1aa39a" stroke-width="1.3" d="M140,-188C140,-188 98,-188 98,-188 92,-188 86,-182 86,-176 86,-176 86,-164 86,-164 86,-158 92,-152 98,-152 98,-152 140,-152 140,-152 146,-152 152,-158 152,-164 152,-164 152,-176 152,-176 152,-182 146,-188 140,-188"/>
<text text-anchor="start" x="95" y="-172.1" font-family="Helvetica,sans-Serif" font-weight="bold" font-size="13.00" fill="#1d1b16">TRAP2</text>
<text text-anchor="start" x="106.5" y="-161.5" font-family="Helvetica,sans-Serif" font-size="10.00" fill="#1d1b16">3.4%</text>
</g>
<!-- V2&#45;&gt;TRAP2 -->
<g id="edge7" class="edge">
<title>V2&#45;&gt;TRAP2</title>
<path fill="none" stroke="#a89f90" stroke-width="1.1" d="M115.9,-303.86C124.17,-293.18 133.65,-278.71 138,-264 144.88,-240.78 137.6,-213.57 130.15,-194.61"/>
<polygon fill="#a89f90" stroke="#a89f90" stroke-width="1.1" points="132.36,-193.55 127.42,-188.02 127.83,-195.42 132.36,-193.55"/>
</g>
<!-- V7 -->
<g id="node16" class="node">
<title>V7</title>
<path fill="#f8d9d6" stroke="#e0625b" stroke-width="1.3" d="M294,-264C294,-264 264,-264 264,-264 258,-264 252,-258 252,-252 252,-252 252,-240 252,-240 252,-234 258,-228 264,-228 264,-228 294,-228 294,-228 300,-228 306,-234 306,-240 306,-240 306,-252 306,-252 306,-258 300,-264 294,-264"/>
<text text-anchor="start" x="269.5" y="-248.1" font-family="Helvetica,sans-Serif" font-weight="bold" font-size="13.00" fill="#1d1b16">V7</text>
<text text-anchor="start" x="266.5" y="-237.5" font-family="Helvetica,sans-Serif" font-size="10.00" fill="#1d1b16">6.9%</text>
</g>
<!-- V2&#45;&gt;V7 -->
<g id="edge17" class="edge">
<title>V2&#45;&gt;V7</title>
<path fill="none" stroke="#a89f90" stroke-width="1.1" d="M128.01,-308.41C131.37,-306.9 134.75,-305.4 138,-304 174.36,-288.31 216.51,-271.44 245.19,-260.16"/>
<polygon fill="#a89f90" stroke="#a89f90" stroke-width="1.1" points="246.19,-262.39 251.81,-257.56 244.4,-257.83 246.19,-262.39"/>
</g>
<!-- V9 -->
<g id="node18" class="node">
<title>V9</title>
<path fill="#f8d9d6" stroke="#e0625b" stroke-width="1.3" d="M249,-112C249,-112 219,-112 219,-112 213,-112 207,-106 207,-100 207,-100 207,-88 207,-88 207,-82 213,-76 219,-76 219,-76 249,-76 249,-76 255,-76 261,-82 261,-88 261,-88 261,-100 261,-100 261,-106 255,-112 249,-112"/>
<text text-anchor="start" x="224.5" y="-96.1" font-family="Helvetica,sans-Serif" font-weight="bold" font-size="13.00" fill="#1d1b16">V9</text>
<text text-anchor="start" x="221.5" y="-85.5" font-family="Helvetica,sans-Serif" font-size="10.00" fill="#1d1b16">9.2%</text>
</g>
<!-- V2&#45;&gt;V9 -->
<g id="edge20" class="edge">
<title>V2&#45;&gt;V9</title>
<path fill="none" stroke="#a89f90" stroke-width="1.1" d="M120.52,-303.89C131.88,-293.22 145.91,-278.75 156,-264 188.62,-216.32 213.72,-152.81 225.89,-118.84"/>
<polygon fill="#a89f90" stroke="#a89f90" stroke-width="1.1" points="228.27,-119.47 228.29,-112.05 223.65,-117.83 228.27,-119.47"/>
</g>
<!-- V3&#45;&gt;TRAP2 -->
<g id="edge8" class="edge">
<title>V3&#45;&gt;TRAP2</title>
<path fill="none" stroke="#a89f90" stroke-width="1.1" d="M105.17,-227.84C107.54,-218.12 110.53,-205.82 113.13,-195.15"/>
<polygon fill="#a89f90" stroke="#a89f90" stroke-width="1.1" points="115.57,-195.45 114.85,-188.07 110.81,-194.29 115.57,-195.45"/>
</g>
<!-- V4 -->
<g id="node3" class="node">
<title>V4</title>
<path fill="#e3e5e9" stroke="#9aa0a6" stroke-width="1.3" d="M498,-492C498,-492 468,-492 468,-492 462,-492 456,-486 456,-480 456,-480 456,-468 456,-468 456,-462 462,-456 468,-456 468,-456 498,-456 498,-456 504,-456 510,-462 510,-468 510,-468 510,-480 510,-480 510,-486 504,-492 498,-492"/>
<text text-anchor="start" x="473.5" y="-476.1" font-family="Helvetica,sans-Serif" font-weight="bold" font-size="13.00" fill="#1d1b16">V4</text>
<text text-anchor="start" x="470.5" y="-465.5" font-family="Helvetica,sans-Serif" font-size="10.00" fill="#1d1b16">1.1%</text>
</g>
<!-- V5 -->
<g id="node4" class="node">
<title>V5</title>
<path fill="#e6e0f8" stroke="#7c6bd6" stroke-width="1.3" d="M424,-416C424,-416 394,-416 394,-416 388,-416 382,-410 382,-404 382,-404 382,-392 382,-392 382,-386 388,-380 394,-380 394,-380 424,-380 424,-380 430,-380 436,-386 436,-392 436,-392 436,-404 436,-404 436,-410 430,-416 424,-416"/>
<text text-anchor="start" x="399.5" y="-400.1" font-family="Helvetica,sans-Serif" font-weight="bold" font-size="13.00" fill="#1d1b16">V5</text>
<text text-anchor="start" x="396.5" y="-389.5" font-family="Helvetica,sans-Serif" font-size="10.00" fill="#1d1b16">2.3%</text>
</g>
<!-- V4&#45;&gt;V5 -->
<g id="edge2" class="edge">
<title>V4&#45;&gt;V5</title>
<path fill="none" stroke="#a89f90" stroke-width="1.1" d="M465.84,-455.84C455.56,-445.56 442.39,-432.39 431.32,-421.32"/>
<polygon fill="#a89f90" stroke="#a89f90" stroke-width="1.1" points="432.75,-419.29 426.07,-416.07 429.29,-422.75 432.75,-419.29"/>
</g>
<!-- EP1 -->
<g id="node7" class="node">
<title>EP1</title>
<path fill="#e6e0f8" stroke="#7c6bd6" stroke-width="1.3" d="M498,-416C498,-416 468,-416 468,-416 462,-416 456,-410 456,-404 456,-404 456,-392 456,-392 456,-386 462,-380 468,-380 468,-380 498,-380 498,-380 504,-380 510,-386 510,-392 510,-392 510,-404 510,-404 510,-410 504,-416 498,-416"/>
<text text-anchor="start" x="469" y="-400.1" font-family="Helvetica,sans-Serif" font-weight="bold" font-size="13.00" fill="#1d1b16">EP1</text>
<text text-anchor="start" x="470.5" y="-389.5" font-family="Helvetica,sans-Serif" font-size="10.00" fill="#1d1b16">2.3%</text>
</g>
<!-- V4&#45;&gt;EP1 -->
<g id="edge4" class="edge">
<title>V4&#45;&gt;EP1</title>
<path fill="none" stroke="#a89f90" stroke-width="1.1" d="M483,-455.84C483,-446.12 483,-433.82 483,-423.15"/>
<polygon fill="#a89f90" stroke="#a89f90" stroke-width="1.1" points="485.45,-423.07 483,-416.07 480.55,-423.07 485.45,-423.07"/>
</g>
<!-- EP2 -->
<g id="node8" class="node">
<title>EP2</title>
<path fill="#e6e0f8" stroke="#7c6bd6" stroke-width="1.3" d="M572,-416C572,-416 542,-416 542,-416 536,-416 530,-410 530,-404 530,-404 530,-392 530,-392 530,-386 536,-380 542,-380 542,-380 572,-380 572,-380 578,-380 584,-386 584,-392 584,-392 584,-404 584,-404 584,-410 578,-416 572,-416"/>
<text text-anchor="start" x="543" y="-400.1" font-family="Helvetica,sans-Serif" font-weight="bold" font-size="13.00" fill="#1d1b16">EP2</text>
<text text-anchor="start" x="544.5" y="-389.5" font-family="Helvetica,sans-Serif" font-size="10.00" fill="#1d1b16">3.4%</text>
</g>
<!-- V4&#45;&gt;EP2 -->
<g id="edge5" class="edge">
<title>V4&#45;&gt;EP2</title>
<path fill="none" stroke="#a89f90" stroke-width="1.1" d="M500.16,-455.84C510.44,-445.56 523.61,-432.39 534.68,-421.32"/>
<polygon fill="#a89f90" stroke="#a89f90" stroke-width="1.1" points="536.71,-422.75 539.93,-416.07 533.25,-419.29 536.71,-422.75"/>
</g>
<!-- TRAP3 -->
<g id="node10" class="node">
<title>TRAP3</title>
<path fill="#d3f1e9" stroke="#1aa39a" stroke-width="1.3" d="M610,-340C610,-340 568,-340 568,-340 562,-340 556,-334 556,-328 556,-328 556,-316 556,-316 556,-310 562,-304 568,-304 568,-304 610,-304 610,-304 616,-304 622,-310 622,-316 622,-316 622,-328 622,-328 622,-334 616,-340 610,-340"/>
<text text-anchor="start" x="565" y="-324.1" font-family="Helvetica,sans-Serif" font-weight="bold" font-size="13.00" fill="#1d1b16">TRAP3</text>
<text text-anchor="start" x="576.5" y="-313.5" font-family="Helvetica,sans-Serif" font-size="10.00" fill="#1d1b16">4.6%</text>
</g>
<!-- V5&#45;&gt;TRAP3 -->
<g id="edge10" class="edge">
<title>V5&#45;&gt;TRAP3</title>
<path fill="none" stroke="#a89f90" stroke-width="1.1" d="M436.01,-384.4C439.36,-382.89 442.75,-381.39 446,-380 480.57,-365.18 520.34,-349.43 549.15,-338.25"/>
<polygon fill="#a89f90" stroke="#a89f90" stroke-width="1.1" points="550.22,-340.47 555.86,-335.65 548.45,-335.9 550.22,-340.47"/>
</g>
<!-- V6 -->
<g id="node15" class="node">
<title>V6</title>
<path fill="#e6e0f8" stroke="#7c6bd6" stroke-width="1.3" d="M424,-340C424,-340 394,-340 394,-340 388,-340 382,-334 382,-328 382,-328 382,-316 382,-316 382,-310 388,-304 394,-304 394,-304 424,-304 424,-304 430,-304 436,-310 436,-316 436,-316 436,-328 436,-328 436,-334 430,-340 424,-340"/>
<text text-anchor="start" x="399.5" y="-324.1" font-family="Helvetica,sans-Serif" font-weight="bold" font-size="13.00" fill="#1d1b16">V6</text>
<text text-anchor="start" x="396.5" y="-313.5" font-family="Helvetica,sans-Serif" font-size="10.00" fill="#1d1b16">4.6%</text>
</g>
<!-- V5&#45;&gt;V6 -->
<g id="edge14" class="edge">
<title>V5&#45;&gt;V6</title>
<path fill="none" stroke="#a89f90" stroke-width="1.1" d="M409,-379.84C409,-370.12 409,-357.82 409,-347.15"/>
<polygon fill="#a89f90" stroke="#a89f90" stroke-width="1.1" points="411.45,-347.07 409,-340.07 406.55,-347.07 411.45,-347.07"/>
</g>
<!-- DI2 -->
<g id="node6" class="node">
<title>DI2</title>
<path fill="#e3e5e9" stroke="#9aa0a6" stroke-width="1.3" d="M601,-492C601,-492 571,-492 571,-492 565,-492 559,-486 559,-480 559,-480 559,-468 559,-468 559,-462 565,-456 571,-456 571,-456 601,-456 601,-456 607,-456 613,-462 613,-468 613,-468 613,-480 613,-480 613,-486 607,-492 601,-492"/>
<text text-anchor="start" x="573.5" y="-476.1" font-family="Helvetica,sans-Serif" font-weight="bold" font-size="13.00" fill="#1d1b16">DI2</text>
<text text-anchor="start" x="573.5" y="-465.5" font-family="Helvetica,sans-Serif" font-size="10.00" fill="#1d1b16">1.1%</text>
</g>
<!-- DI2&#45;&gt;EP2 -->
<g id="edge6" class="edge">
<title>DI2&#45;&gt;EP2</title>
<path fill="none" stroke="#a89f90" stroke-width="1.1" d="M579.27,-455.84C575.43,-446.03 570.55,-433.58 566.34,-422.84"/>
<polygon fill="#a89f90" stroke="#a89f90" stroke-width="1.1" points="568.52,-421.69 563.69,-416.07 563.96,-423.48 568.52,-421.69"/>
</g>
<!-- DI2&#45;&gt;TRAP3 -->
<g id="edge9" class="edge">
<title>DI2&#45;&gt;TRAP3</title>
<path fill="none" stroke="#a89f90" stroke-width="1.1" d="M589.04,-455.85C590.89,-444.57 593.06,-429.46 594,-416 595.63,-392.65 593.82,-365.96 591.93,-347.18"/>
<polygon fill="#a89f90" stroke="#a89f90" stroke-width="1.1" points="594.36,-346.85 591.19,-340.15 589.49,-347.37 594.36,-346.85"/>
</g>
<!-- V1 -->
<g id="node11" class="node">
<title>V1</title>
<path fill="#e3e5e9" stroke="#9aa0a6" stroke-width="1.3" d="M313,-416C313,-416 283,-416 283,-416 277,-416 271,-410 271,-404 271,-404 271,-392 271,-392 271,-386 277,-380 283,-380 283,-380 313,-380 313,-380 319,-380 325,-386 325,-392 325,-392 325,-404 325,-404 325,-410 319,-416 313,-416"/>
<text text-anchor="start" x="288.5" y="-400.1" font-family="Helvetica,sans-Serif" font-weight="bold" font-size="13.00" fill="#1d1b16">V1</text>
<text text-anchor="start" x="285.5" y="-389.5" font-family="Helvetica,sans-Serif" font-size="10.00" fill="#1d1b16">1.1%</text>
</g>
<!-- V12 -->
<g id="node12" class="node">
<title>V12</title>
<path fill="#e6e0f8" stroke="#7c6bd6" stroke-width="1.3" d="M350,-340C350,-340 320,-340 320,-340 314,-340 308,-334 308,-328 308,-328 308,-316 308,-316 308,-310 314,-304 320,-304 320,-304 350,-304 350,-304 356,-304 362,-310 362,-316 362,-316 362,-328 362,-328 362,-334 356,-340 350,-340"/>
<text text-anchor="start" x="321" y="-324.1" font-family="Helvetica,sans-Serif" font-weight="bold" font-size="13.00" fill="#1d1b16">V12</text>
<text text-anchor="start" x="322.5" y="-313.5" font-family="Helvetica,sans-Serif" font-size="10.00" fill="#1d1b16">2.3%</text>
</g>
<!-- V1&#45;&gt;V12 -->
<g id="edge11" class="edge">
<title>V1&#45;&gt;V12</title>
<path fill="none" stroke="#a89f90" stroke-width="1.1" d="M306.58,-379.84C311.53,-369.94 317.83,-357.35 323.23,-346.53"/>
<polygon fill="#a89f90" stroke="#a89f90" stroke-width="1.1" points="325.53,-347.43 326.46,-340.07 321.14,-345.24 325.53,-347.43"/>
</g>
<!-- TRAP1 -->
<g id="node13" class="node">
<title>TRAP1</title>
<path fill="#d3f1e9" stroke="#1aa39a" stroke-width="1.3" d="M202,-340C202,-340 160,-340 160,-340 154,-340 148,-334 148,-328 148,-328 148,-316 148,-316 148,-310 154,-304 160,-304 160,-304 202,-304 202,-304 208,-304 214,-310 214,-316 214,-316 214,-328 214,-328 214,-334 208,-340 202,-340"/>
<text text-anchor="start" x="157" y="-324.1" font-family="Helvetica,sans-Serif" font-weight="bold" font-size="13.00" fill="#1d1b16">TRAP1</text>
<text text-anchor="start" x="168.5" y="-313.5" font-family="Helvetica,sans-Serif" font-size="10.00" fill="#1d1b16">2.3%</text>
</g>
<!-- V1&#45;&gt;TRAP1 -->
<g id="edge12" class="edge">
<title>V1&#45;&gt;TRAP1</title>
<path fill="none" stroke="#a89f90" stroke-width="1.1" d="M270.86,-379.84C253.88,-369.1 231.89,-355.19 213.92,-343.82"/>
<polygon fill="#a89f90" stroke="#a89f90" stroke-width="1.1" points="215.21,-341.74 207.99,-340.07 212.6,-345.88 215.21,-341.74"/>
</g>
<!-- RF1 -->
<g id="node14" class="node">
<title>RF1</title>
<path fill="#d9e7fc" stroke="#3d7bd6" stroke-width="1.3" d="M276,-340C276,-340 246,-340 246,-340 240,-340 234,-334 234,-328 234,-328 234,-316 234,-316 234,-310 240,-304 246,-304 246,-304 276,-304 276,-304 282,-304 288,-310 288,-316 288,-316 288,-328 288,-328 288,-334 282,-340 276,-340"/>
<text text-anchor="start" x="247" y="-324.1" font-family="Helvetica,sans-Serif" font-weight="bold" font-size="13.00" fill="#1d1b16">RF1</text>
<text text-anchor="start" x="248.5" y="-313.5" font-family="Helvetica,sans-Serif" font-size="10.00" fill="#1d1b16">2.3%</text>
</g>
<!-- V1&#45;&gt;RF1 -->
<g id="edge13" class="edge">
<title>V1&#45;&gt;RF1</title>
<path fill="none" stroke="#a89f90" stroke-width="1.1" d="M289.42,-379.84C284.47,-369.94 278.17,-357.35 272.77,-346.53"/>
<polygon fill="#a89f90" stroke="#a89f90" stroke-width="1.1" points="274.86,-345.24 269.54,-340.07 270.47,-347.43 274.86,-345.24"/>
</g>
<!-- V1&#45;&gt;V6 -->
<g id="edge15" class="edge">
<title>V1&#45;&gt;V6</title>
<path fill="none" stroke="#a89f90" stroke-width="1.1" d="M323.74,-379.84C339.72,-369.19 360.35,-355.43 377.32,-344.12"/>
<polygon fill="#a89f90" stroke="#a89f90" stroke-width="1.1" points="378.93,-345.99 383.39,-340.07 376.21,-341.91 378.93,-345.99"/>
</g>
<!-- FD3 -->
<g id="node23" class="node">
<title>FD3</title>
<path fill="#d9e7fc" stroke="#3d7bd6" stroke-width="1.3" d="M376,-264C376,-264 346,-264 346,-264 340,-264 334,-258 334,-252 334,-252 334,-240 334,-240 334,-234 340,-228 346,-228 346,-228 376,-228 376,-228 382,-228 388,-234 388,-240 388,-240 388,-252 388,-252 388,-258 382,-264 376,-264"/>
<text text-anchor="start" x="346.5" y="-248.1" font-family="Helvetica,sans-Serif" font-weight="bold" font-size="13.00" fill="#1d1b16">FD3</text>
<text text-anchor="start" x="348.5" y="-237.5" font-family="Helvetica,sans-Serif" font-size="10.00" fill="#1d1b16">4.6%</text>
</g>
<!-- V12&#45;&gt;FD3 -->
<g id="edge25" class="edge">
<title>V12&#45;&gt;FD3</title>
<path fill="none" stroke="#a89f90" stroke-width="1.1" d="M341.03,-303.84C344.48,-294.03 348.85,-281.58 352.62,-270.84"/>
<polygon fill="#a89f90" stroke="#a89f90" stroke-width="1.1" points="354.99,-271.49 355,-264.07 350.37,-269.86 354.99,-271.49"/>
</g>
<!-- V6&#45;&gt;V7 -->
<g id="edge16" class="edge">
<title>V6&#45;&gt;V7</title>
<path fill="none" stroke="#a89f90" stroke-width="1.1" d="M381.75,-305.49C361.55,-293.99 333.92,-278.26 312.4,-266.01"/>
<polygon fill="#a89f90" stroke="#a89f90" stroke-width="1.1" points="313.51,-263.83 306.22,-262.49 311.09,-268.08 313.51,-263.83"/>
</g>
<!-- V8 -->
<g id="node17" class="node">
<title>V8</title>
<path fill="#f8d9d6" stroke="#e0625b" stroke-width="1.3" d="M294,-188C294,-188 264,-188 264,-188 258,-188 252,-182 252,-176 252,-176 252,-164 252,-164 252,-158 258,-152 264,-152 264,-152 294,-152 294,-152 300,-152 306,-158 306,-164 306,-164 306,-176 306,-176 306,-182 300,-188 294,-188"/>
<text text-anchor="start" x="269.5" y="-172.1" font-family="Helvetica,sans-Serif" font-weight="bold" font-size="13.00" fill="#1d1b16">V8</text>
<text text-anchor="start" x="266.5" y="-161.5" font-family="Helvetica,sans-Serif" font-size="10.00" fill="#1d1b16">8.0%</text>
</g>
<!-- V7&#45;&gt;V8 -->
<g id="edge18" class="edge">
<title>V7&#45;&gt;V8</title>
<path fill="none" stroke="#a89f90" stroke-width="1.1" d="M279,-227.84C279,-218.12 279,-205.82 279,-195.15"/>
<polygon fill="#a89f90" stroke="#a89f90" stroke-width="1.1" points="281.45,-195.07 279,-188.07 276.55,-195.07 281.45,-195.07"/>
</g>
<!-- V8&#45;&gt;V9 -->
<g id="edge19" class="edge">
<title>V8&#45;&gt;V9</title>
<path fill="none" stroke="#a89f90" stroke-width="1.1" d="M268.56,-151.84C262.49,-141.84 254.74,-129.11 248.12,-118.23"/>
<polygon fill="#a89f90" stroke="#a89f90" stroke-width="1.1" points="250.11,-116.78 244.38,-112.07 245.92,-119.32 250.11,-116.78"/>
</g>
<!-- V10 -->
<g id="node19" class="node">
<title>V10</title>
<path fill="#f9e9c9" stroke="#d99a16" stroke-width="1.3" d="M323,-112C323,-112 293,-112 293,-112 287,-112 281,-106 281,-100 281,-100 281,-88 281,-88 281,-82 287,-76 293,-76 293,-76 323,-76 323,-76 329,-76 335,-82 335,-88 335,-88 335,-100 335,-100 335,-106 329,-112 323,-112"/>
<text text-anchor="start" x="294" y="-96.1" font-family="Helvetica,sans-Serif" font-weight="bold" font-size="13.00" fill="#1d1b16">V10</text>
<text text-anchor="start" x="295.5" y="-85.5" font-family="Helvetica,sans-Serif" font-size="10.00" fill="#1d1b16">9.2%</text>
</g>
<!-- V8&#45;&gt;V10 -->
<g id="edge21" class="edge">
<title>V8&#45;&gt;V10</title>
<path fill="none" stroke="#a89f90" stroke-width="1.1" d="M285.73,-151.84C289.57,-142.03 294.45,-129.58 298.66,-118.84"/>
<polygon fill="#a89f90" stroke="#a89f90" stroke-width="1.1" points="301.04,-119.48 301.31,-112.07 296.48,-117.69 301.04,-119.48"/>
</g>
<!-- FD4 -->
<g id="node24" class="node">
<title>FD4</title>
<path fill="#d9e7fc" stroke="#3d7bd6" stroke-width="1.3" d="M418,-36C418,-36 388,-36 388,-36 382,-36 376,-30 376,-24 376,-24 376,-12 376,-12 376,-6 382,0 388,0 388,0 418,0 418,0 424,0 430,-6 430,-12 430,-12 430,-24 430,-24 430,-30 424,-36 418,-36"/>
<text text-anchor="start" x="388.5" y="-20.1" font-family="Helvetica,sans-Serif" font-weight="bold" font-size="13.00" fill="#1d1b16">FD4</text>
<text text-anchor="start" x="387.5" y="-9.5" font-family="Helvetica,sans-Serif" font-size="10.00" fill="#1d1b16">11.9%</text>
</g>
<!-- V9&#45;&gt;FD4 -->
<g id="edge27" class="edge">
<title>V9&#45;&gt;FD4</title>
<path fill="none" stroke="#a89f90" stroke-width="1.1" d="M261.05,-80.49C264.39,-78.96 267.77,-77.44 271,-76 304.32,-61.16 342.6,-44.69 369.33,-33.28"/>
<polygon fill="#a89f90" stroke="#a89f90" stroke-width="1.1" points="370.39,-35.5 375.87,-30.5 368.47,-30.99 370.39,-35.5"/>
</g>
<!-- V11 -->
<g id="node20" class="node">
<title>V11</title>
<path fill="#f8d9d6" stroke="#e0625b" stroke-width="1.3" d="M323,-36C323,-36 293,-36 293,-36 287,-36 281,-30 281,-24 281,-24 281,-12 281,-12 281,-6 287,0 293,0 293,0 323,0 323,0 329,0 335,-6 335,-12 335,-12 335,-24 335,-24 335,-30 329,-36 323,-36"/>
<text text-anchor="start" x="294" y="-20.1" font-family="Helvetica,sans-Serif" font-weight="bold" font-size="13.00" fill="#1d1b16">V11</text>
<text text-anchor="start" x="292.5" y="-9.5" font-family="Helvetica,sans-Serif" font-size="10.00" fill="#1d1b16">10.3%</text>
</g>
<!-- V10&#45;&gt;V11 -->
<g id="edge22" class="edge">
<title>V10&#45;&gt;V11</title>
<path fill="none" stroke="#a89f90" stroke-width="1.1" d="M308,-75.84C308,-66.12 308,-53.82 308,-43.15"/>
<polygon fill="#a89f90" stroke="#a89f90" stroke-width="1.1" points="310.45,-43.07 308,-36.07 305.55,-43.07 310.45,-43.07"/>
</g>
<!-- FD1 -->
<g id="node21" class="node">
<title>FD1</title>
<path fill="#d9e7fc" stroke="#3d7bd6" stroke-width="1.3" d="M498,-340C498,-340 468,-340 468,-340 462,-340 456,-334 456,-328 456,-328 456,-316 456,-316 456,-310 462,-304 468,-304 468,-304 498,-304 498,-304 504,-304 510,-310 510,-316 510,-316 510,-328 510,-328 510,-334 504,-340 498,-340"/>
<text text-anchor="start" x="468.5" y="-324.1" font-family="Helvetica,sans-Serif" font-weight="bold" font-size="13.00" fill="#1d1b16">FD1</text>
<text text-anchor="start" x="470.5" y="-313.5" font-family="Helvetica,sans-Serif" font-size="10.00" fill="#1d1b16">1.1%</text>
</g>
<!-- FD2 -->
<g id="node22" class="node">
<title>FD2</title>
<path fill="#d9e7fc" stroke="#3d7bd6" stroke-width="1.3" d="M498,-264C498,-264 468,-264 468,-264 462,-264 456,-258 456,-252 456,-252 456,-240 456,-240 456,-234 462,-228 468,-228 468,-228 498,-228 498,-228 504,-228 510,-234 510,-240 510,-240 510,-252 510,-252 510,-258 504,-264 498,-264"/>
<text text-anchor="start" x="468.5" y="-248.1" font-family="Helvetica,sans-Serif" font-weight="bold" font-size="13.00" fill="#1d1b16">FD2</text>
<text text-anchor="start" x="470.5" y="-237.5" font-family="Helvetica,sans-Serif" font-size="10.00" fill="#1d1b16">2.3%</text>
</g>
<!-- FD1&#45;&gt;FD2 -->
<g id="edge23" class="edge">
<title>FD1&#45;&gt;FD2</title>
<path fill="none" stroke="#a89f90" stroke-width="1.1" d="M483,-303.84C483,-294.12 483,-281.82 483,-271.15"/>
<polygon fill="#a89f90" stroke="#a89f90" stroke-width="1.1" points="485.45,-271.07 483,-264.07 480.55,-271.07 485.45,-271.07"/>
</g>
<!-- FD1&#45;&gt;FD3 -->
<g id="edge24" class="edge">
<title>FD1&#45;&gt;FD3</title>
<path fill="none" stroke="#a89f90" stroke-width="1.1" d="M455.92,-304.58C437.68,-293.51 413.5,-278.85 394.11,-267.09"/>
<polygon fill="#a89f90" stroke="#a89f90" stroke-width="1.1" points="395.26,-264.91 388,-263.38 392.71,-269.1 395.26,-264.91"/>
</g>
<!-- FD1&#45;&gt;FD4 -->
<g id="edge26" class="edge">
<title>FD1&#45;&gt;FD4</title>
<path fill="none" stroke="#a89f90" stroke-width="1.1" d="M469.01,-303.54C461.07,-292.75 451.61,-278.27 446,-264 415.75,-187.1 406.7,-88.28 404.05,-43.27"/>
<polygon fill="#a89f90" stroke="#a89f90" stroke-width="1.1" points="406.5,-43.12 403.67,-36.27 401.61,-43.39 406.5,-43.12"/>
</g>
</g>
</svg>
