<?xml version="1.0" encoding="UTF-8" standalone="no"?>
<!DOCTYPE svg PUBLIC "-//W3C//DTD SVG 1.1//EN"
 "http://www.w3.org/Graphics/SVG/1.1/DTD/svg11.dtd">
<!-- Generated by graphviz version 2.43.0 (0)
 -->
<!-- Title: %3 Pages: 1 -->
<svg width="395pt" height="804pt"
 viewBox="0.00 0.00 395.00 804.00" xmlns="http://www.w3.org/2000/svg" xmlns:xlink="http://www.w3.org/1999/xlink">
<g id="graph0" class="graph" transform="scale(1 1) rotate(0) translate(4 800)">
<title>%3</title>
<!-- V1 -->
<g id="node1" class="node">
<title>V1</title>
<path fill="#e6e0f8" stroke="#7c6bd6" stroke-width="1.3" d="M116,-720C116,-720 86,-720 86,-720 80,-720 74,-714 74,-708 74,-708 74,-696 74,-696 74,-690 80,-684 86,-684 86,-684 116,-684 116,-684 122,-684 128,-690 128,-696 128,-696 128,-708 128,-708 128,-714 122,-720 116,-720"/>
<text text-anchor="start" x="92.5" y="-704.1" font-family="Helvetica,sans-Serif" font-weight="bold" font-size="13.00">V1</text>
<text text-anchor="start" x="89.5" y="-693.5" font-family="Helvetica,sans-Serif" font-size="10.00">1.7%</text>
</g>
<!-- V4 -->
<g id="node4" class="node">
<title>V4</title>
<path fill="#e6e0f8" stroke="#7c6bd6" stroke-width="1.3" d="M187,-568C187,-568 157,-568 157,-568 151,-568 145,-562 145,-556 145,-556 145,-544 145,-544 145,-538 151,-532 157,-532 157,-532 187,-532 187,-532 193,-532 199,-538 199,-544 199,-544 199,-556 199,-556 199,-562 193,-568 187,-568"/>
<text text-anchor="start" x="163.5" y="-552.1" font-family="Helvetica,sans-Serif" font-weight="bold" font-size="13.00">V4</text>
<text text-anchor="start" x="160.5" y="-541.5" font-family="Helvetica,sans-Serif" font-size="10.00">4.3%</text>
</g>
<!-- V1&#45;&gt;V4 -->
<g id="edge6" class="edge">
<title>V1&#45;&gt;V4</title>
<path fill="none" stroke="#a89f90" stroke-width="1.1" d="M104.81,-683.92C109.46,-664.78 118.3,-633.14 131,-608 137.07,-595.99 145.52,-583.75 153.18,-573.7"/>
<polygon fill="#a89f90" stroke="#a89f90" stroke-width="1.1" points="155.2,-575.08 157.57,-568.06 151.34,-572.08 155.2,-575.08"/>
</g>
<!-- TRAP1 -->
<g id="node10" class="node">
<title>TRAP1</title>
<path fill="#d3f1e9" stroke="#1aa39a" stroke-width="1.3" d="M191.5,-644C191.5,-644 152.5,-644 152.5,-644 146.5,-644 140.5,-638 140.5,-632 140.5,-632 140.5,-620 140.5,-620 140.5,-614 146.5,-608 152.5,-608 152.5,-608 191.5,-608 191.5,-608 197.5,-608 203.5,-614 203.5,-620 203.5,-620 203.5,-632 203.5,-632 203.5,-638 197.5,-644 191.5,-644"/>
<text text-anchor="start" x="149.5" y="-628.1" font-family="Helvetica,sans-Serif" font-weight="bold" font-size="13.00">TRAP1</text>
<text text-anchor="start" x="160.5" y="-617.5" font-family="Helvetica,sans-Serif" font-size="10.00">3.5%</text>
</g>
<!-- V1&#45;&gt;TRAP1 -->
<g id="edge4" class="edge">
<title>V1&#45;&gt;TRAP1</title>
<path fill="none" stroke="#a89f90" stroke-width="1.1" d="M117.47,-683.84C127.32,-673.56 139.96,-660.39 150.59,-649.32"/>
<polygon fill="#a89f90" stroke="#a89f90" stroke-width="1.1" points="152.54,-650.82 155.62,-644.07 149.01,-647.42 152.54,-650.82"/>
</g>
<!-- V2 -->
<g id="node2" class="node">
<title>V2</title>
<path fill="#e6e0f8" stroke="#7c6bd6" stroke-width="1.3" d="M264,-720C264,-720 234,-720 234,-720 228,-720 222,-714 222,-708 222,-708 222,-696 222,-696 222,-690 228,-684 234,-684 234,-684 264,-684 264,-684 270,-684 276,-690 276,-696 276,-696 276,-708 276,-708 276,-714 270,-720 264,-720"/>
<text text-anchor="start" x="240.5" y="-704.1" font-family="Helvetica,sans-Serif" font-weight="bold" font-size="13.00">V2</text>
<text text-anchor="start" x="237.5" y="-693.5" font-family="Helvetica,sans-Serif" font-size="10.00">1.7%</text>
</g>
<!-- V2&#45;&gt;TRAP1 -->
<g id="edge5" class="edge">
<title>V2&#45;&gt;TRAP1</title>
<path fill="none" stroke="#a89f90" stroke-width="1.1" d="M231.14,-683.84C220.35,-673.47 206.5,-660.15 194.91,-649.02"/>
<polygon fill="#a89f90" stroke="#a89f90" stroke-width="1.1" points="196.51,-647.15 189.76,-644.07 193.11,-650.69 196.51,-647.15"/>
</g>
<!-- V3 -->
<g id="node3" class="node">
<title>V3</title>
<path fill="#e6e0f8" stroke="#7c6bd6" stroke-width="1.3" d="M190,-720C190,-720 160,-720 160,-720 154,-720 148,-714 148,-708 148,-708 148,-696 148,-696 148,-690 154,-684 160,-684 160,-684 190,-684 190,-684 196,-684 202,-690 202,-696 202,-696 202,-708 202,-708 202,-714 196,-720 190,-720"/>
<text text-anchor="start" x="166.5" y="-704.1" font-family="Helvetica,sans-Serif" font-weight="bold" font-size="13.00">V3</text>
<text text-anchor="start" x="163.5" y="-693.5" font-family="Helvetica,sans-Serif" font-size="10.00">1.7%</text>
</g>
<!-- V7 -->
<g id="node7" class="node">
<title>V7</title>
<path fill="#e6e0f8" stroke="#7c6bd6" stroke-width="1.3" d="M192,-492C192,-492 162,-492 162,-492 156,-492 150,-486 150,-480 150,-480 150,-468 150,-468 150,-462 156,-456 162,-456 162,-456 192,-456 192,-456 198,-456 204,-462 204,-468 204,-468 204,-480 204,-480 204,-486 198,-492 192,-492"/>
<text text-anchor="start" x="168.5" y="-476.1" font-family="Helvetica,sans-Serif" font-weight="bold" font-size="13.00">V7</text>
<text text-anchor="start" x="165.5" y="-465.5" font-family="Helvetica,sans-Serif" font-size="10.00">7.0%</text>
</g>
<!-- V4&#45;&gt;V7 -->
<g id="edge10" class="edge">
<title>V4&#45;&gt;V7</title>
<path fill="none" stroke="#a89f90" stroke-width="1.1" d="M173.16,-531.84C173.82,-522.12 174.65,-509.82 175.37,-499.15"/>
<polygon fill="#a89f90" stroke="#a89f90" stroke-width="1.1" points="177.82,-499.22 175.85,-492.07 172.93,-498.89 177.82,-499.22"/>
</g>
<!-- V5 -->
<g id="node5" class="node">
<title>V5</title>
<path fill="#e6e0f8" stroke="#7c6bd6" stroke-width="1.3" d="M42,-720C42,-720 12,-720 12,-720 6,-720 0,-714 0,-708 0,-708 0,-696 0,-696 0,-690 6,-684 12,-684 12,-684 42,-684 42,-684 48,-684 54,-690 54,-696 54,-696 54,-708 54,-708 54,-714 48,-720 42,-720"/>
<text text-anchor="start" x="18.5" y="-704.1" font-family="Helvetica,sans-Serif" font-weight="bold" font-size="13.00">V5</text>
<text text-anchor="start" x="15.5" y="-693.5" font-family="Helvetica,sans-Serif" font-size="10.00">1.7%</text>
</g>
<!-- V6 -->
<g id="node6" class="node">
<title>V6</title>
<path fill="#e6e0f8" stroke="#7c6bd6" stroke-width="1.3" d="M54,-644C54,-644 24,-644 24,-644 18,-644 12,-638 12,-632 12,-632 12,-620 12,-620 12,-614 18,-608 24,-608 24,-608 54,-608 54,-608 60,-608 66,-614 66,-620 66,-620 66,-632 66,-632 66,-638 60,-644 54,-644"/>
<text text-anchor="start" x="30.5" y="-628.1" font-family="Helvetica,sans-Serif" font-weight="bold" font-size="13.00">V6</text>
<text text-anchor="start" x="27.5" y="-617.5" font-family="Helvetica,sans-Serif" font-size="10.00">2.6%</text>
</g>
<!-- V5&#45;&gt;V6 -->
<g id="edge9" class="edge">
<title>V5&#45;&gt;V6</title>
<path fill="none" stroke="#a89f90" stroke-width="1.1" d="M29.78,-683.84C31.36,-674.12 33.35,-661.82 35.08,-651.15"/>
<polygon fill="#a89f90" stroke="#a89f90" stroke-width="1.1" points="37.53,-651.37 36.23,-644.07 32.69,-650.59 37.53,-651.37"/>
</g>
<!-- V6&#45;&gt;V7 -->
<g id="edge11" class="edge">
<title>V6&#45;&gt;V7</title>
<path fill="none" stroke="#a89f90" stroke-width="1.1" d="M54.83,-607.79C79.89,-580.55 128.69,-527.51 156.43,-497.36"/>
<polygon fill="#a89f90" stroke="#a89f90" stroke-width="1.1" points="158.42,-498.82 161.35,-492.01 154.81,-495.5 158.42,-498.82"/>
</g>
<!-- REV -->
<g id="node11" class="node">
<title>REV</title>
<path fill="#e6e0f8" stroke="#7c6bd6" stroke-width="1.3" d="M54,-568C54,-568 24,-568 24,-568 18,-568 12,-562 12,-556 12,-556 12,-544 12,-544 12,-538 18,-532 24,-532 24,-532 54,-532 54,-532 60,-532 66,-538 66,-544 66,-544 66,-556 66,-556 66,-562 60,-568 54,-568"/>
<text text-anchor="start" x="25" y="-552.1" font-family="Helvetica,sans-Serif" font-weight="bold" font-size="13.00">REV</text>
<text text-anchor="start" x="27.5" y="-541.5" font-family="Helvetica,sans-Serif" font-size="10.00">3.5%</text>
</g>
<!-- V6&#45;&gt;REV -->
<g id="edge13" class="edge">
<title>V6&#45;&gt;REV</title>
<path fill="none" stroke="#a89f90" stroke-width="1.1" d="M39,-607.84C39,-598.12 39,-585.82 39,-575.15"/>
<polygon fill="#a89f90" stroke="#a89f90" stroke-width="1.1" points="41.45,-575.07 39,-568.07 36.55,-575.07 41.45,-575.07"/>
</g>
<!-- V9 -->
<g id="node8" class="node">
<title>V9</title>
<path fill="#e3e5e9" stroke="#9aa0a6" stroke-width="1.3" d="M293,-340C293,-340 263,-340 263,-340 257,-340 251,-334 251,-328 251,-328 251,-316 251,-316 251,-310 257,-304 263,-304 263,-304 293,-304 293,-304 299,-304 305,-310 305,-316 305,-316 305,-328 305,-328 305,-334 299,-340 293,-340"/>
<text text-anchor="start" x="269.5" y="-324.1" font-family="Helvetica,sans-Serif" font-weight="bold" font-size="13.00">V9</text>
<text text-anchor="start" x="266.5" y="-313.5" font-family="Helvetica,sans-Serif" font-size="10.00">1.7%</text>
</g>
<!-- IRR -->
<g id="node20" class="node">
<title>IRR</title>
<path fill="#f8d9d6" stroke="#e0625b" stroke-width="1.3" d="M237,-112C237,-112 207,-112 207,-112 201,-112 195,-106 195,-100 195,-100 195,-88 195,-88 195,-82 201,-76 207,-76 207,-76 237,-76 237,-76 243,-76 249,-82 249,-88 249,-88 249,-100 249,-100 249,-106 243,-112 237,-112"/>
<text text-anchor="start" x="210" y="-96.1" font-family="Helvetica,sans-Serif" font-weight="bold" font-size="13.00">IRR</text>
<text text-anchor="start" x="208" y="-85.5" font-family="Helvetica,sans-Serif" font-size="10.00">12.2%</text>
</g>
<!-- V9&#45;&gt;IRR -->
<g id="edge27" class="edge">
<title>V9&#45;&gt;IRR</title>
<path fill="none" stroke="#a89f90" stroke-width="1.1" d="M273.7,-303.64C263.78,-263.61 239.29,-164.76 227.94,-118.98"/>
<polygon fill="#a89f90" stroke="#a89f90" stroke-width="1.1" points="230.3,-118.31 226.24,-112.11 225.54,-119.49 230.3,-118.31"/>
</g>
<!-- DI1 -->
<g id="node9" class="node">
<title>DI1</title>
<path fill="#e3e5e9" stroke="#9aa0a6" stroke-width="1.3" d="M227,-796C227,-796 197,-796 197,-796 191,-796 185,-790 185,-784 185,-784 185,-772 185,-772 185,-766 191,-760 197,-760 197,-760 227,-760 227,-760 233,-760 239,-766 239,-772 239,-772 239,-784 239,-784 239,-790 233,-796 227,-796"/>
<text text-anchor="start" x="201" y="-780.1" font-family="Helvetica,sans-Serif" font-weight="bold" font-size="13.00">DI1</text>
<text text-anchor="start" x="200.5" y="-769.5" font-family="Helvetica,sans-Serif" font-size="10.00">0.9%</text>
</g>
<!-- DI1&#45;&gt;V1 -->
<g id="edge1" class="edge">
<title>DI1&#45;&gt;V1</title>
<path fill="none" stroke="#a89f90" stroke-width="1.1" d="M186.26,-759.84C170.28,-749.19 149.65,-735.43 132.68,-724.12"/>
<polygon fill="#a89f90" stroke="#a89f90" stroke-width="1.1" points="133.79,-721.91 126.61,-720.07 131.07,-725.99 133.79,-721.91"/>
</g>
<!-- DI1&#45;&gt;V2 -->
<g id="edge2" class="edge">
<title>DI1&#45;&gt;V2</title>
<path fill="none" stroke="#a89f90" stroke-width="1.1" d="M220.58,-759.84C225.53,-749.94 231.83,-737.35 237.23,-726.53"/>
<polygon fill="#a89f90" stroke="#a89f90" stroke-width="1.1" points="239.53,-727.43 240.46,-720.07 235.14,-725.24 239.53,-727.43"/>
</g>
<!-- DI1&#45;&gt;V3 -->
<g id="edge3" class="edge">
<title>DI1&#45;&gt;V3</title>
<path fill="none" stroke="#a89f90" stroke-width="1.1" d="M203.42,-759.84C198.47,-749.94 192.17,-737.35 186.77,-726.53"/>
<polygon fill="#a89f90" stroke="#a89f90" stroke-width="1.1" points="188.86,-725.24 183.54,-720.07 184.47,-727.43 188.86,-725.24"/>
</g>
<!-- DI1&#45;&gt;V5 -->
<g id="edge8" class="edge">
<title>DI1&#45;&gt;V5</title>
<path fill="none" stroke="#a89f90" stroke-width="1.1" d="M184.79,-767.11C154.94,-756.12 105.73,-737.6 64,-720 63.02,-719.59 62.03,-719.17 61.04,-718.74"/>
<polygon fill="#a89f90" stroke="#a89f90" stroke-width="1.1" points="61.79,-716.39 54.39,-715.82 59.82,-720.88 61.79,-716.39"/>
</g>
<!-- DI1&#45;&gt;V9 -->
<g id="edge12" class="edge">
<title>DI1&#45;&gt;V9</title>
<path fill="none" stroke="#a89f90" stroke-width="1.1" d="M239.16,-762.53C255.17,-752.63 274.48,-738.04 286,-720 308.8,-684.29 307,-669.37 307,-627 307,-627 307,-627 307,-473 307,-428.01 294.27,-376.78 285.68,-347.34"/>
<polygon fill="#a89f90" stroke="#a89f90" stroke-width="1.1" points="287.94,-346.35 283.59,-340.34 283.24,-347.75 287.94,-346.35"/>
</g>
<!-- CAPEX_T0 -->
<g id="node18" class="node">
<title>CAPEX_T0</title>
<path fill="#e6e0f8" stroke="#7c6bd6" stroke-width="1.3" d="M374,-264C374,-264 310,-264 310,-264 304,-264 298,-258 298,-252 298,-252 298,-240 298,-240 298,-234 304,-228 310,-228 310,-228 374,-228 374,-228 380,-228 386,-234 386,-240 386,-240 386,-252 386,-252 386,-258 380,-264 374,-264"/>
<text text-anchor="start" x="307" y="-248.1" font-family="Helvetica,sans-Serif" font-weight="bold" font-size="13.00">CAPEX_T0</text>
<text text-anchor="start" x="330.5" y="-237.5" font-family="Helvetica,sans-Serif" font-size="10.00">1.7%</text>
</g>
<!-- DI1&#45;&gt;CAPEX_T0 -->
<g id="edge22" class="edge">
<title>DI1&#45;&gt;CAPEX_T0</title>
<path fill="none" stroke="#a89f90" stroke-width="1.1" d="M239.1,-763.72C264.37,-750.9 299.68,-731.76 310,-720 339.57,-686.32 349,-671.82 349,-627 349,-627 349,-627 349,-397 349,-352.54 345.89,-300.74 343.82,-271.12"/>
<polygon fill="#a89f90" stroke="#a89f90" stroke-width="1.1" points="346.26,-270.89 343.32,-264.08 341.37,-271.24 346.26,-270.89"/>
</g>
<!-- TRAP1&#45;&gt;V4 -->
<g id="edge7" class="edge">
<title>TRAP1&#45;&gt;V4</title>
<path fill="none" stroke="#a89f90" stroke-width="1.1" d="M172,-607.84C172,-598.12 172,-585.82 172,-575.15"/>
<polygon fill="#a89f90" stroke="#a89f90" stroke-width="1.1" points="174.45,-575.07 172,-568.07 169.55,-575.07 174.45,-575.07"/>
</g>
<!-- EBITDA -->
<g id="node12" class="node">
<title>EBITDA</title>
<path fill="#e6e0f8" stroke="#7c6bd6" stroke-width="1.3" d="M118,-492C118,-492 74,-492 74,-492 68,-492 62,-486 62,-480 62,-480 62,-468 62,-468 62,-462 68,-456 74,-456 74,-456 118,-456 118,-456 124,-456 130,-462 130,-468 130,-468 130,-480 130,-480 130,-486 124,-492 118,-492"/>
<text text-anchor="start" x="71" y="-476.1" font-family="Helvetica,sans-Serif" font-weight="bold" font-size="13.00">EBITDA</text>
<text text-anchor="start" x="84.5" y="-465.5" font-family="Helvetica,sans-Serif" font-size="10.00">4.3%</text>
</g>
<!-- REV&#45;&gt;EBITDA -->
<g id="edge14" class="edge">
<title>REV&#45;&gt;EBITDA</title>
<path fill="none" stroke="#a89f90" stroke-width="1.1" d="M52.22,-531.84C60.06,-521.66 70.09,-508.63 78.58,-497.62"/>
<polygon fill="#a89f90" stroke="#a89f90" stroke-width="1.1" points="80.52,-499.11 82.85,-492.07 76.64,-496.12 80.52,-499.11"/>
</g>
<!-- WC -->
<g id="node16" class="node">
<title>WC</title>
<path fill="#e6e0f8" stroke="#7c6bd6" stroke-width="1.3" d="M46,-416C46,-416 16,-416 16,-416 10,-416 4,-410 4,-404 4,-404 4,-392 4,-392 4,-386 10,-380 16,-380 16,-380 46,-380 46,-380 52,-380 58,-386 58,-392 58,-392 58,-404 58,-404 58,-410 52,-416 46,-416"/>
<text text-anchor="start" x="20" y="-400.1" font-family="Helvetica,sans-Serif" font-weight="bold" font-size="13.00">WC</text>
<text text-anchor="start" x="19.5" y="-389.5" font-family="Helvetica,sans-Serif" font-size="10.00">4.3%</text>
</g>
<!-- REV&#45;&gt;WC -->
<g id="edge19" class="edge">
<title>REV&#45;&gt;WC</title>
<path fill="none" stroke="#a89f90" stroke-width="1.1" d="M38.08,-531.79C36.66,-505.12 33.92,-453.7 32.29,-423.26"/>
<polygon fill="#a89f90" stroke="#a89f90" stroke-width="1.1" points="34.73,-422.87 31.91,-416.01 29.83,-423.13 34.73,-422.87"/>
</g>
<!-- EBIT -->
<g id="node13" class="node">
<title>EBIT</title>
<path fill="#e6e0f8" stroke="#7c6bd6" stroke-width="1.3" d="M120,-416C120,-416 90,-416 90,-416 84,-416 78,-410 78,-404 78,-404 78,-392 78,-392 78,-386 84,-380 90,-380 90,-380 120,-380 120,-380 126,-380 132,-386 132,-392 132,-392 132,-404 132,-404 132,-410 126,-416 120,-416"/>
<text text-anchor="start" x="89.5" y="-400.1" font-family="Helvetica,sans-Serif" font-weight="bold" font-size="13.00">EBIT</text>
<text text-anchor="start" x="93.5" y="-389.5" font-family="Helvetica,sans-Serif" font-size="10.00">5.2%</text>
</g>
<!-- EBITDA&#45;&gt;EBIT -->
<g id="edge15" class="edge">
<title>EBITDA&#45;&gt;EBIT</title>
<path fill="none" stroke="#a89f90" stroke-width="1.1" d="M98.09,-455.84C99.27,-446.12 100.77,-433.82 102.06,-423.15"/>
<polygon fill="#a89f90" stroke="#a89f90" stroke-width="1.1" points="104.51,-423.31 102.92,-416.07 99.65,-422.72 104.51,-423.31"/>
</g>
<!-- TV -->
<g id="node19" class="node">
<title>TV</title>
<path fill="#e6e0f8" stroke="#7c6bd6" stroke-width="1.3" d="M208,-188C208,-188 178,-188 178,-188 172,-188 166,-182 166,-176 166,-176 166,-164 166,-164 166,-158 172,-152 178,-152 178,-152 208,-152 208,-152 214,-152 220,-158 220,-164 220,-164 220,-176 220,-176 220,-182 214,-188 208,-188"/>
<text text-anchor="start" x="184" y="-172.1" font-family="Helvetica,sans-Serif" font-weight="bold" font-size="13.00">TV</text>
<text text-anchor="start" x="181.5" y="-161.5" font-family="Helvetica,sans-Serif" font-size="10.00">5.2%</text>
</g>
<!-- EBITDA&#45;&gt;TV -->
<g id="edge23" class="edge">
<title>EBITDA&#45;&gt;TV</title>
<path fill="none" stroke="#a89f90" stroke-width="1.1" d="M112.47,-455.58C122.03,-444.81 133.76,-430.33 142,-416 183.74,-343.39 191.54,-241.21 192.84,-195.17"/>
<polygon fill="#a89f90" stroke="#a89f90" stroke-width="1.1" points="195.3,-195.07 193,-188.01 190.4,-194.96 195.3,-195.07"/>
</g>
<!-- TAX -->
<g id="node14" class="node">
<title>TAX</title>
<path fill="#e6e0f8" stroke="#7c6bd6" stroke-width="1.3" d="M149,-340C149,-340 119,-340 119,-340 113,-340 107,-334 107,-328 107,-328 107,-316 107,-316 107,-310 113,-304 119,-304 119,-304 149,-304 149,-304 155,-304 161,-310 161,-316 161,-316 161,-328 161,-328 161,-334 155,-340 149,-340"/>
<text text-anchor="start" x="121" y="-324.1" font-family="Helvetica,sans-Serif" font-weight="bold" font-size="13.00">TAX</text>
<text text-anchor="start" x="122.5" y="-313.5" font-family="Helvetica,sans-Serif" font-size="10.00">6.1%</text>
</g>
<!-- EBIT&#45;&gt;TAX -->
<g id="edge16" class="edge">
<title>EBIT&#45;&gt;TAX</title>
<path fill="none" stroke="#a89f90" stroke-width="1.1" d="M111.73,-379.84C115.57,-370.03 120.45,-357.58 124.66,-346.84"/>
<polygon fill="#a89f90" stroke="#a89f90" stroke-width="1.1" points="127.04,-347.48 127.31,-340.07 122.48,-345.69 127.04,-347.48"/>
</g>
<!-- NOPAT -->
<g id="node15" class="node">
<title>NOPAT</title>
<path fill="#e6e0f8" stroke="#7c6bd6" stroke-width="1.3" d="M127,-264C127,-264 89,-264 89,-264 83,-264 77,-258 77,-252 77,-252 77,-240 77,-240 77,-234 83,-228 89,-228 89,-228 127,-228 127,-228 133,-228 139,-234 139,-240 139,-240 139,-252 139,-252 139,-258 133,-264 127,-264"/>
<text text-anchor="start" x="86" y="-248.1" font-family="Helvetica,sans-Serif" font-weight="bold" font-size="13.00">NOPAT</text>
<text text-anchor="start" x="96.5" y="-237.5" font-family="Helvetica,sans-Serif" font-size="10.00">7.0%</text>
</g>
<!-- EBIT&#45;&gt;NOPAT -->
<g id="edge17" class="edge">
<title>EBIT&#45;&gt;NOPAT</title>
<path fill="none" stroke="#a89f90" stroke-width="1.1" d="M101.66,-379.85C98.47,-361.18 94.47,-330.46 97,-304 98.04,-293.1 100.18,-281.19 102.3,-271.08"/>
<polygon fill="#a89f90" stroke="#a89f90" stroke-width="1.1" points="104.73,-271.45 103.82,-264.09 99.94,-270.41 104.73,-271.45"/>
</g>
<!-- TAX&#45;&gt;NOPAT -->
<g id="edge18" class="edge">
<title>TAX&#45;&gt;NOPAT</title>
<path fill="none" stroke="#a89f90" stroke-width="1.1" d="M127.97,-303.84C124.52,-294.03 120.15,-281.58 116.38,-270.84"/>
<polygon fill="#a89f90" stroke="#a89f90" stroke-width="1.1" points="118.63,-269.86 114,-264.07 114.01,-271.49 118.63,-269.86"/>
</g>
<!-- FCF -->
<g id="node17" class="node">
<title>FCF</title>
<path fill="#f8d9d6" stroke="#e0625b" stroke-width="1.3" d="M123,-188C123,-188 93,-188 93,-188 87,-188 81,-182 81,-176 81,-176 81,-164 81,-164 81,-158 87,-152 93,-152 93,-152 123,-152 123,-152 129,-152 135,-158 135,-164 135,-164 135,-176 135,-176 135,-182 129,-188 123,-188"/>
<text text-anchor="start" x="94.5" y="-172.1" font-family="Helvetica,sans-Serif" font-weight="bold" font-size="13.00">FCF</text>
<text text-anchor="start" x="96.5" y="-161.5" font-family="Helvetica,sans-Serif" font-size="10.00">8.7%</text>
</g>
<!-- NOPAT&#45;&gt;FCF -->
<g id="edge20" class="edge">
<title>NOPAT&#45;&gt;FCF</title>
<path fill="none" stroke="#a89f90" stroke-width="1.1" d="M108,-227.84C108,-218.12 108,-205.82 108,-195.15"/>
<polygon fill="#a89f90" stroke="#a89f90" stroke-width="1.1" points="110.45,-195.07 108,-188.07 105.55,-195.07 110.45,-195.07"/>
</g>
<!-- WC&#45;&gt;FCF -->
<g id="edge21" class="edge">
<title>WC&#45;&gt;FCF</title>
<path fill="none" stroke="#a89f90" stroke-width="1.1" d="M32.3,-379.98C35.18,-348.68 43.81,-280.39 67,-228 72.36,-215.89 80.56,-203.79 88.22,-193.87"/>
<polygon fill="#a89f90" stroke="#a89f90" stroke-width="1.1" points="90.21,-195.31 92.64,-188.3 86.37,-192.26 90.21,-195.31"/>
</g>
<!-- FCF&#45;&gt;IRR -->
<g id="edge24" class="edge">
<title>FCF&#45;&gt;IRR</title>
<path fill="none" stroke="#a89f90" stroke-width="1.1" d="M134.44,-151.84C150.84,-141.19 172.04,-127.43 189.47,-116.12"/>
<polygon fill="#a89f90" stroke="#a89f90" stroke-width="1.1" points="191.17,-117.94 195.7,-112.07 188.5,-113.83 191.17,-117.94"/>
</g>
<!-- CAPEX_T0&#45;&gt;IRR -->
<g id="edge25" class="edge">
<title>CAPEX_T0&#45;&gt;IRR</title>
<path fill="none" stroke="#a89f90" stroke-width="1.1" d="M332.01,-227.8C320.5,-208.56 300.53,-176.82 280,-152 269.79,-139.66 257.24,-127.06 246.43,-116.86"/>
<polygon fill="#a89f90" stroke="#a89f90" stroke-width="1.1" points="248.07,-115.04 241.28,-112.06 244.73,-118.62 248.07,-115.04"/>
</g>
<!-- TV&#45;&gt;IRR -->
<g id="edge26" class="edge">
<title>TV&#45;&gt;IRR</title>
<path fill="none" stroke="#a89f90" stroke-width="1.1" d="M199.73,-151.84C203.57,-142.03 208.45,-129.58 212.66,-118.84"/>
<polygon fill="#a89f90" stroke="#a89f90" stroke-width="1.1" points="215.04,-119.48 215.31,-112.07 210.48,-117.69 215.04,-119.48"/>
</g>
<!-- V11 -->
<g id="node21" class="node">
<title>V11</title>
<path fill="#f9e9c9" stroke="#d99a16" stroke-width="1.3" d="M237,-36C237,-36 207,-36 207,-36 201,-36 195,-30 195,-24 195,-24 195,-12 195,-12 195,-6 201,0 207,0 207,0 237,0 237,0 243,0 249,-6 249,-12 249,-12 249,-24 249,-24 249,-30 243,-36 237,-36"/>
<text text-anchor="start" x="209.5" y="-20.1" font-family="Helvetica,sans-Serif" font-weight="bold" font-size="13.00">V11</text>
<text text-anchor="start" x="208" y="-9.5" font-family="Helvetica,sans-Serif" font-size="10.00">13.0%</text>
</g>
<!-- IRR&#45;&gt;V11 -->
<g id="edge28" class="edge">
<title>IRR&#45;&gt;V11</title>
<path fill="none" stroke="#a89f90" stroke-width="1.1" d="M222,-75.84C222,-66.12 222,-53.82 222,-43.15"/>
<polygon fill="#a89f90" stroke="#a89f90" stroke-width="1.1" points="224.45,-43.07 222,-36.07 219.55,-43.07 224.45,-43.07"/>
</g>
<!-- FD1 -->
<g id="node22" class="node">
<title>FD1</title>
<path fill="#d9e7fc" stroke="#3d7bd6" stroke-width="1.3" d="M301,-796C301,-796 271,-796 271,-796 265,-796 259,-790 259,-784 259,-784 259,-772 259,-772 259,-766 265,-760 271,-760 271,-760 301,-760 301,-760 307,-760 313,-766 313,-772 313,-772 313,-784 313,-784 313,-790 307,-796 301,-796"/>
<text text-anchor="start" x="273" y="-780.1" font-family="Helvetica,sans-Serif" font-weight="bold" font-size="13.00">FD1</text>
<text text-anchor="start" x="274.5" y="-769.5" font-family="Helvetica,sans-Serif" font-size="10.00">0.9%</text>
</g>
<!-- RF1 -->
<g id="node23" class="node">
<title>RF1</title>
<path fill="#d9e7fc" stroke="#3d7bd6" stroke-width="1.3" d="M375,-796C375,-796 345,-796 345,-796 339,-796 333,-790 333,-784 333,-784 333,-772 333,-772 333,-766 339,-760 345,-760 345,-760 375,-760 375,-760 381,-760 387,-766 387,-772 387,-772 387,-784 387,-784 387,-790 381,-796 375,-796"/>
<text text-anchor="start" x="347" y="-780.1" font-family="Helvetica,sans-Serif" font-weight="bold" font-size="13.00">RF1</text>
<text text-anchor="start" x="348.5" y="-769.5" font-family="Helvetica,sans-Serif" font-size="10.00">0.9%</text>
</g>
</g>
</svg>
