<?xml version="1.0" encoding="UTF-8" standalone="no"?>
<!DOCTYPE svg PUBLIC "-//W3C//DTD SVG 1.1//EN"
 "http://www.w3.org/Graphics/SVG/1.1/DTD/svg11.dtd">
<!-- Generated by graphviz version 2.43.0 (0)
 -->
<!-- Title: %3 Pages: 1 -->
<svg width="552pt" height="652pt"
 viewBox="0.00 0.00 552.00 652.00" xmlns="http://www.w3.org/2000/svg" xmlns:xlink="http://www.w3.org/1999/xlink">
<g id="graph0" class="graph" transform="scale(1 1) rotate(0) translate(4 648)">
<title>%3</title>
<!-- V2 -->
<g id="node1" class="node">
<title>V2</title>
<path fill="#e3e5e9" stroke="#9aa0a6" stroke-width="1.3" d="M48,-644C48,-644 18,-644 18,-644 12,-644 6,-638 6,-632 6,-632 6,-620 6,-620 6,-614 12,-608 18,-608 18,-608 48,-608 48,-608 54,-608 60,-614 60,-620 60,-620 60,-632 60,-632 60,-638 54,-644 48,-644"/>
<text text-anchor="start" x="23.5" y="-628.1" font-family="Helvetica,sans-Serif" font-weight="bold" font-size="13.00" fill="#1d1b16">V2</text>
<text text-anchor="start" x="20.5" y="-617.5" font-family="Helvetica,sans-Serif" font-size="10.00" fill="#1d1b16">0.7%</text>
</g>
<!-- TRAP1 -->
<g id="node2" class="node">
<title>TRAP1</title>
<path fill="#d3f1e9" stroke="#1aa39a" stroke-width="1.3" d="M54,-568C54,-568 12,-568 12,-568 6,-568 0,-562 0,-556 0,-556 0,-544 0,-544 0,-538 6,-532 12,-532 12,-532 54,-532 54,-532 60,-532 66,-538 66,-544 66,-544 66,-556 66,-556 66,-562 60,-568 54,-568"/>
<text text-anchor="start" x="9" y="-552.1" font-family="Helvetica,sans-Serif" font-weight="bold" font-size="13.00" fill="#1d1b16">TRAP1</text>
<text text-anchor="start" x="20.5" y="-541.5" font-family="Helvetica,sans-Serif" font-size="10.00" fill="#1d1b16">1.3%</text>
</g>
<!-- V2&#45;&gt;TRAP1 -->
<g id="edge1" class="edge">
<title>V2&#45;&gt;TRAP1</title>
<path fill="none" stroke="#a89f90" stroke-width="1.1" d="M33,-607.84C33,-598.12 33,-585.82 33,-575.15"/>
<polygon fill="#a89f90" stroke="#a89f90" stroke-width="1.1" points="35.45,-575.07 33,-568.07 30.55,-575.07 35.45,-575.07"/>
</g>
<!-- V3 -->
<g id="node3" class="node">
<title>V3</title>
<path fill="#e3e5e9" stroke="#9aa0a6" stroke-width="1.3" d="M123,-644C123,-644 93,-644 93,-644 87,-644 81,-638 81,-632 81,-632 81,-620 81,-620 81,-614 87,-608 93,-608 93,-608 123,-608 123,-608 129,-608 135,-614 135,-620 135,-620 135,-632 135,-632 135,-638 129,-644 123,-644"/>
<text text-anchor="start" x="98.5" y="-628.1" font-family="Helvetica,sans-Serif" font-weight="bold" font-size="13.00" fill="#1d1b16">V3</text>
<text text-anchor="start" x="95.5" y="-617.5" font-family="Helvetica,sans-Serif" font-size="10.00" fill="#1d1b16">0.7%</text>
</g>
<!-- V8 -->
<g id="node10" class="node">
<title>V8</title>
<path fill="#e6e0f8" stroke="#7c6bd6" stroke-width="1.3" d="M162,-568C162,-568 132,-568 132,-568 126,-568 120,-562 120,-556 120,-556 120,-544 120,-544 120,-538 126,-532 132,-532 132,-532 162,-532 162,-532 168,-532 174,-538 174,-544 174,-544 174,-556 174,-556 174,-562 168,-568 162,-568"/>
<text text-anchor="start" x="137.5" y="-552.1" font-family="Helvetica,sans-Serif" font-weight="bold" font-size="13.00" fill="#1d1b16">V8</text>
<text text-anchor="start" x="134.5" y="-541.5" font-family="Helvetica,sans-Serif" font-size="10.00" fill="#1d1b16">3.4%</text>
</g>
<!-- V3&#45;&gt;V8 -->
<g id="edge4" class="edge">
<title>V3&#45;&gt;V8</title>
<path fill="none" stroke="#a89f90" stroke-width="1.1" d="M117.05,-607.84C122.26,-597.94 128.9,-585.35 134.6,-574.53"/>
<polygon fill="#a89f90" stroke="#a89f90" stroke-width="1.1" points="136.91,-575.4 138,-568.07 132.57,-573.12 136.91,-575.4"/>
</g>
<!-- V4 -->
<g id="node4" class="node">
<title>V4</title>
<path fill="#e3e5e9" stroke="#9aa0a6" stroke-width="1.3" d="M236,-568C236,-568 206,-568 206,-568 200,-568 194,-562 194,-556 194,-556 194,-544 194,-544 194,-538 200,-532 206,-532 206,-532 236,-532 236,-532 242,-532 248,-538 248,-544 248,-544 248,-556 248,-556 248,-562 242,-568 236,-568"/>
<text text-anchor="start" x="211.5" y="-552.1" font-family="Helvetica,sans-Serif" font-weight="bold" font-size="13.00" fill="#1d1b16">V4</text>
<text text-anchor="start" x="208.5" y="-541.5" font-family="Helvetica,sans-Serif" font-size="10.00" fill="#1d1b16">0.7%</text>
</g>
<!-- V9 -->
<g id="node12" class="node">
<title>V9</title>
<path fill="#e6e0f8" stroke="#7c6bd6" stroke-width="1.3" d="M236,-492C236,-492 206,-492 206,-492 200,-492 194,-486 194,-480 194,-480 194,-468 194,-468 194,-462 200,-456 206,-456 206,-456 236,-456 236,-456 242,-456 248,-462 248,-468 248,-468 248,-480 248,-480 248,-486 242,-492 236,-492"/>
<text text-anchor="start" x="211.5" y="-476.1" font-family="Helvetica,sans-Serif" font-weight="bold" font-size="13.00" fill="#1d1b16">V9</text>
<text text-anchor="start" x="208.5" y="-465.5" font-family="Helvetica,sans-Serif" font-size="10.00" fill="#1d1b16">4.7%</text>
</g>
<!-- V4&#45;&gt;V9 -->
<g id="edge10" class="edge">
<title>V4&#45;&gt;V9</title>
<path fill="none" stroke="#a89f90" stroke-width="1.1" d="M221,-531.84C221,-522.12 221,-509.82 221,-499.15"/>
<polygon fill="#a89f90" stroke="#a89f90" stroke-width="1.1" points="223.45,-499.07 221,-492.07 218.55,-499.07 223.45,-499.07"/>
</g>
<!-- V5 -->
<g id="node5" class="node">
<title>V5</title>
<path fill="#e3e5e9" stroke="#9aa0a6" stroke-width="1.3" d="M272,-644C272,-644 242,-644 242,-644 236,-644 230,-638 230,-632 230,-632 230,-620 230,-620 230,-614 236,-608 242,-608 242,-608 272,-608 272,-608 278,-608 284,-614 284,-620 284,-620 284,-632 284,-632 284,-638 278,-644 272,-644"/>
<text text-anchor="start" x="247.5" y="-628.1" font-family="Helvetica,sans-Serif" font-weight="bold" font-size="13.00" fill="#1d1b16">V5</text>
<text text-anchor="start" x="244.5" y="-617.5" font-family="Helvetica,sans-Serif" font-size="10.00" fill="#1d1b16">0.7%</text>
</g>
<!-- DI1 -->
<g id="node8" class="node">
<title>DI1</title>
<path fill="#e6e0f8" stroke="#7c6bd6" stroke-width="1.3" d="M310,-568C310,-568 280,-568 280,-568 274,-568 268,-562 268,-556 268,-556 268,-544 268,-544 268,-538 274,-532 280,-532 280,-532 310,-532 310,-532 316,-532 322,-538 322,-544 322,-544 322,-556 322,-556 322,-562 316,-568 310,-568"/>
<text text-anchor="start" x="282.5" y="-552.1" font-family="Helvetica,sans-Serif" font-weight="bold" font-size="13.00" fill="#1d1b16">DI1</text>
<text text-anchor="start" x="282.5" y="-541.5" font-family="Helvetica,sans-Serif" font-size="10.00" fill="#1d1b16">1.3%</text>
</g>
<!-- V5&#45;&gt;DI1 -->
<g id="edge2" class="edge">
<title>V5&#45;&gt;DI1</title>
<path fill="none" stroke="#a89f90" stroke-width="1.1" d="M265.81,-607.84C270.9,-597.94 277.36,-585.35 282.92,-574.53"/>
<polygon fill="#a89f90" stroke="#a89f90" stroke-width="1.1" points="285.22,-575.42 286.23,-568.07 280.86,-573.18 285.22,-575.42"/>
</g>
<!-- V5&#45;&gt;V8 -->
<g id="edge5" class="edge">
<title>V5&#45;&gt;V8</title>
<path fill="none" stroke="#a89f90" stroke-width="1.1" d="M231.49,-607.84C215.66,-597.19 195.21,-583.43 178.39,-572.12"/>
<polygon fill="#a89f90" stroke="#a89f90" stroke-width="1.1" points="179.55,-569.94 172.37,-568.07 176.81,-574.01 179.55,-569.94"/>
</g>
<!-- V6 -->
<g id="node6" class="node">
<title>V6</title>
<path fill="#e3e5e9" stroke="#9aa0a6" stroke-width="1.3" d="M349,-644C349,-644 319,-644 319,-644 313,-644 307,-638 307,-632 307,-632 307,-620 307,-620 307,-614 313,-608 319,-608 319,-608 349,-608 349,-608 355,-608 361,-614 361,-620 361,-620 361,-632 361,-632 361,-638 355,-644 349,-644"/>
<text text-anchor="start" x="324.5" y="-628.1" font-family="Helvetica,sans-Serif" font-weight="bold" font-size="13.00" fill="#1d1b16">V6</text>
<text text-anchor="start" x="321.5" y="-617.5" font-family="Helvetica,sans-Serif" font-size="10.00" fill="#1d1b16">0.7%</text>
</g>
<!-- DI2 -->
<g id="node9" class="node">
<title>DI2</title>
<path fill="#e6e0f8" stroke="#7c6bd6" stroke-width="1.3" d="M384,-568C384,-568 354,-568 354,-568 348,-568 342,-562 342,-556 342,-556 342,-544 342,-544 342,-538 348,-532 354,-532 354,-532 384,-532 384,-532 390,-532 396,-538 396,-544 396,-544 396,-556 396,-556 396,-562 390,-568 384,-568"/>
<text text-anchor="start" x="356.5" y="-552.1" font-family="Helvetica,sans-Serif" font-weight="bold" font-size="13.00" fill="#1d1b16">DI2</text>
<text text-anchor="start" x="356.5" y="-541.5" font-family="Helvetica,sans-Serif" font-size="10.00" fill="#1d1b16">1.3%</text>
</g>
<!-- V6&#45;&gt;DI2 -->
<g id="edge3" class="edge">
<title>V6&#45;&gt;DI2</title>
<path fill="none" stroke="#a89f90" stroke-width="1.1" d="M342.12,-607.84C346.8,-597.94 352.76,-585.35 357.87,-574.53"/>
<polygon fill="#a89f90" stroke="#a89f90" stroke-width="1.1" points="360.15,-575.45 360.93,-568.07 355.72,-573.35 360.15,-575.45"/>
</g>
<!-- V6&#45;&gt;V8 -->
<g id="edge6" class="edge">
<title>V6&#45;&gt;V8</title>
<path fill="none" stroke="#a89f90" stroke-width="1.1" d="M306.97,-613.28C302.65,-611.48 298.21,-609.66 294,-608 245.6,-588.93 232.12,-587.76 184,-568 183.02,-567.6 182.03,-567.18 181.03,-566.76"/>
<polygon fill="#a89f90" stroke="#a89f90" stroke-width="1.1" points="181.77,-564.41 174.37,-563.88 179.82,-568.91 181.77,-564.41"/>
</g>
<!-- V7 -->
<g id="node7" class="node">
<title>V7</title>
<path fill="#e3e5e9" stroke="#9aa0a6" stroke-width="1.3" d="M197,-644C197,-644 167,-644 167,-644 161,-644 155,-638 155,-632 155,-632 155,-620 155,-620 155,-614 161,-608 167,-608 167,-608 197,-608 197,-608 203,-608 209,-614 209,-620 209,-620 209,-632 209,-632 209,-638 203,-644 197,-644"/>
<text text-anchor="start" x="172.5" y="-628.1" font-family="Helvetica,sans-Serif" font-weight="bold" font-size="13.00" fill="#1d1b16">V7</text>
<text text-anchor="start" x="169.5" y="-617.5" font-family="Helvetica,sans-Serif" font-size="10.00" fill="#1d1b16">0.7%</text>
</g>
<!-- V7&#45;&gt;V8 -->
<g id="edge7" class="edge">
<title>V7&#45;&gt;V8</title>
<path fill="none" stroke="#a89f90" stroke-width="1.1" d="M173.88,-607.84C169.2,-597.94 163.24,-585.35 158.13,-574.53"/>
<polygon fill="#a89f90" stroke="#a89f90" stroke-width="1.1" points="160.28,-573.35 155.07,-568.07 155.85,-575.45 160.28,-573.35"/>
</g>
<!-- EP1 -->
<g id="node11" class="node">
<title>EP1</title>
<path fill="#e6e0f8" stroke="#7c6bd6" stroke-width="1.3" d="M88,-492C88,-492 58,-492 58,-492 52,-492 46,-486 46,-480 46,-480 46,-468 46,-468 46,-462 52,-456 58,-456 58,-456 88,-456 88,-456 94,-456 100,-462 100,-468 100,-468 100,-480 100,-480 100,-486 94,-492 88,-492"/>
<text text-anchor="start" x="59" y="-476.1" font-family="Helvetica,sans-Serif" font-weight="bold" font-size="13.00" fill="#1d1b16">EP1</text>
<text text-anchor="start" x="60.5" y="-465.5" font-family="Helvetica,sans-Serif" font-size="10.00" fill="#1d1b16">4.0%</text>
</g>
<!-- V8&#45;&gt;EP1 -->
<g id="edge8" class="edge">
<title>V8&#45;&gt;EP1</title>
<path fill="none" stroke="#a89f90" stroke-width="1.1" d="M129.84,-531.84C119.56,-521.56 106.39,-508.39 95.32,-497.32"/>
<polygon fill="#a89f90" stroke="#a89f90" stroke-width="1.1" points="96.75,-495.29 90.07,-492.07 93.29,-498.75 96.75,-495.29"/>
</g>
<!-- V8&#45;&gt;V9 -->
<g id="edge9" class="edge">
<title>V8&#45;&gt;V9</title>
<path fill="none" stroke="#a89f90" stroke-width="1.1" d="M164.16,-531.84C174.44,-521.56 187.61,-508.39 198.68,-497.32"/>
<polygon fill="#a89f90" stroke="#a89f90" stroke-width="1.1" points="200.71,-498.75 203.93,-492.07 197.25,-495.29 200.71,-498.75"/>
</g>
<!-- V11 -->
<g id="node14" class="node">
<title>V11</title>
<path fill="#f8d9d6" stroke="#e0625b" stroke-width="1.3" d="M199,-416C199,-416 169,-416 169,-416 163,-416 157,-410 157,-404 157,-404 157,-392 157,-392 157,-386 163,-380 169,-380 169,-380 199,-380 199,-380 205,-380 211,-386 211,-392 211,-392 211,-404 211,-404 211,-410 205,-416 199,-416"/>
<text text-anchor="start" x="170" y="-400.1" font-family="Helvetica,sans-Serif" font-weight="bold" font-size="13.00" fill="#1d1b16">V11</text>
<text text-anchor="start" x="171.5" y="-389.5" font-family="Helvetica,sans-Serif" font-size="10.00" fill="#1d1b16">6.0%</text>
</g>
<!-- V9&#45;&gt;V11 -->
<g id="edge11" class="edge">
<title>V9&#45;&gt;V11</title>
<path fill="none" stroke="#a89f90" stroke-width="1.1" d="M212.42,-455.84C207.47,-445.94 201.17,-433.35 195.77,-422.53"/>
<polygon fill="#a89f90" stroke="#a89f90" stroke-width="1.1" points="197.86,-421.24 192.54,-416.07 193.47,-423.43 197.86,-421.24"/>
</g>
<!-- V10 -->
<g id="node13" class="node">
<title>V10</title>
<path fill="#e3e5e9" stroke="#9aa0a6" stroke-width="1.3" d="M162,-492C162,-492 132,-492 132,-492 126,-492 120,-486 120,-480 120,-480 120,-468 120,-468 120,-462 126,-456 132,-456 132,-456 162,-456 162,-456 168,-456 174,-462 174,-468 174,-468 174,-480 174,-480 174,-486 168,-492 162,-492"/>
<text text-anchor="start" x="133" y="-476.1" font-family="Helvetica,sans-Serif" font-weight="bold" font-size="13.00" fill="#1d1b16">V10</text>
<text text-anchor="start" x="134.5" y="-465.5" font-family="Helvetica,sans-Serif" font-size="10.00" fill="#1d1b16">0.7%</text>
</g>
<!-- V10&#45;&gt;V11 -->
<g id="edge12" class="edge">
<title>V10&#45;&gt;V11</title>
<path fill="none" stroke="#a89f90" stroke-width="1.1" d="M155.58,-455.84C160.53,-445.94 166.83,-433.35 172.23,-422.53"/>
<polygon fill="#a89f90" stroke="#a89f90" stroke-width="1.1" points="174.53,-423.43 175.46,-416.07 170.14,-421.24 174.53,-423.43"/>
</g>
<!-- V13 -->
<g id="node16" class="node">
<title>V13</title>
<path fill="#f8d9d6" stroke="#e0625b" stroke-width="1.3" d="M236,-340C236,-340 206,-340 206,-340 200,-340 194,-334 194,-328 194,-328 194,-316 194,-316 194,-310 200,-304 206,-304 206,-304 236,-304 236,-304 242,-304 248,-310 248,-316 248,-316 248,-328 248,-328 248,-334 242,-340 236,-340"/>
<text text-anchor="start" x="207" y="-324.1" font-family="Helvetica,sans-Serif" font-weight="bold" font-size="13.00" fill="#1d1b16">V13</text>
<text text-anchor="start" x="208.5" y="-313.5" font-family="Helvetica,sans-Serif" font-size="10.00" fill="#1d1b16">7.4%</text>
</g>
<!-- V11&#45;&gt;V13 -->
<g id="edge13" class="edge">
<title>V11&#45;&gt;V13</title>
<path fill="none" stroke="#a89f90" stroke-width="1.1" d="M192.58,-379.84C197.53,-369.94 203.83,-357.35 209.23,-346.53"/>
<polygon fill="#a89f90" stroke="#a89f90" stroke-width="1.1" points="211.53,-347.43 212.46,-340.07 207.14,-345.24 211.53,-347.43"/>
</g>
<!-- V12 -->
<g id="node15" class="node">
<title>V12</title>
<path fill="#e3e5e9" stroke="#9aa0a6" stroke-width="1.3" d="M273,-416C273,-416 243,-416 243,-416 237,-416 231,-410 231,-404 231,-404 231,-392 231,-392 231,-386 237,-380 243,-380 243,-380 273,-380 273,-380 279,-380 285,-386 285,-392 285,-392 285,-404 285,-404 285,-410 279,-416 273,-416"/>
<text text-anchor="start" x="244" y="-400.1" font-family="Helvetica,sans-Serif" font-weight="bold" font-size="13.00" fill="#1d1b16">V12</text>
<text text-anchor="start" x="245.5" y="-389.5" font-family="Helvetica,sans-Serif" font-size="10.00" fill="#1d1b16">0.7%</text>
</g>
<!-- V12&#45;&gt;V13 -->
<g id="edge14" class="edge">
<title>V12&#45;&gt;V13</title>
<path fill="none" stroke="#a89f90" stroke-width="1.1" d="M249.42,-379.84C244.47,-369.94 238.17,-357.35 232.77,-346.53"/>
<polygon fill="#a89f90" stroke="#a89f90" stroke-width="1.1" points="234.86,-345.24 229.54,-340.07 230.47,-347.43 234.86,-345.24"/>
</g>
<!-- V1 -->
<g id="node17" class="node">
<title>V1</title>
<path fill="#f8d9d6" stroke="#e0625b" stroke-width="1.3" d="M156,-188C156,-188 126,-188 126,-188 120,-188 114,-182 114,-176 114,-176 114,-164 114,-164 114,-158 120,-152 126,-152 126,-152 156,-152 156,-152 162,-152 168,-158 168,-164 168,-164 168,-176 168,-176 168,-182 162,-188 156,-188"/>
<text text-anchor="start" x="131.5" y="-172.1" font-family="Helvetica,sans-Serif" font-weight="bold" font-size="13.00" fill="#1d1b16">V1</text>
<text text-anchor="start" x="128.5" y="-161.5" font-family="Helvetica,sans-Serif" font-size="10.00" fill="#1d1b16">8.1%</text>
</g>
<!-- V13&#45;&gt;V1 -->
<g id="edge15" class="edge">
<title>V13&#45;&gt;V1</title>
<path fill="none" stroke="#a89f90" stroke-width="1.1" d="M209.01,-303.93C201.42,-292.81 191.64,-277.84 184,-264 171.37,-241.12 159.07,-213.86 150.88,-194.79"/>
<polygon fill="#a89f90" stroke="#a89f90" stroke-width="1.1" points="153.06,-193.64 148.06,-188.16 148.55,-195.56 153.06,-193.64"/>
</g>
<!-- EP2 -->
<g id="node18" class="node">
<title>EP2</title>
<path fill="#f8d9d6" stroke="#e0625b" stroke-width="1.3" d="M310,-264C310,-264 280,-264 280,-264 274,-264 268,-258 268,-252 268,-252 268,-240 268,-240 268,-234 274,-228 280,-228 280,-228 310,-228 310,-228 316,-228 322,-234 322,-240 322,-240 322,-252 322,-252 322,-258 316,-264 310,-264"/>
<text text-anchor="start" x="281" y="-248.1" font-family="Helvetica,sans-Serif" font-weight="bold" font-size="13.00" fill="#1d1b16">EP2</text>
<text text-anchor="start" x="282.5" y="-237.5" font-family="Helvetica,sans-Serif" font-size="10.00" fill="#1d1b16">8.1%</text>
</g>
<!-- V13&#45;&gt;EP2 -->
<g id="edge16" class="edge">
<title>V13&#45;&gt;EP2</title>
<path fill="none" stroke="#a89f90" stroke-width="1.1" d="M238.16,-303.84C248.44,-293.56 261.61,-280.39 272.68,-269.32"/>
<polygon fill="#a89f90" stroke="#a89f90" stroke-width="1.1" points="274.71,-270.75 277.93,-264.07 271.25,-267.29 274.71,-270.75"/>
</g>
<!-- V14 -->
<g id="node19" class="node">
<title>V14</title>
<path fill="#f8d9d6" stroke="#e0625b" stroke-width="1.3" d="M236,-264C236,-264 206,-264 206,-264 200,-264 194,-258 194,-252 194,-252 194,-240 194,-240 194,-234 200,-228 206,-228 206,-228 236,-228 236,-228 242,-228 248,-234 248,-240 248,-240 248,-252 248,-252 248,-258 242,-264 236,-264"/>
<text text-anchor="start" x="207" y="-248.1" font-family="Helvetica,sans-Serif" font-weight="bold" font-size="13.00" fill="#1d1b16">V14</text>
<text text-anchor="start" x="208.5" y="-237.5" font-family="Helvetica,sans-Serif" font-size="10.00" fill="#1d1b16">8.1%</text>
</g>
<!-- V13&#45;&gt;V14 -->
<g id="edge17" class="edge">
<title>V13&#45;&gt;V14</title>
<path fill="none" stroke="#a89f90" stroke-width="1.1" d="M221,-303.84C221,-294.12 221,-281.82 221,-271.15"/>
<polygon fill="#a89f90" stroke="#a89f90" stroke-width="1.1" points="223.45,-271.07 221,-264.07 218.55,-271.07 223.45,-271.07"/>
</g>
<!-- V16 -->
<g id="node21" class="node">
<title>V16</title>
<path fill="#f9e9c9" stroke="#d99a16" stroke-width="1.3" d="M214,-112C214,-112 184,-112 184,-112 178,-112 172,-106 172,-100 172,-100 172,-88 172,-88 172,-82 178,-76 184,-76 184,-76 214,-76 214,-76 220,-76 226,-82 226,-88 226,-88 226,-100 226,-100 226,-106 220,-112 214,-112"/>
<text text-anchor="start" x="185" y="-96.1" font-family="Helvetica,sans-Serif" font-weight="bold" font-size="13.00" fill="#1d1b16">V16</text>
<text text-anchor="start" x="183.5" y="-85.5" font-family="Helvetica,sans-Serif" font-size="10.00" fill="#1d1b16">10.1%</text>
</g>
<!-- V1&#45;&gt;V16 -->
<g id="edge20" class="edge">
<title>V1&#45;&gt;V16</title>
<path fill="none" stroke="#a89f90" stroke-width="1.1" d="M154.45,-151.84C162.43,-141.66 172.64,-128.63 181.27,-117.62"/>
<polygon fill="#a89f90" stroke="#a89f90" stroke-width="1.1" points="183.23,-119.09 185.62,-112.07 179.37,-116.07 183.23,-119.09"/>
</g>
<!-- V17 -->
<g id="node23" class="node">
<title>V17</title>
<path fill="#f9e9c9" stroke="#d99a16" stroke-width="1.3" d="M185,-36C185,-36 155,-36 155,-36 149,-36 143,-30 143,-24 143,-24 143,-12 143,-12 143,-6 149,0 155,0 155,0 185,0 185,0 191,0 197,-6 197,-12 197,-12 197,-24 197,-24 197,-30 191,-36 185,-36"/>
<text text-anchor="start" x="156" y="-20.1" font-family="Helvetica,sans-Serif" font-weight="bold" font-size="13.00" fill="#1d1b16">V17</text>
<text text-anchor="start" x="154.5" y="-9.5" font-family="Helvetica,sans-Serif" font-size="10.00" fill="#1d1b16">10.5%</text>
</g>
<!-- V1&#45;&gt;V17 -->
<g id="edge22" class="edge">
<title>V1&#45;&gt;V17</title>
<path fill="none" stroke="#a89f90" stroke-width="1.1" d="M144.33,-151.79C149.48,-125.12 159.42,-73.7 165.31,-43.26"/>
<polygon fill="#a89f90" stroke="#a89f90" stroke-width="1.1" points="167.79,-43.34 166.71,-36.01 162.98,-42.41 167.79,-43.34"/>
</g>
<!-- V15 -->
<g id="node20" class="node">
<title>V15</title>
<path fill="#f8d9d6" stroke="#e0625b" stroke-width="1.3" d="M316,-188C316,-188 286,-188 286,-188 280,-188 274,-182 274,-176 274,-176 274,-164 274,-164 274,-158 280,-152 286,-152 286,-152 316,-152 316,-152 322,-152 328,-158 328,-164 328,-164 328,-176 328,-176 328,-182 322,-188 316,-188"/>
<text text-anchor="start" x="287" y="-172.1" font-family="Helvetica,sans-Serif" font-weight="bold" font-size="13.00" fill="#1d1b16">V15</text>
<text text-anchor="start" x="288.5" y="-161.5" font-family="Helvetica,sans-Serif" font-size="10.00" fill="#1d1b16">8.7%</text>
</g>
<!-- V14&#45;&gt;V15 -->
<g id="edge18" class="edge">
<title>V14&#45;&gt;V15</title>
<path fill="none" stroke="#a89f90" stroke-width="1.1" d="M239.55,-227.84C250.76,-217.47 265.16,-204.15 277.2,-193.02"/>
<polygon fill="#a89f90" stroke="#a89f90" stroke-width="1.1" points="279.07,-194.62 282.55,-188.07 275.74,-191.02 279.07,-194.62"/>
</g>
<!-- TRAP2 -->
<g id="node22" class="node">
<title>TRAP2</title>
<path fill="#d3f1e9" stroke="#1aa39a" stroke-width="1.3" d="M242,-188C242,-188 200,-188 200,-188 194,-188 188,-182 188,-176 188,-176 188,-164 188,-164 188,-158 194,-152 200,-152 200,-152 242,-152 242,-152 248,-152 254,-158 254,-164 254,-164 254,-176 254,-176 254,-182 248,-188 242,-188"/>
<text text-anchor="start" x="197" y="-172.1" font-family="Helvetica,sans-Serif" font-weight="bold" font-size="13.00" fill="#1d1b16">TRAP2</text>
<text text-anchor="start" x="208.5" y="-161.5" font-family="Helvetica,sans-Serif" font-size="10.00" fill="#1d1b16">8.7%</text>
</g>
<!-- V14&#45;&gt;TRAP2 -->
<g id="edge21" class="edge">
<title>V14&#45;&gt;TRAP2</title>
<path fill="none" stroke="#a89f90" stroke-width="1.1" d="M221,-227.84C221,-218.12 221,-205.82 221,-195.15"/>
<polygon fill="#a89f90" stroke="#a89f90" stroke-width="1.1" points="223.45,-195.07 221,-188.07 218.55,-195.07 223.45,-195.07"/>
</g>
<!-- V15&#45;&gt;V16 -->
<g id="edge19" class="edge">
<title>V15&#45;&gt;V16</title>
<path fill="none" stroke="#a89f90" stroke-width="1.1" d="M277.34,-151.84C262.8,-141.28 244.03,-127.67 228.52,-116.42"/>
<polygon fill="#a89f90" stroke="#a89f90" stroke-width="1.1" points="229.63,-114.2 222.53,-112.07 226.76,-118.16 229.63,-114.2"/>
</g>
<!-- V16&#45;&gt;V17 -->
<g id="edge23" class="edge">
<title>V16&#45;&gt;V17</title>
<path fill="none" stroke="#a89f90" stroke-width="1.1" d="M192.27,-75.84C188.43,-66.03 183.55,-53.58 179.34,-42.84"/>
<polygon fill="#a89f90" stroke="#a89f90" stroke-width="1.1" points="181.52,-41.69 176.69,-36.07 176.96,-43.48 181.52,-41.69"/>
</g>
<!-- FD1 -->
<g id="node24" class="node">
<title>FD1</title>
<path fill="#d9e7fc" stroke="#3d7bd6" stroke-width="1.3" d="M458,-644C458,-644 428,-644 428,-644 422,-644 416,-638 416,-632 416,-632 416,-620 416,-620 416,-614 422,-608 428,-608 428,-608 458,-608 458,-608 464,-608 470,-614 470,-620 470,-620 470,-632 470,-632 470,-638 464,-644 458,-644"/>
<text text-anchor="start" x="428.5" y="-628.1" font-family="Helvetica,sans-Serif" font-weight="bold" font-size="13.00" fill="#1d1b16">FD1</text>
<text text-anchor="start" x="430.5" y="-617.5" font-family="Helvetica,sans-Serif" font-size="10.00" fill="#1d1b16">0.7%</text>
</g>
<!-- FD2 -->
<g id="node25" class="node">
<title>FD2</title>
<path fill="#d9e7fc" stroke="#3d7bd6" stroke-width="1.3" d="M458,-568C458,-568 428,-568 428,-568 422,-568 416,-562 416,-556 416,-556 416,-544 416,-544 416,-538 422,-532 428,-532 428,-532 458,-532 458,-532 464,-532 470,-538 470,-544 470,-544 470,-556 470,-556 470,-562 464,-568 458,-568"/>
<text text-anchor="start" x="428.5" y="-552.1" font-family="Helvetica,sans-Serif" font-weight="bold" font-size="13.00" fill="#1d1b16">FD2</text>
<text text-anchor="start" x="430.5" y="-541.5" font-family="Helvetica,sans-Serif" font-size="10.00" fill="#1d1b16">1.3%</text>
</g>
<!-- FD1&#45;&gt;FD2 -->
<g id="edge24" class="edge">
<title>FD1&#45;&gt;FD2</title>
<path fill="none" stroke="#a89f90" stroke-width="1.1" d="M443,-607.84C443,-598.12 443,-585.82 443,-575.15"/>
<polygon fill="#a89f90" stroke="#a89f90" stroke-width="1.1" points="445.45,-575.07 443,-568.07 440.55,-575.07 445.45,-575.07"/>
</g>
<!-- RF1 -->
<g id="node26" class="node">
<title>RF1</title>
<path fill="#d9e7fc" stroke="#3d7bd6" stroke-width="1.3" d="M532,-644C532,-644 502,-644 502,-644 496,-644 490,-638 490,-632 490,-632 490,-620 490,-620 490,-614 496,-608 502,-608 502,-608 532,-608 532,-608 538,-608 544,-614 544,-620 544,-620 544,-632 544,-632 544,-638 538,-644 532,-644"/>
<text text-anchor="start" x="503" y="-628.1" font-family="Helvetica,sans-Serif" font-weight="bold" font-size="13.00" fill="#1d1b16">RF1</text>
<text text-anchor="start" x="504.5" y="-617.5" font-family="Helvetica,sans-Serif" font-size="10.00" fill="#1d1b16">0.7%</text>
</g>
</g>
</svg>
