<?xml version="1.0" encoding="UTF-8" standalone="no"?>
<!DOCTYPE svg PUBLIC "-//W3C//DTD SVG 1.1//EN"
 "http://www.w3.org/Graphics/SVG/1.1/DTD/svg11.dtd">
<!-- Generated by graphviz version 2.43.0 (0)
 -->
<!-- Title: %3 Pages: 1 -->
<svg width="574pt" height="500pt"
 viewBox="0.00 0.00 574.48 500.00" xmlns="http://www.w3.org/2000/svg" xmlns:xlink="http://www.w3.org/1999/xlink">
<g id="graph0" class="graph" transform="scale(1 1) rotate(0) translate(4 496)">
<title>%3</title>
<!-- V7 -->
<g id="node1" class="node">
<title>V7</title>
<path fill="#e3e5e9" stroke="#9aa0a6" stroke-width="1.3" d="M267.48,-340C267.48,-340 237.48,-340 237.48,-340 231.48,-340 225.48,-334 225.48,-328 225.48,-328 225.48,-316 225.48,-316 225.48,-310 231.48,-304 237.48,-304 237.48,-304 267.48,-304 267.48,-304 273.48,-304 279.48,-310 279.48,-316 279.48,-316 279.48,-328 279.48,-328 279.48,-334 273.48,-340 267.48,-340"/>
<text text-anchor="start" x="242.98" y="-324.1" font-family="Helvetica,sans-Serif" font-weight="bold" font-size="13.00" fill="#1d1b16">V7</text>
<text text-anchor="start" x="239.98" y="-313.5" font-family="Helvetica,sans-Serif" font-size="10.00" fill="#1d1b16">1.1%</text>
</g>
<!-- V6 -->
<g id="node4" class="node">
<title>V6</title>
<path fill="#e6e0f8" stroke="#7c6bd6" stroke-width="1.3" d="M267.48,-264C267.48,-264 237.48,-264 237.48,-264 231.48,-264 225.48,-258 225.48,-252 225.48,-252 225.48,-240 225.48,-240 225.48,-234 231.48,-228 237.48,-228 237.48,-228 267.48,-228 267.48,-228 273.48,-228 279.48,-234 279.48,-240 279.48,-240 279.48,-252 279.48,-252 279.48,-258 273.48,-264 267.48,-264"/>
<text text-anchor="start" x="242.98" y="-248.1" font-family="Helvetica,sans-Serif" font-weight="bold" font-size="13.00" fill="#1d1b16">V6</text>
<text text-anchor="start" x="239.98" y="-237.5" font-family="Helvetica,sans-Serif" font-size="10.00" fill="#1d1b16">3.4%</text>
</g>
<!-- V7&#45;&gt;V6 -->
<g id="edge3" class="edge">
<title>V7&#45;&gt;V6</title>
<path fill="none" stroke="#a89f90" stroke-width="1.1" d="M252.48,-303.84C252.48,-294.12 252.48,-281.82 252.48,-271.15"/>
<polygon fill="#a89f90" stroke="#a89f90" stroke-width="1.1" points="254.93,-271.07 252.48,-264.07 250.03,-271.07 254.93,-271.07"/>
</g>
<!-- DI1 -->
<g id="node2" class="node">
<title>DI1</title>
<path fill="#e3e5e9" stroke="#9aa0a6" stroke-width="1.3" d="M344.48,-340C344.48,-340 314.48,-340 314.48,-340 308.48,-340 302.48,-334 302.48,-328 302.48,-328 302.48,-316 302.48,-316 302.48,-310 308.48,-304 314.48,-304 314.48,-304 344.48,-304 344.48,-304 350.48,-304 356.48,-310 356.48,-316 356.48,-316 356.48,-328 356.48,-328 356.48,-334 350.48,-340 344.48,-340"/>
<text text-anchor="start" x="316.98" y="-324.1" font-family="Helvetica,sans-Serif" font-weight="bold" font-size="13.00" fill="#1d1b16">DI1</text>
<text text-anchor="start" x="316.98" y="-313.5" font-family="Helvetica,sans-Serif" font-size="10.00" fill="#1d1b16">1.1%</text>
</g>
<!-- TRAP1 -->
<g id="node3" class="node">
<title>TRAP1</title>
<path fill="#d3f1e9" stroke="#1aa39a" stroke-width="1.3" d="M353.48,-264C353.48,-264 311.48,-264 311.48,-264 305.48,-264 299.48,-258 299.48,-252 299.48,-252 299.48,-240 299.48,-240 299.48,-234 305.48,-228 311.48,-228 311.48,-228 353.48,-228 353.48,-228 359.48,-228 365.48,-234 365.48,-240 365.48,-240 365.48,-252 365.48,-252 365.48,-258 359.48,-264 353.48,-264"/>
<text text-anchor="start" x="308.48" y="-248.1" font-family="Helvetica,sans-Serif" font-weight="bold" font-size="13.00" fill="#1d1b16">TRAP1</text>
<text text-anchor="start" x="319.98" y="-237.5" font-family="Helvetica,sans-Serif" font-size="10.00" fill="#1d1b16">2.3%</text>
</g>
<!-- DI1&#45;&gt;TRAP1 -->
<g id="edge1" class="edge">
<title>DI1&#45;&gt;TRAP1</title>
<path fill="none" stroke="#a89f90" stroke-width="1.1" d="M330.17,-303.84C330.57,-294.12 331.07,-281.82 331.5,-271.15"/>
<polygon fill="#a89f90" stroke="#a89f90" stroke-width="1.1" points="333.95,-271.16 331.79,-264.07 329.05,-270.96 333.95,-271.16"/>
</g>
<!-- DI1&#45;&gt;V6 -->
<g id="edge2" class="edge">
<title>DI1&#45;&gt;V6</title>
<path fill="none" stroke="#a89f90" stroke-width="1.1" d="M311.62,-303.84C300.83,-293.47 286.97,-280.15 275.39,-269.02"/>
<polygon fill="#a89f90" stroke="#a89f90" stroke-width="1.1" points="276.98,-267.15 270.24,-264.07 273.59,-270.69 276.98,-267.15"/>
</g>
<!-- EP3_A -->
<g id="node5" class="node">
<title>EP3_A</title>
<path fill="#e6e0f8" stroke="#7c6bd6" stroke-width="1.3" d="M274.98,-188C274.98,-188 235.98,-188 235.98,-188 229.98,-188 223.98,-182 223.98,-176 223.98,-176 223.98,-164 223.98,-164 223.98,-158 229.98,-152 235.98,-152 235.98,-152 274.98,-152 274.98,-152 280.98,-152 286.98,-158 286.98,-164 286.98,-164 286.98,-176 286.98,-176 286.98,-182 280.98,-188 274.98,-188"/>
<text text-anchor="start" x="232.98" y="-172.1" font-family="Helvetica,sans-Serif" font-weight="bold" font-size="13.00" fill="#1d1b16">EP3_A</text>
<text text-anchor="start" x="242.98" y="-161.5" font-family="Helvetica,sans-Serif" font-size="10.00" fill="#1d1b16">4.6%</text>
</g>
<!-- V6&#45;&gt;EP3_A -->
<g id="edge4" class="edge">
<title>V6&#45;&gt;EP3_A</title>
<path fill="none" stroke="#a89f90" stroke-width="1.1" d="M253.17,-227.84C253.57,-218.12 254.07,-205.82 254.5,-195.15"/>
<polygon fill="#a89f90" stroke="#a89f90" stroke-width="1.1" points="256.95,-195.16 254.79,-188.07 252.05,-194.96 256.95,-195.16"/>
</g>
<!-- V3 -->
<g id="node15" class="node">
<title>V3</title>
<path fill="#f9e9c9" stroke="#d99a16" stroke-width="1.3" d="M191.48,-188C191.48,-188 161.48,-188 161.48,-188 155.48,-188 149.48,-182 149.48,-176 149.48,-176 149.48,-164 149.48,-164 149.48,-158 155.48,-152 161.48,-152 161.48,-152 191.48,-152 191.48,-152 197.48,-152 203.48,-158 203.48,-164 203.48,-164 203.48,-176 203.48,-176 203.48,-182 197.48,-188 191.48,-188"/>
<text text-anchor="start" x="166.98" y="-172.1" font-family="Helvetica,sans-Serif" font-weight="bold" font-size="13.00" fill="#1d1b16">V3</text>
<text text-anchor="start" x="160.98" y="-161.5" font-family="Helvetica,sans-Serif" font-size="10.00" fill="#1d1b16">12.6%</text>
</g>
<!-- V6&#45;&gt;V3 -->
<g id="edge17" class="edge">
<title>V6&#45;&gt;V3</title>
<path fill="none" stroke="#a89f90" stroke-width="1.1" d="M234.85,-227.84C224.2,-217.47 210.53,-204.15 199.09,-193.02"/>
<polygon fill="#a89f90" stroke="#a89f90" stroke-width="1.1" points="200.73,-191.2 194.01,-188.07 197.32,-194.71 200.73,-191.2"/>
</g>
<!-- DI2 -->
<g id="node6" class="node">
<title>DI2</title>
<path fill="#e3e5e9" stroke="#9aa0a6" stroke-width="1.3" d="M75.48,-492C75.48,-492 45.48,-492 45.48,-492 39.48,-492 33.48,-486 33.48,-480 33.48,-480 33.48,-468 33.48,-468 33.48,-462 39.48,-456 45.48,-456 45.48,-456 75.48,-456 75.48,-456 81.48,-456 87.48,-462 87.48,-468 87.48,-468 87.48,-480 87.48,-480 87.48,-486 81.48,-492 75.48,-492"/>
<text text-anchor="start" x="47.98" y="-476.1" font-family="Helvetica,sans-Serif" font-weight="bold" font-size="13.00" fill="#1d1b16">DI2</text>
<text text-anchor="start" x="47.98" y="-465.5" font-family="Helvetica,sans-Serif" font-size="10.00" fill="#1d1b16">1.1%</text>
</g>
<!-- V8 -->
<g id="node7" class="node">
<title>V8</title>
<path fill="#e6e0f8" stroke="#7c6bd6" stroke-width="1.3" d="M62.48,-340C62.48,-340 32.48,-340 32.48,-340 26.48,-340 20.48,-334 20.48,-328 20.48,-328 20.48,-316 20.48,-316 20.48,-310 26.48,-304 32.48,-304 32.48,-304 62.48,-304 62.48,-304 68.48,-304 74.48,-310 74.48,-316 74.48,-316 74.48,-328 74.48,-328 74.48,-334 68.48,-340 62.48,-340"/>
<text text-anchor="start" x="37.98" y="-324.1" font-family="Helvetica,sans-Serif" font-weight="bold" font-size="13.00" fill="#1d1b16">V8</text>
<text text-anchor="start" x="34.98" y="-313.5" font-family="Helvetica,sans-Serif" font-size="10.00" fill="#1d1b16">2.3%</text>
</g>
<!-- DI2&#45;&gt;V8 -->
<g id="edge5" class="edge">
<title>DI2&#45;&gt;V8</title>
<path fill="none" stroke="#a89f90" stroke-width="1.1" d="M57.68,-455.83C55.93,-444.54 53.78,-429.43 52.48,-416 50.22,-392.7 48.92,-366.01 48.21,-347.21"/>
<polygon fill="#a89f90" stroke="#a89f90" stroke-width="1.1" points="50.66,-347.08 47.96,-340.17 45.76,-347.26 50.66,-347.08"/>
</g>
<!-- V10 -->
<g id="node8" class="node">
<title>V10</title>
<path fill="#e6e0f8" stroke="#7c6bd6" stroke-width="1.3" d="M104.48,-416C104.48,-416 74.48,-416 74.48,-416 68.48,-416 62.48,-410 62.48,-404 62.48,-404 62.48,-392 62.48,-392 62.48,-386 68.48,-380 74.48,-380 74.48,-380 104.48,-380 104.48,-380 110.48,-380 116.48,-386 116.48,-392 116.48,-392 116.48,-404 116.48,-404 116.48,-410 110.48,-416 104.48,-416"/>
<text text-anchor="start" x="75.48" y="-400.1" font-family="Helvetica,sans-Serif" font-weight="bold" font-size="13.00" fill="#1d1b16">V10</text>
<text text-anchor="start" x="76.98" y="-389.5" font-family="Helvetica,sans-Serif" font-size="10.00" fill="#1d1b16">2.3%</text>
</g>
<!-- DI2&#45;&gt;V10 -->
<g id="edge6" class="edge">
<title>DI2&#45;&gt;V10</title>
<path fill="none" stroke="#a89f90" stroke-width="1.1" d="M67.2,-455.84C71.05,-446.03 75.92,-433.58 80.14,-422.84"/>
<polygon fill="#a89f90" stroke="#a89f90" stroke-width="1.1" points="82.52,-423.48 82.79,-416.07 77.95,-421.69 82.52,-423.48"/>
</g>
<!-- V11 -->
<g id="node12" class="node">
<title>V11</title>
<path fill="#e6e0f8" stroke="#7c6bd6" stroke-width="1.3" d="M178.48,-416C178.48,-416 148.48,-416 148.48,-416 142.48,-416 136.48,-410 136.48,-404 136.48,-404 136.48,-392 136.48,-392 136.48,-386 142.48,-380 148.48,-380 148.48,-380 178.48,-380 178.48,-380 184.48,-380 190.48,-386 190.48,-392 190.48,-392 190.48,-404 190.48,-404 190.48,-410 184.48,-416 178.48,-416"/>
<text text-anchor="start" x="149.48" y="-400.1" font-family="Helvetica,sans-Serif" font-weight="bold" font-size="13.00" fill="#1d1b16">V11</text>
<text text-anchor="start" x="150.98" y="-389.5" font-family="Helvetica,sans-Serif" font-size="10.00" fill="#1d1b16">3.4%</text>
</g>
<!-- DI2&#45;&gt;V11 -->
<g id="edge10" class="edge">
<title>DI2&#45;&gt;V11</title>
<path fill="none" stroke="#a89f90" stroke-width="1.1" d="M84.37,-455.84C99.06,-445.28 118,-431.67 133.67,-420.42"/>
<polygon fill="#a89f90" stroke="#a89f90" stroke-width="1.1" points="135.46,-422.14 139.72,-416.07 132.6,-418.16 135.46,-422.14"/>
</g>
<!-- V5 -->
<g id="node13" class="node">
<title>V5</title>
<path fill="#f8d9d6" stroke="#e0625b" stroke-width="1.3" d="M133.48,-264C133.48,-264 103.48,-264 103.48,-264 97.48,-264 91.48,-258 91.48,-252 91.48,-252 91.48,-240 91.48,-240 91.48,-234 97.48,-228 103.48,-228 103.48,-228 133.48,-228 133.48,-228 139.48,-228 145.48,-234 145.48,-240 145.48,-240 145.48,-252 145.48,-252 145.48,-258 139.48,-264 133.48,-264"/>
<text text-anchor="start" x="108.98" y="-248.1" font-family="Helvetica,sans-Serif" font-weight="bold" font-size="13.00" fill="#1d1b16">V5</text>
<text text-anchor="start" x="105.98" y="-237.5" font-family="Helvetica,sans-Serif" font-size="10.00" fill="#1d1b16">8.0%</text>
</g>
<!-- DI2&#45;&gt;V5 -->
<g id="edge14" class="edge">
<title>DI2&#45;&gt;V5</title>
<path fill="none" stroke="#a89f90" stroke-width="1.1" d="M46.79,-455.78C23.21,-423.85 -19.78,-354.18 10.48,-304 26.39,-277.61 59.04,-262.82 84.3,-254.95"/>
<polygon fill="#a89f90" stroke="#a89f90" stroke-width="1.1" points="85.19,-257.25 91.21,-252.92 83.8,-252.55 85.19,-257.25"/>
</g>
<!-- V8&#45;&gt;V5 -->
<g id="edge13" class="edge">
<title>V8&#45;&gt;V5</title>
<path fill="none" stroke="#a89f90" stroke-width="1.1" d="M63.95,-303.84C73.8,-293.56 86.44,-280.39 97.07,-269.32"/>
<polygon fill="#a89f90" stroke="#a89f90" stroke-width="1.1" points="99.02,-270.82 102.1,-264.07 95.49,-267.42 99.02,-270.82"/>
</g>
<!-- EP2 -->
<g id="node11" class="node">
<title>EP2</title>
<path fill="#e6e0f8" stroke="#7c6bd6" stroke-width="1.3" d="M136.48,-340C136.48,-340 106.48,-340 106.48,-340 100.48,-340 94.48,-334 94.48,-328 94.48,-328 94.48,-316 94.48,-316 94.48,-310 100.48,-304 106.48,-304 106.48,-304 136.48,-304 136.48,-304 142.48,-304 148.48,-310 148.48,-316 148.48,-316 148.48,-328 148.48,-328 148.48,-334 142.48,-340 136.48,-340"/>
<text text-anchor="start" x="107.48" y="-324.1" font-family="Helvetica,sans-Serif" font-weight="bold" font-size="13.00" fill="#1d1b16">EP2</text>
<text text-anchor="start" x="108.98" y="-313.5" font-family="Helvetica,sans-Serif" font-size="10.00" fill="#1d1b16">5.7%</text>
</g>
<!-- V10&#45;&gt;EP2 -->
<g id="edge9" class="edge">
<title>V10&#45;&gt;EP2</title>
<path fill="none" stroke="#a89f90" stroke-width="1.1" d="M96.9,-379.84C101.18,-369.94 106.63,-357.35 111.3,-346.53"/>
<polygon fill="#a89f90" stroke="#a89f90" stroke-width="1.1" points="113.57,-347.47 114.1,-340.07 109.07,-345.52 113.57,-347.47"/>
</g>
<!-- DI3 -->
<g id="node9" class="node">
<title>DI3</title>
<path fill="#e3e5e9" stroke="#9aa0a6" stroke-width="1.3" d="M215.48,-492C215.48,-492 185.48,-492 185.48,-492 179.48,-492 173.48,-486 173.48,-480 173.48,-480 173.48,-468 173.48,-468 173.48,-462 179.48,-456 185.48,-456 185.48,-456 215.48,-456 215.48,-456 221.48,-456 227.48,-462 227.48,-468 227.48,-468 227.48,-480 227.48,-480 227.48,-486 221.48,-492 215.48,-492"/>
<text text-anchor="start" x="187.98" y="-476.1" font-family="Helvetica,sans-Serif" font-weight="bold" font-size="13.00" fill="#1d1b16">DI3</text>
<text text-anchor="start" x="187.98" y="-465.5" font-family="Helvetica,sans-Serif" font-size="10.00" fill="#1d1b16">1.1%</text>
</g>
<!-- EP1 -->
<g id="node10" class="node">
<title>EP1</title>
<path fill="#e6e0f8" stroke="#7c6bd6" stroke-width="1.3" d="M252.48,-416C252.48,-416 222.48,-416 222.48,-416 216.48,-416 210.48,-410 210.48,-404 210.48,-404 210.48,-392 210.48,-392 210.48,-386 216.48,-380 222.48,-380 222.48,-380 252.48,-380 252.48,-380 258.48,-380 264.48,-386 264.48,-392 264.48,-392 264.48,-404 264.48,-404 264.48,-410 258.48,-416 252.48,-416"/>
<text text-anchor="start" x="223.48" y="-400.1" font-family="Helvetica,sans-Serif" font-weight="bold" font-size="13.00" fill="#1d1b16">EP1</text>
<text text-anchor="start" x="224.98" y="-389.5" font-family="Helvetica,sans-Serif" font-size="10.00" fill="#1d1b16">2.3%</text>
</g>
<!-- DI3&#45;&gt;EP1 -->
<g id="edge7" class="edge">
<title>DI3&#45;&gt;EP1</title>
<path fill="none" stroke="#a89f90" stroke-width="1.1" d="M209.06,-455.84C214.01,-445.94 220.3,-433.35 225.71,-422.53"/>
<polygon fill="#a89f90" stroke="#a89f90" stroke-width="1.1" points="228,-423.43 228.94,-416.07 223.62,-421.24 228,-423.43"/>
</g>
<!-- DI3&#45;&gt;V11 -->
<g id="edge11" class="edge">
<title>DI3&#45;&gt;V11</title>
<path fill="none" stroke="#a89f90" stroke-width="1.1" d="M191.9,-455.84C186.95,-445.94 180.65,-433.35 175.24,-422.53"/>
<polygon fill="#a89f90" stroke="#a89f90" stroke-width="1.1" points="177.33,-421.24 172.01,-416.07 172.95,-423.43 177.33,-421.24"/>
</g>
<!-- EP1&#45;&gt;EP2 -->
<g id="edge8" class="edge">
<title>EP1&#45;&gt;EP2</title>
<path fill="none" stroke="#a89f90" stroke-width="1.1" d="M210.57,-379.84C193.88,-369.19 172.32,-355.43 154.58,-344.12"/>
<polygon fill="#a89f90" stroke="#a89f90" stroke-width="1.1" points="155.46,-341.77 148.24,-340.07 152.82,-345.9 155.46,-341.77"/>
</g>
<!-- EP1&#45;&gt;V5 -->
<g id="edge15" class="edge">
<title>EP1&#45;&gt;V5</title>
<path fill="none" stroke="#a89f90" stroke-width="1.1" d="M223.83,-379.79C202.31,-352.67 160.48,-299.95 136.51,-269.73"/>
<polygon fill="#a89f90" stroke="#a89f90" stroke-width="1.1" points="138.24,-267.97 131.97,-264.01 134.4,-271.01 138.24,-267.97"/>
</g>
<!-- EP2&#45;&gt;V5 -->
<g id="edge12" class="edge">
<title>EP2&#45;&gt;V5</title>
<path fill="none" stroke="#a89f90" stroke-width="1.1" d="M120.78,-303.84C120.39,-294.12 119.89,-281.82 119.46,-271.15"/>
<polygon fill="#a89f90" stroke="#a89f90" stroke-width="1.1" points="121.9,-270.96 119.17,-264.07 117.01,-271.16 121.9,-270.96"/>
</g>
<!-- EP3_B -->
<g id="node14" class="node">
<title>EP3_B</title>
<path fill="#f8d9d6" stroke="#e0625b" stroke-width="1.3" d="M116.98,-188C116.98,-188 77.98,-188 77.98,-188 71.98,-188 65.98,-182 65.98,-176 65.98,-176 65.98,-164 65.98,-164 65.98,-158 71.98,-152 77.98,-152 77.98,-152 116.98,-152 116.98,-152 122.98,-152 128.98,-158 128.98,-164 128.98,-164 128.98,-176 128.98,-176 128.98,-182 122.98,-188 116.98,-188"/>
<text text-anchor="start" x="74.98" y="-172.1" font-family="Helvetica,sans-Serif" font-weight="bold" font-size="13.00" fill="#1d1b16">EP3_B</text>
<text text-anchor="start" x="84.98" y="-161.5" font-family="Helvetica,sans-Serif" font-size="10.00" fill="#1d1b16">9.2%</text>
</g>
<!-- V5&#45;&gt;EP3_B -->
<g id="edge16" class="edge">
<title>V5&#45;&gt;EP3_B</title>
<path fill="none" stroke="#a89f90" stroke-width="1.1" d="M113.61,-227.84C110.82,-218.03 107.29,-205.58 104.24,-194.84"/>
<polygon fill="#a89f90" stroke="#a89f90" stroke-width="1.1" points="106.59,-194.14 102.32,-188.07 101.88,-195.47 106.59,-194.14"/>
</g>
<!-- V5&#45;&gt;V3 -->
<g id="edge18" class="edge">
<title>V5&#45;&gt;V3</title>
<path fill="none" stroke="#a89f90" stroke-width="1.1" d="M131.93,-227.84C139.91,-217.66 150.12,-204.63 158.75,-193.62"/>
<polygon fill="#a89f90" stroke="#a89f90" stroke-width="1.1" points="160.71,-195.09 163.1,-188.07 156.85,-192.07 160.71,-195.09"/>
</g>
<!-- V4 -->
<g id="node16" class="node">
<title>V4</title>
<path fill="#f8d9d6" stroke="#e0625b" stroke-width="1.3" d="M162.48,-112C162.48,-112 132.48,-112 132.48,-112 126.48,-112 120.48,-106 120.48,-100 120.48,-100 120.48,-88 120.48,-88 120.48,-82 126.48,-76 132.48,-76 132.48,-76 162.48,-76 162.48,-76 168.48,-76 174.48,-82 174.48,-88 174.48,-88 174.48,-100 174.48,-100 174.48,-106 168.48,-112 162.48,-112"/>
<text text-anchor="start" x="137.98" y="-96.1" font-family="Helvetica,sans-Serif" font-weight="bold" font-size="13.00" fill="#1d1b16">V4</text>
<text text-anchor="start" x="131.98" y="-85.5" font-family="Helvetica,sans-Serif" font-size="10.00" fill="#1d1b16">13.8%</text>
</g>
<!-- V3&#45;&gt;V4 -->
<g id="edge19" class="edge">
<title>V3&#45;&gt;V4</title>
<path fill="none" stroke="#a89f90" stroke-width="1.1" d="M169.75,-151.84C165.91,-142.03 161.03,-129.58 156.82,-118.84"/>
<polygon fill="#a89f90" stroke="#a89f90" stroke-width="1.1" points="159,-117.69 154.17,-112.07 154.44,-119.48 159,-117.69"/>
</g>
<!-- FD2 -->
<g id="node22" class="node">
<title>FD2</title>
<path fill="#d9e7fc" stroke="#3d7bd6" stroke-width="1.3" d="M191.48,-36C191.48,-36 161.48,-36 161.48,-36 155.48,-36 149.48,-30 149.48,-24 149.48,-24 149.48,-12 149.48,-12 149.48,-6 155.48,0 161.48,0 161.48,0 191.48,0 191.48,0 197.48,0 203.48,-6 203.48,-12 203.48,-12 203.48,-24 203.48,-24 203.48,-30 197.48,-36 191.48,-36"/>
<text text-anchor="start" x="161.98" y="-20.1" font-family="Helvetica,sans-Serif" font-weight="bold" font-size="13.00" fill="#1d1b16">FD2</text>
<text text-anchor="start" x="160.98" y="-9.5" font-family="Helvetica,sans-Serif" font-size="10.00" fill="#1d1b16">15.6%</text>
</g>
<!-- V3&#45;&gt;FD2 -->
<g id="edge23" class="edge">
<title>V3&#45;&gt;FD2</title>
<path fill="none" stroke="#a89f90" stroke-width="1.1" d="M179.52,-151.85C181.36,-140.57 183.54,-125.46 184.48,-112 185.59,-96.04 185.59,-91.96 184.48,-76 183.72,-65.17 182.17,-53.27 180.63,-43.15"/>
<polygon fill="#a89f90" stroke="#a89f90" stroke-width="1.1" points="183.03,-42.68 179.52,-36.15 178.19,-43.44 183.03,-42.68"/>
</g>
<!-- V4&#45;&gt;FD2 -->
<g id="edge24" class="edge">
<title>V4&#45;&gt;FD2</title>
<path fill="none" stroke="#a89f90" stroke-width="1.1" d="M154.2,-75.84C158.05,-66.03 162.92,-53.58 167.14,-42.84"/>
<polygon fill="#a89f90" stroke="#a89f90" stroke-width="1.1" points="169.52,-43.48 169.79,-36.07 164.95,-41.69 169.52,-43.48"/>
</g>
<!-- V9 -->
<g id="node17" class="node">
<title>V9</title>
<path fill="#e3e5e9" stroke="#9aa0a6" stroke-width="1.3" d="M332.48,-492C332.48,-492 302.48,-492 302.48,-492 296.48,-492 290.48,-486 290.48,-480 290.48,-480 290.48,-468 290.48,-468 290.48,-462 296.48,-456 302.48,-456 302.48,-456 332.48,-456 332.48,-456 338.48,-456 344.48,-462 344.48,-468 344.48,-468 344.48,-480 344.48,-480 344.48,-486 338.48,-492 332.48,-492"/>
<text text-anchor="start" x="307.98" y="-476.1" font-family="Helvetica,sans-Serif" font-weight="bold" font-size="13.00" fill="#1d1b16">V9</text>
<text text-anchor="start" x="304.98" y="-465.5" font-family="Helvetica,sans-Serif" font-size="10.00" fill="#1d1b16">1.1%</text>
</g>
<!-- TRAP2 -->
<g id="node18" class="node">
<title>TRAP2</title>
<path fill="#d3f1e9" stroke="#1aa39a" stroke-width="1.3" d="M338.48,-416C338.48,-416 296.48,-416 296.48,-416 290.48,-416 284.48,-410 284.48,-404 284.48,-404 284.48,-392 284.48,-392 284.48,-386 290.48,-380 296.48,-380 296.48,-380 338.48,-380 338.48,-380 344.48,-380 350.48,-386 350.48,-392 350.48,-392 350.48,-404 350.48,-404 350.48,-410 344.48,-416 338.48,-416"/>
<text text-anchor="start" x="293.48" y="-400.1" font-family="Helvetica,sans-Serif" font-weight="bold" font-size="13.00" fill="#1d1b16">TRAP2</text>
<text text-anchor="start" x="304.98" y="-389.5" font-family="Helvetica,sans-Serif" font-size="10.00" fill="#1d1b16">2.3%</text>
</g>
<!-- V9&#45;&gt;TRAP2 -->
<g id="edge20" class="edge">
<title>V9&#45;&gt;TRAP2</title>
<path fill="none" stroke="#a89f90" stroke-width="1.1" d="M317.48,-455.84C317.48,-446.12 317.48,-433.82 317.48,-423.15"/>
<polygon fill="#a89f90" stroke="#a89f90" stroke-width="1.1" points="319.93,-423.07 317.48,-416.07 315.03,-423.07 319.93,-423.07"/>
</g>
<!-- V1 -->
<g id="node19" class="node">
<title>V1</title>
<path fill="#e3e5e9" stroke="#9aa0a6" stroke-width="1.3" d="M406.48,-492C406.48,-492 376.48,-492 376.48,-492 370.48,-492 364.48,-486 364.48,-480 364.48,-480 364.48,-468 364.48,-468 364.48,-462 370.48,-456 376.48,-456 376.48,-456 406.48,-456 406.48,-456 412.48,-456 418.48,-462 418.48,-468 418.48,-468 418.48,-480 418.48,-480 418.48,-486 412.48,-492 406.48,-492"/>
<text text-anchor="start" x="381.98" y="-476.1" font-family="Helvetica,sans-Serif" font-weight="bold" font-size="13.00" fill="#1d1b16">V1</text>
<text text-anchor="start" x="378.98" y="-465.5" font-family="Helvetica,sans-Serif" font-size="10.00" fill="#1d1b16">1.1%</text>
</g>
<!-- FD1 -->
<g id="node21" class="node">
<title>FD1</title>
<path fill="#d9e7fc" stroke="#3d7bd6" stroke-width="1.3" d="M446.48,-416C446.48,-416 416.48,-416 416.48,-416 410.48,-416 404.48,-410 404.48,-404 404.48,-404 404.48,-392 404.48,-392 404.48,-386 410.48,-380 416.48,-380 416.48,-380 446.48,-380 446.48,-380 452.48,-380 458.48,-386 458.48,-392 458.48,-392 458.48,-404 458.48,-404 458.48,-410 452.48,-416 446.48,-416"/>
<text text-anchor="start" x="416.98" y="-400.1" font-family="Helvetica,sans-Serif" font-weight="bold" font-size="13.00" fill="#1d1b16">FD1</text>
<text text-anchor="start" x="418.98" y="-389.5" font-family="Helvetica,sans-Serif" font-size="10.00" fill="#1d1b16">3.4%</text>
</g>
<!-- V1&#45;&gt;FD1 -->
<g id="edge21" class="edge">
<title>V1&#45;&gt;FD1</title>
<path fill="none" stroke="#a89f90" stroke-width="1.1" d="M400.76,-455.84C406.11,-445.94 412.91,-433.35 418.76,-422.53"/>
<polygon fill="#a89f90" stroke="#a89f90" stroke-width="1.1" points="421.08,-423.39 422.25,-416.07 416.77,-421.06 421.08,-423.39"/>
</g>
<!-- V2 -->
<g id="node20" class="node">
<title>V2</title>
<path fill="#e3e5e9" stroke="#9aa0a6" stroke-width="1.3" d="M480.48,-492C480.48,-492 450.48,-492 450.48,-492 444.48,-492 438.48,-486 438.48,-480 438.48,-480 438.48,-468 438.48,-468 438.48,-462 444.48,-456 450.48,-456 450.48,-456 480.48,-456 480.48,-456 486.48,-456 492.48,-462 492.48,-468 492.48,-468 492.48,-480 492.48,-480 492.48,-486 486.48,-492 480.48,-492"/>
<text text-anchor="start" x="455.98" y="-476.1" font-family="Helvetica,sans-Serif" font-weight="bold" font-size="13.00" fill="#1d1b16">V2</text>
<text text-anchor="start" x="452.98" y="-465.5" font-family="Helvetica,sans-Serif" font-size="10.00" fill="#1d1b16">1.1%</text>
</g>
<!-- V2&#45;&gt;FD1 -->
<g id="edge22" class="edge">
<title>V2&#45;&gt;FD1</title>
<path fill="none" stroke="#a89f90" stroke-width="1.1" d="M457.59,-455.84C453.04,-445.94 447.26,-433.35 442.29,-422.53"/>
<polygon fill="#a89f90" stroke="#a89f90" stroke-width="1.1" points="444.47,-421.41 439.32,-416.07 440.02,-423.45 444.47,-421.41"/>
</g>
<!-- RF1 -->
<g id="node23" class="node">
<title>RF1</title>
<path fill="#d9e7fc" stroke="#3d7bd6" stroke-width="1.3" d="M554.48,-492C554.48,-492 524.48,-492 524.48,-492 518.48,-492 512.48,-486 512.48,-480 512.48,-480 512.48,-468 512.48,-468 512.48,-462 518.48,-456 524.48,-456 524.48,-456 554.48,-456 554.48,-456 560.48,-456 566.48,-462 566.48,-468 566.48,-468 566.48,-480 566.48,-480 566.48,-486 560.48,-492 554.48,-492"/>
<text text-anchor="start" x="525.48" y="-476.1" font-family="Helvetica,sans-Serif" font-weight="bold" font-size="13.00" fill="#1d1b16">RF1</text>
<text text-anchor="start" x="526.98" y="-465.5" font-family="Helvetica,sans-Serif" font-size="10.00" fill="#1d1b16">1.1%</text>
</g>
</g>
</svg>
