<?xml version="1.0" encoding="UTF-8" standalone="no"?>
<!DOCTYPE svg PUBLIC "-//W3C//DTD SVG 1.1//EN"
 "http://www.w3.org/Graphics/SVG/1.1/DTD/svg11.dtd">
<!-- Generated by graphviz version 2.43.0 (0)
 -->
<!-- Title: %3 Pages: 1 -->
<svg width="561pt" height="500pt"
 viewBox="0.00 0.00 561.00 500.00" xmlns="http://www.w3.org/2000/svg" xmlns:xlink="http://www.w3.org/1999/xlink">
<g id="graph0" class="graph" transform="scale(1 1) rotate(0) translate(4 496)">
<title>%3</title>
<!-- V1 -->
<g id="node1" class="node">
<title>V1</title>
<path fill="#e3e5e9" stroke="#9aa0a6" stroke-width="1.3" d="M122,-492C122,-492 92,-492 92,-492 86,-492 80,-486 80,-480 80,-480 80,-468 80,-468 80,-462 86,-456 92,-456 92,-456 122,-456 122,-456 128,-456 134,-462 134,-468 134,-468 134,-480 134,-480 134,-486 128,-492 122,-492"/>
<text text-anchor="start" x="97.5" y="-476.1" font-family="Helvetica,sans-Serif" font-weight="bold" font-size="13.00" fill="#1d1b16">V1</text>
<text text-anchor="start" x="94.5" y="-465.5" font-family="Helvetica,sans-Serif" font-size="10.00" fill="#1d1b16">0.8%</text>
</g>
<!-- DI1 -->
<g id="node2" class="node">
<title>DI1</title>
<path fill="#e6e0f8" stroke="#7c6bd6" stroke-width="1.3" d="M42,-416C42,-416 12,-416 12,-416 6,-416 0,-410 0,-404 0,-404 0,-392 0,-392 0,-386 6,-380 12,-380 12,-380 42,-380 42,-380 48,-380 54,-386 54,-392 54,-392 54,-404 54,-404 54,-410 48,-416 42,-416"/>
<text text-anchor="start" x="14.5" y="-400.1" font-family="Helvetica,sans-Serif" font-weight="bold" font-size="13.00" fill="#1d1b16">DI1</text>
<text text-anchor="start" x="14.5" y="-389.5" font-family="Helvetica,sans-Serif" font-size="10.00" fill="#1d1b16">1.6%</text>
</g>
<!-- V1&#45;&gt;DI1 -->
<g id="edge1" class="edge">
<title>V1&#45;&gt;DI1</title>
<path fill="none" stroke="#a89f90" stroke-width="1.1" d="M88.45,-455.84C77.24,-445.47 62.84,-432.15 50.8,-421.02"/>
<polygon fill="#a89f90" stroke="#a89f90" stroke-width="1.1" points="52.26,-419.02 45.45,-416.07 48.93,-422.62 52.26,-419.02"/>
</g>
<!-- TRAP1 -->
<g id="node3" class="node">
<title>TRAP1</title>
<path fill="#d3f1e9" stroke="#1aa39a" stroke-width="1.3" d="M128,-416C128,-416 86,-416 86,-416 80,-416 74,-410 74,-404 74,-404 74,-392 74,-392 74,-386 80,-380 86,-380 86,-380 128,-380 128,-380 134,-380 140,-386 140,-392 140,-392 140,-404 140,-404 140,-410 134,-416 128,-416"/>
<text text-anchor="start" x="83" y="-400.1" font-family="Helvetica,sans-Serif" font-weight="bold" font-size="13.00" fill="#1d1b16">TRAP1</text>
<text text-anchor="start" x="94.5" y="-389.5" font-family="Helvetica,sans-Serif" font-size="10.00" fill="#1d1b16">1.6%</text>
</g>
<!-- V1&#45;&gt;TRAP1 -->
<g id="edge2" class="edge">
<title>V1&#45;&gt;TRAP1</title>
<path fill="none" stroke="#a89f90" stroke-width="1.1" d="M107,-455.84C107,-446.12 107,-433.82 107,-423.15"/>
<polygon fill="#a89f90" stroke="#a89f90" stroke-width="1.1" points="109.45,-423.07 107,-416.07 104.55,-423.07 109.45,-423.07"/>
</g>
<!-- EP_LC -->
<g id="node4" class="node">
<title>EP_LC</title>
<path fill="#e6e0f8" stroke="#7c6bd6" stroke-width="1.3" d="M210,-416C210,-416 172,-416 172,-416 166,-416 160,-410 160,-404 160,-404 160,-392 160,-392 160,-386 166,-380 172,-380 172,-380 210,-380 210,-380 216,-380 222,-386 222,-392 222,-392 222,-404 222,-404 222,-410 216,-416 210,-416"/>
<text text-anchor="start" x="169" y="-400.1" font-family="Helvetica,sans-Serif" font-weight="bold" font-size="13.00" fill="#1d1b16">EP_LC</text>
<text text-anchor="start" x="178.5" y="-389.5" font-family="Helvetica,sans-Serif" font-size="10.00" fill="#1d1b16">1.6%</text>
</g>
<!-- V1&#45;&gt;EP_LC -->
<g id="edge3" class="edge">
<title>V1&#45;&gt;EP_LC</title>
<path fill="none" stroke="#a89f90" stroke-width="1.1" d="M126.48,-455.84C138.36,-445.38 153.64,-431.91 166.35,-420.71"/>
<polygon fill="#a89f90" stroke="#a89f90" stroke-width="1.1" points="167.99,-422.54 171.62,-416.07 164.75,-418.86 167.99,-422.54"/>
</g>
<!-- V4 -->
<g id="node5" class="node">
<title>V4</title>
<path fill="#e6e0f8" stroke="#7c6bd6" stroke-width="1.3" d="M73,-340C73,-340 43,-340 43,-340 37,-340 31,-334 31,-328 31,-328 31,-316 31,-316 31,-310 37,-304 43,-304 43,-304 73,-304 73,-304 79,-304 85,-310 85,-316 85,-316 85,-328 85,-328 85,-334 79,-340 73,-340"/>
<text text-anchor="start" x="48.5" y="-324.1" font-family="Helvetica,sans-Serif" font-weight="bold" font-size="13.00" fill="#1d1b16">V4</text>
<text text-anchor="start" x="45.5" y="-313.5" font-family="Helvetica,sans-Serif" font-size="10.00" fill="#1d1b16">2.5%</text>
</g>
<!-- EP_LC&#45;&gt;V4 -->
<g id="edge4" class="edge">
<title>EP_LC&#45;&gt;V4</title>
<path fill="none" stroke="#a89f90" stroke-width="1.1" d="M160.15,-379.84C139.57,-368.38 112.51,-353.33 91.42,-341.59"/>
<polygon fill="#a89f90" stroke="#a89f90" stroke-width="1.1" points="92.38,-339.33 85.07,-338.06 90,-343.61 92.38,-339.33"/>
</g>
<!-- EP_QC -->
<g id="node9" class="node">
<title>EP_QC</title>
<path fill="#e6e0f8" stroke="#7c6bd6" stroke-width="1.3" d="M200.5,-340C200.5,-340 159.5,-340 159.5,-340 153.5,-340 147.5,-334 147.5,-328 147.5,-328 147.5,-316 147.5,-316 147.5,-310 153.5,-304 159.5,-304 159.5,-304 200.5,-304 200.5,-304 206.5,-304 212.5,-310 212.5,-316 212.5,-316 212.5,-328 212.5,-328 212.5,-334 206.5,-340 200.5,-340"/>
<text text-anchor="start" x="156.5" y="-324.1" font-family="Helvetica,sans-Serif" font-weight="bold" font-size="13.00" fill="#1d1b16">EP_QC</text>
<text text-anchor="start" x="167.5" y="-313.5" font-family="Helvetica,sans-Serif" font-size="10.00" fill="#1d1b16">0.8%</text>
</g>
<!-- EP_LC&#45;&gt;EP_QC -->
<g id="edge5" class="edge">
<title>EP_LC&#45;&gt;EP_QC</title>
<path fill="none" stroke="#a89f90" stroke-width="1.1" d="M188.45,-379.84C187,-370.12 185.18,-357.82 183.59,-347.15"/>
<polygon fill="#a89f90" stroke="#a89f90" stroke-width="1.1" points="185.99,-346.63 182.54,-340.07 181.14,-347.35 185.99,-346.63"/>
</g>
<!-- EP_WC -->
<g id="node10" class="node">
<title>EP_WC</title>
<path fill="#e6e0f8" stroke="#7c6bd6" stroke-width="1.3" d="M409,-340C409,-340 365,-340 365,-340 359,-340 353,-334 353,-328 353,-328 353,-316 353,-316 353,-310 359,-304 365,-304 365,-304 409,-304 409,-304 415,-304 421,-310 421,-316 421,-316 421,-328 421,-328 421,-334 415,-340 409,-340"/>
<text text-anchor="start" x="362" y="-324.1" font-family="Helvetica,sans-Serif" font-weight="bold" font-size="13.00" fill="#1d1b16">EP_WC</text>
<text text-anchor="start" x="374.5" y="-313.5" font-family="Helvetica,sans-Serif" font-size="10.00" fill="#1d1b16">2.5%</text>
</g>
<!-- EP_LC&#45;&gt;EP_WC -->
<g id="edge6" class="edge">
<title>EP_LC&#45;&gt;EP_WC</title>
<path fill="none" stroke="#a89f90" stroke-width="1.1" d="M222.18,-385.41C252.93,-373.96 301.25,-355.89 343,-340 344.1,-339.58 345.23,-339.15 346.36,-338.72"/>
<polygon fill="#a89f90" stroke="#a89f90" stroke-width="1.1" points="347.24,-341 352.9,-336.21 345.49,-336.43 347.24,-341"/>
</g>
<!-- EP_IC -->
<g id="node11" class="node">
<title>EP_IC</title>
<path fill="#e6e0f8" stroke="#7c6bd6" stroke-width="1.3" d="M321,-340C321,-340 287,-340 287,-340 281,-340 275,-334 275,-328 275,-328 275,-316 275,-316 275,-310 281,-304 287,-304 287,-304 321,-304 321,-304 327,-304 333,-310 333,-316 333,-316 333,-328 333,-328 333,-334 327,-340 321,-340"/>
<text text-anchor="start" x="284" y="-324.1" font-family="Helvetica,sans-Serif" font-weight="bold" font-size="13.00" fill="#1d1b16">EP_IC</text>
<text text-anchor="start" x="291.5" y="-313.5" font-family="Helvetica,sans-Serif" font-size="10.00" fill="#1d1b16">2.5%</text>
</g>
<!-- EP_LC&#45;&gt;EP_IC -->
<g id="edge9" class="edge">
<title>EP_LC&#45;&gt;EP_IC</title>
<path fill="none" stroke="#a89f90" stroke-width="1.1" d="M217.21,-379.84C233.47,-369.19 254.48,-355.43 271.75,-344.12"/>
<polygon fill="#a89f90" stroke="#a89f90" stroke-width="1.1" points="273.42,-345.95 277.93,-340.07 270.74,-341.86 273.42,-345.95"/>
</g>
<!-- V2 -->
<g id="node13" class="node">
<title>V2</title>
<path fill="#f8d9d6" stroke="#e0625b" stroke-width="1.3" d="M211,-264C211,-264 181,-264 181,-264 175,-264 169,-258 169,-252 169,-252 169,-240 169,-240 169,-234 175,-228 181,-228 181,-228 211,-228 211,-228 217,-228 223,-234 223,-240 223,-240 223,-252 223,-252 223,-258 217,-264 211,-264"/>
<text text-anchor="start" x="186.5" y="-248.1" font-family="Helvetica,sans-Serif" font-weight="bold" font-size="13.00" fill="#1d1b16">V2</text>
<text text-anchor="start" x="183.5" y="-237.5" font-family="Helvetica,sans-Serif" font-size="10.00" fill="#1d1b16">8.2%</text>
</g>
<!-- EP_LC&#45;&gt;V2 -->
<g id="edge13" class="edge">
<title>EP_LC&#45;&gt;V2</title>
<path fill="none" stroke="#a89f90" stroke-width="1.1" d="M168.01,-379.93C156.33,-369.79 143.31,-355.83 137,-340 131.08,-325.14 130.75,-318.73 137,-304 142.83,-290.27 153.76,-278.23 164.65,-268.8"/>
<polygon fill="#a89f90" stroke="#a89f90" stroke-width="1.1" points="166.48,-270.46 170.31,-264.11 163.36,-266.69 166.48,-270.46"/>
</g>
<!-- V3 -->
<g id="node14" class="node">
<title>V3</title>
<path fill="#f8d9d6" stroke="#e0625b" stroke-width="1.3" d="M285,-264C285,-264 255,-264 255,-264 249,-264 243,-258 243,-252 243,-252 243,-240 243,-240 243,-234 249,-228 255,-228 255,-228 285,-228 285,-228 291,-228 297,-234 297,-240 297,-240 297,-252 297,-252 297,-258 291,-264 285,-264"/>
<text text-anchor="start" x="260.5" y="-248.1" font-family="Helvetica,sans-Serif" font-weight="bold" font-size="13.00" fill="#1d1b16">V3</text>
<text text-anchor="start" x="257.5" y="-237.5" font-family="Helvetica,sans-Serif" font-size="10.00" fill="#1d1b16">7.4%</text>
</g>
<!-- EP_LC&#45;&gt;V3 -->
<g id="edge18" class="edge">
<title>EP_LC&#45;&gt;V3</title>
<path fill="none" stroke="#a89f90" stroke-width="1.1" d="M200.46,-379.84C206.65,-368.55 214.88,-353.44 222,-340 234.43,-316.55 248.3,-289.58 257.92,-270.75"/>
<polygon fill="#a89f90" stroke="#a89f90" stroke-width="1.1" points="260.26,-271.55 261.26,-264.2 255.9,-269.32 260.26,-271.55"/>
</g>
<!-- TRAP2 -->
<g id="node12" class="node">
<title>TRAP2</title>
<path fill="#d3f1e9" stroke="#1aa39a" stroke-width="1.3" d="M63,-264C63,-264 21,-264 21,-264 15,-264 9,-258 9,-252 9,-252 9,-240 9,-240 9,-234 15,-228 21,-228 21,-228 63,-228 63,-228 69,-228 75,-234 75,-240 75,-240 75,-252 75,-252 75,-258 69,-264 63,-264"/>
<text text-anchor="start" x="18" y="-248.1" font-family="Helvetica,sans-Serif" font-weight="bold" font-size="13.00" fill="#1d1b16">TRAP2</text>
<text text-anchor="start" x="29.5" y="-237.5" font-family="Helvetica,sans-Serif" font-size="10.00" fill="#1d1b16">3.3%</text>
</g>
<!-- V4&#45;&gt;TRAP2 -->
<g id="edge12" class="edge">
<title>V4&#45;&gt;TRAP2</title>
<path fill="none" stroke="#a89f90" stroke-width="1.1" d="M54.29,-303.84C52.19,-294.12 49.53,-281.82 47.22,-271.15"/>
<polygon fill="#a89f90" stroke="#a89f90" stroke-width="1.1" points="49.56,-270.39 45.69,-264.07 44.78,-271.43 49.56,-270.39"/>
</g>
<!-- V4&#45;&gt;V2 -->
<g id="edge17" class="edge">
<title>V4&#45;&gt;V2</title>
<path fill="none" stroke="#a89f90" stroke-width="1.1" d="M85.26,-306.38C107.38,-294.52 138.65,-277.75 162.33,-265.05"/>
<polygon fill="#a89f90" stroke="#a89f90" stroke-width="1.1" points="163.78,-267.06 168.79,-261.59 161.47,-262.74 163.78,-267.06"/>
</g>
<!-- V5 -->
<g id="node6" class="node">
<title>V5</title>
<path fill="#e3e5e9" stroke="#9aa0a6" stroke-width="1.3" d="M455,-416C455,-416 425,-416 425,-416 419,-416 413,-410 413,-404 413,-404 413,-392 413,-392 413,-386 419,-380 425,-380 425,-380 455,-380 455,-380 461,-380 467,-386 467,-392 467,-392 467,-404 467,-404 467,-410 461,-416 455,-416"/>
<text text-anchor="start" x="430.5" y="-400.1" font-family="Helvetica,sans-Serif" font-weight="bold" font-size="13.00" fill="#1d1b16">V5</text>
<text text-anchor="start" x="427.5" y="-389.5" font-family="Helvetica,sans-Serif" font-size="10.00" fill="#1d1b16">0.8%</text>
</g>
<!-- V5&#45;&gt;EP_WC -->
<g id="edge7" class="edge">
<title>V5&#45;&gt;EP_WC</title>
<path fill="none" stroke="#a89f90" stroke-width="1.1" d="M427.71,-379.84C420.48,-369.75 411.26,-356.87 403.42,-345.92"/>
<polygon fill="#a89f90" stroke="#a89f90" stroke-width="1.1" points="405.29,-344.33 399.23,-340.07 401.31,-347.19 405.29,-344.33"/>
</g>
<!-- V6 -->
<g id="node7" class="node">
<title>V6</title>
<path fill="#e3e5e9" stroke="#9aa0a6" stroke-width="1.3" d="M307,-416C307,-416 277,-416 277,-416 271,-416 265,-410 265,-404 265,-404 265,-392 265,-392 265,-386 271,-380 277,-380 277,-380 307,-380 307,-380 313,-380 319,-386 319,-392 319,-392 319,-404 319,-404 319,-410 313,-416 307,-416"/>
<text text-anchor="start" x="282.5" y="-400.1" font-family="Helvetica,sans-Serif" font-weight="bold" font-size="13.00" fill="#1d1b16">V6</text>
<text text-anchor="start" x="279.5" y="-389.5" font-family="Helvetica,sans-Serif" font-size="10.00" fill="#1d1b16">0.8%</text>
</g>
<!-- V6&#45;&gt;EP_IC -->
<g id="edge10" class="edge">
<title>V6&#45;&gt;EP_IC</title>
<path fill="none" stroke="#a89f90" stroke-width="1.1" d="M294.78,-379.84C296.36,-370.12 298.35,-357.82 300.08,-347.15"/>
<polygon fill="#a89f90" stroke="#a89f90" stroke-width="1.1" points="302.53,-347.37 301.23,-340.07 297.69,-346.59 302.53,-347.37"/>
</g>
<!-- V7 -->
<g id="node8" class="node">
<title>V7</title>
<path fill="#e3e5e9" stroke="#9aa0a6" stroke-width="1.3" d="M381,-416C381,-416 351,-416 351,-416 345,-416 339,-410 339,-404 339,-404 339,-392 339,-392 339,-386 345,-380 351,-380 351,-380 381,-380 381,-380 387,-380 393,-386 393,-392 393,-392 393,-404 393,-404 393,-410 387,-416 381,-416"/>
<text text-anchor="start" x="356.5" y="-400.1" font-family="Helvetica,sans-Serif" font-weight="bold" font-size="13.00" fill="#1d1b16">V7</text>
<text text-anchor="start" x="353.5" y="-389.5" font-family="Helvetica,sans-Serif" font-size="10.00" fill="#1d1b16">0.8%</text>
</g>
<!-- V7&#45;&gt;EP_WC -->
<g id="edge8" class="edge">
<title>V7&#45;&gt;EP_WC</title>
<path fill="none" stroke="#a89f90" stroke-width="1.1" d="M370.87,-379.84C373.65,-370.03 377.19,-357.58 380.23,-346.84"/>
<polygon fill="#a89f90" stroke="#a89f90" stroke-width="1.1" points="382.6,-347.47 382.16,-340.07 377.89,-346.14 382.6,-347.47"/>
</g>
<!-- V7&#45;&gt;EP_IC -->
<g id="edge11" class="edge">
<title>V7&#45;&gt;EP_IC</title>
<path fill="none" stroke="#a89f90" stroke-width="1.1" d="M351.62,-379.84C343.09,-369.66 332.18,-356.63 322.95,-345.62"/>
<polygon fill="#a89f90" stroke="#a89f90" stroke-width="1.1" points="324.68,-343.86 318.3,-340.07 320.92,-347.01 324.68,-343.86"/>
</g>
<!-- EP_QC&#45;&gt;V2 -->
<g id="edge14" class="edge">
<title>EP_QC&#45;&gt;V2</title>
<path fill="none" stroke="#a89f90" stroke-width="1.1" d="M183.71,-303.84C185.81,-294.12 188.47,-281.82 190.78,-271.15"/>
<polygon fill="#a89f90" stroke="#a89f90" stroke-width="1.1" points="193.22,-271.43 192.31,-264.07 188.44,-270.39 193.22,-271.43"/>
</g>
<!-- EP_QC&#45;&gt;V3 -->
<g id="edge19" class="edge">
<title>EP_QC&#45;&gt;V3</title>
<path fill="none" stroke="#a89f90" stroke-width="1.1" d="M200.87,-303.84C213.6,-293.38 229.97,-279.91 243.59,-268.71"/>
<polygon fill="#a89f90" stroke="#a89f90" stroke-width="1.1" points="245.39,-270.41 249.24,-264.07 242.28,-266.62 245.39,-270.41"/>
</g>
<!-- EP_WC&#45;&gt;V2 -->
<g id="edge15" class="edge">
<title>EP_WC&#45;&gt;V2</title>
<path fill="none" stroke="#a89f90" stroke-width="1.1" d="M352.92,-307.75C349.57,-306.48 346.22,-305.21 343,-304 294.29,-285.74 281.12,-283.76 233,-264 232.02,-263.6 231.03,-263.18 230.03,-262.76"/>
<polygon fill="#a89f90" stroke="#a89f90" stroke-width="1.1" points="230.77,-260.41 223.37,-259.88 228.82,-264.91 230.77,-260.41"/>
</g>
<!-- EP_WC&#45;&gt;V3 -->
<g id="edge20" class="edge">
<title>EP_WC&#45;&gt;V3</title>
<path fill="none" stroke="#a89f90" stroke-width="1.1" d="M359.86,-303.84C342.88,-293.1 320.89,-279.19 302.92,-267.82"/>
<polygon fill="#a89f90" stroke="#a89f90" stroke-width="1.1" points="304.21,-265.74 296.99,-264.07 301.6,-269.88 304.21,-265.74"/>
</g>
<!-- EP_IC&#45;&gt;V2 -->
<g id="edge16" class="edge">
<title>EP_IC&#45;&gt;V2</title>
<path fill="none" stroke="#a89f90" stroke-width="1.1" d="M278.95,-303.84C263.41,-293.19 243.33,-279.43 226.82,-268.12"/>
<polygon fill="#a89f90" stroke="#a89f90" stroke-width="1.1" points="228.07,-266.01 220.91,-264.07 225.3,-270.05 228.07,-266.01"/>
</g>
<!-- EP_IC&#45;&gt;V3 -->
<g id="edge21" class="edge">
<title>EP_IC&#45;&gt;V3</title>
<path fill="none" stroke="#a89f90" stroke-width="1.1" d="M296.11,-303.84C291.57,-293.94 285.78,-281.35 280.81,-270.53"/>
<polygon fill="#a89f90" stroke="#a89f90" stroke-width="1.1" points="282.99,-269.41 277.84,-264.07 278.54,-271.45 282.99,-269.41"/>
</g>
<!-- V9 -->
<g id="node16" class="node">
<title>V9</title>
<path fill="#f8d9d6" stroke="#e0625b" stroke-width="1.3" d="M211,-188C211,-188 181,-188 181,-188 175,-188 169,-182 169,-176 169,-176 169,-164 169,-164 169,-158 175,-152 181,-152 181,-152 211,-152 211,-152 217,-152 223,-158 223,-164 223,-164 223,-176 223,-176 223,-182 217,-188 211,-188"/>
<text text-anchor="start" x="186.5" y="-172.1" font-family="Helvetica,sans-Serif" font-weight="bold" font-size="13.00" fill="#1d1b16">V9</text>
<text text-anchor="start" x="180.5" y="-161.5" font-family="Helvetica,sans-Serif" font-size="10.00" fill="#1d1b16">10.7%</text>
</g>
<!-- V2&#45;&gt;V9 -->
<g id="edge22" class="edge">
<title>V2&#45;&gt;V9</title>
<path fill="none" stroke="#a89f90" stroke-width="1.1" d="M196,-227.84C196,-218.12 196,-205.82 196,-195.15"/>
<polygon fill="#a89f90" stroke="#a89f90" stroke-width="1.1" points="198.45,-195.07 196,-188.07 193.55,-195.07 198.45,-195.07"/>
</g>
<!-- FD3 -->
<g id="node21" class="node">
<title>FD3</title>
<path fill="#d9e7fc" stroke="#3d7bd6" stroke-width="1.3" d="M285,-188C285,-188 255,-188 255,-188 249,-188 243,-182 243,-176 243,-176 243,-164 243,-164 243,-158 249,-152 255,-152 255,-152 285,-152 285,-152 291,-152 297,-158 297,-164 297,-164 297,-176 297,-176 297,-182 291,-188 285,-188"/>
<text text-anchor="start" x="255.5" y="-172.1" font-family="Helvetica,sans-Serif" font-weight="bold" font-size="13.00" fill="#1d1b16">FD3</text>
<text text-anchor="start" x="254.5" y="-161.5" font-family="Helvetica,sans-Serif" font-size="10.00" fill="#1d1b16">10.7%</text>
</g>
<!-- V2&#45;&gt;FD3 -->
<g id="edge29" class="edge">
<title>V2&#45;&gt;FD3</title>
<path fill="none" stroke="#a89f90" stroke-width="1.1" d="M213.16,-227.84C223.44,-217.56 236.61,-204.39 247.68,-193.32"/>
<polygon fill="#a89f90" stroke="#a89f90" stroke-width="1.1" points="249.71,-194.75 252.93,-188.07 246.25,-191.29 249.71,-194.75"/>
</g>
<!-- V3&#45;&gt;V9 -->
<g id="edge23" class="edge">
<title>V3&#45;&gt;V9</title>
<path fill="none" stroke="#a89f90" stroke-width="1.1" d="M252.84,-227.84C242.56,-217.56 229.39,-204.39 218.32,-193.32"/>
<polygon fill="#a89f90" stroke="#a89f90" stroke-width="1.1" points="219.75,-191.29 213.07,-188.07 216.29,-194.75 219.75,-191.29"/>
</g>
<!-- V3&#45;&gt;FD3 -->
<g id="edge30" class="edge">
<title>V3&#45;&gt;FD3</title>
<path fill="none" stroke="#a89f90" stroke-width="1.1" d="M270,-227.84C270,-218.12 270,-205.82 270,-195.15"/>
<polygon fill="#a89f90" stroke="#a89f90" stroke-width="1.1" points="272.45,-195.07 270,-188.07 267.55,-195.07 272.45,-195.07"/>
</g>
<!-- V8 -->
<g id="node15" class="node">
<title>V8</title>
<path fill="#e3e5e9" stroke="#9aa0a6" stroke-width="1.3" d="M137,-264C137,-264 107,-264 107,-264 101,-264 95,-258 95,-252 95,-252 95,-240 95,-240 95,-234 101,-228 107,-228 107,-228 137,-228 137,-228 143,-228 149,-234 149,-240 149,-240 149,-252 149,-252 149,-258 143,-264 137,-264"/>
<text text-anchor="start" x="112.5" y="-248.1" font-family="Helvetica,sans-Serif" font-weight="bold" font-size="13.00" fill="#1d1b16">V8</text>
<text text-anchor="start" x="109.5" y="-237.5" font-family="Helvetica,sans-Serif" font-size="10.00" fill="#1d1b16">0.8%</text>
</g>
<!-- V8&#45;&gt;V9 -->
<g id="edge24" class="edge">
<title>V8&#45;&gt;V9</title>
<path fill="none" stroke="#a89f90" stroke-width="1.1" d="M139.16,-227.84C149.44,-217.56 162.61,-204.39 173.68,-193.32"/>
<polygon fill="#a89f90" stroke="#a89f90" stroke-width="1.1" points="175.71,-194.75 178.93,-188.07 172.25,-191.29 175.71,-194.75"/>
</g>
<!-- V10 -->
<g id="node17" class="node">
<title>V10</title>
<path fill="#f8d9d6" stroke="#e0625b" stroke-width="1.3" d="M211,-112C211,-112 181,-112 181,-112 175,-112 169,-106 169,-100 169,-100 169,-88 169,-88 169,-82 175,-76 181,-76 181,-76 211,-76 211,-76 217,-76 223,-82 223,-88 223,-88 223,-100 223,-100 223,-106 217,-112 211,-112"/>
<text text-anchor="start" x="182" y="-96.1" font-family="Helvetica,sans-Serif" font-weight="bold" font-size="13.00" fill="#1d1b16">V10</text>
<text text-anchor="start" x="180.5" y="-85.5" font-family="Helvetica,sans-Serif" font-size="10.00" fill="#1d1b16">11.5%</text>
</g>
<!-- V9&#45;&gt;V10 -->
<g id="edge25" class="edge">
<title>V9&#45;&gt;V10</title>
<path fill="none" stroke="#a89f90" stroke-width="1.1" d="M196,-151.84C196,-142.12 196,-129.82 196,-119.15"/>
<polygon fill="#a89f90" stroke="#a89f90" stroke-width="1.1" points="198.45,-119.07 196,-112.07 193.55,-119.07 198.45,-119.07"/>
</g>
<!-- FD4 -->
<g id="node22" class="node">
<title>FD4</title>
<path fill="#d9e7fc" stroke="#3d7bd6" stroke-width="1.3" d="M277,-36C277,-36 247,-36 247,-36 241,-36 235,-30 235,-24 235,-24 235,-12 235,-12 235,-6 241,0 247,0 247,0 277,0 277,0 283,0 289,-6 289,-12 289,-12 289,-24 289,-24 289,-30 283,-36 277,-36"/>
<text text-anchor="start" x="247.5" y="-20.1" font-family="Helvetica,sans-Serif" font-weight="bold" font-size="13.00" fill="#1d1b16">FD4</text>
<text text-anchor="start" x="246.5" y="-9.5" font-family="Helvetica,sans-Serif" font-size="10.00" fill="#1d1b16">13.2%</text>
</g>
<!-- V9&#45;&gt;FD4 -->
<g id="edge32" class="edge">
<title>V9&#45;&gt;FD4</title>
<path fill="none" stroke="#a89f90" stroke-width="1.1" d="M208.97,-151.76C216.75,-140.81 226.38,-126.1 233,-112 243.52,-89.6 251.49,-62.43 256.38,-43.25"/>
<polygon fill="#a89f90" stroke="#a89f90" stroke-width="1.1" points="258.79,-43.71 258.11,-36.32 254.04,-42.52 258.79,-43.71"/>
</g>
<!-- V11 -->
<g id="node18" class="node">
<title>V11</title>
<path fill="#f9e9c9" stroke="#d99a16" stroke-width="1.3" d="M203,-36C203,-36 173,-36 173,-36 167,-36 161,-30 161,-24 161,-24 161,-12 161,-12 161,-6 167,0 173,0 173,0 203,0 203,0 209,0 215,-6 215,-12 215,-12 215,-24 215,-24 215,-30 209,-36 203,-36"/>
<text text-anchor="start" x="174" y="-20.1" font-family="Helvetica,sans-Serif" font-weight="bold" font-size="13.00" fill="#1d1b16">V11</text>
<text text-anchor="start" x="172.5" y="-9.5" font-family="Helvetica,sans-Serif" font-size="10.00" fill="#1d1b16">12.3%</text>
</g>
<!-- V10&#45;&gt;V11 -->
<g id="edge26" class="edge">
<title>V10&#45;&gt;V11</title>
<path fill="none" stroke="#a89f90" stroke-width="1.1" d="M194.14,-75.84C193.09,-66.12 191.76,-53.82 190.61,-43.15"/>
<polygon fill="#a89f90" stroke="#a89f90" stroke-width="1.1" points="193.03,-42.77 189.85,-36.07 188.16,-43.29 193.03,-42.77"/>
</g>
<!-- V10&#45;&gt;FD4 -->
<g id="edge33" class="edge">
<title>V10&#45;&gt;FD4</title>
<path fill="none" stroke="#a89f90" stroke-width="1.1" d="M211.31,-75.84C220.47,-65.56 232.22,-52.39 242.1,-41.32"/>
<polygon fill="#a89f90" stroke="#a89f90" stroke-width="1.1" points="243.94,-42.92 246.78,-36.07 240.29,-39.66 243.94,-42.92"/>
</g>
<!-- FD1 -->
<g id="node19" class="node">
<title>FD1</title>
<path fill="#d9e7fc" stroke="#3d7bd6" stroke-width="1.3" d="M359,-264C359,-264 329,-264 329,-264 323,-264 317,-258 317,-252 317,-252 317,-240 317,-240 317,-234 323,-228 329,-228 329,-228 359,-228 359,-228 365,-228 371,-234 371,-240 371,-240 371,-252 371,-252 371,-258 365,-264 359,-264"/>
<text text-anchor="start" x="329.5" y="-248.1" font-family="Helvetica,sans-Serif" font-weight="bold" font-size="13.00" fill="#1d1b16">FD1</text>
<text text-anchor="start" x="331.5" y="-237.5" font-family="Helvetica,sans-Serif" font-size="10.00" fill="#1d1b16">0.8%</text>
</g>
<!-- FD2 -->
<g id="node20" class="node">
<title>FD2</title>
<path fill="#d9e7fc" stroke="#3d7bd6" stroke-width="1.3" d="M401,-188C401,-188 371,-188 371,-188 365,-188 359,-182 359,-176 359,-176 359,-164 359,-164 359,-158 365,-152 371,-152 371,-152 401,-152 401,-152 407,-152 413,-158 413,-164 413,-164 413,-176 413,-176 413,-182 407,-188 401,-188"/>
<text text-anchor="start" x="371.5" y="-172.1" font-family="Helvetica,sans-Serif" font-weight="bold" font-size="13.00" fill="#1d1b16">FD2</text>
<text text-anchor="start" x="373.5" y="-161.5" font-family="Helvetica,sans-Serif" font-size="10.00" fill="#1d1b16">1.6%</text>
</g>
<!-- FD1&#45;&gt;FD2 -->
<g id="edge27" class="edge">
<title>FD1&#45;&gt;FD2</title>
<path fill="none" stroke="#a89f90" stroke-width="1.1" d="M353.74,-227.84C359.41,-217.84 366.64,-205.11 372.82,-194.23"/>
<polygon fill="#a89f90" stroke="#a89f90" stroke-width="1.1" points="374.99,-195.37 376.31,-188.07 370.73,-192.95 374.99,-195.37"/>
</g>
<!-- FD1&#45;&gt;FD3 -->
<g id="edge28" class="edge">
<title>FD1&#45;&gt;FD3</title>
<path fill="none" stroke="#a89f90" stroke-width="1.1" d="M326.84,-227.84C316.56,-217.56 303.39,-204.39 292.32,-193.32"/>
<polygon fill="#a89f90" stroke="#a89f90" stroke-width="1.1" points="293.75,-191.29 287.07,-188.07 290.29,-194.75 293.75,-191.29"/>
</g>
<!-- FD1&#45;&gt;FD4 -->
<g id="edge31" class="edge">
<title>FD1&#45;&gt;FD4</title>
<path fill="none" stroke="#a89f90" stroke-width="1.1" d="M337.7,-227.64C323.15,-187.53 287.17,-88.36 270.6,-42.7"/>
<polygon fill="#a89f90" stroke="#a89f90" stroke-width="1.1" points="272.9,-41.85 268.21,-36.11 268.29,-43.52 272.9,-41.85"/>
</g>
<!-- RF1 -->
<g id="node23" class="node">
<title>RF1</title>
<path fill="#d9e7fc" stroke="#3d7bd6" stroke-width="1.3" d="M329,-492C329,-492 299,-492 299,-492 293,-492 287,-486 287,-480 287,-480 287,-468 287,-468 287,-462 293,-456 299,-456 299,-456 329,-456 329,-456 335,-456 341,-462 341,-468 341,-468 341,-480 341,-480 341,-486 335,-492 329,-492"/>
<text text-anchor="start" x="300" y="-476.1" font-family="Helvetica,sans-Serif" font-weight="bold" font-size="13.00" fill="#1d1b16">RF1</text>
<text text-anchor="start" x="301.5" y="-465.5" font-family="Helvetica,sans-Serif" font-size="10.00" fill="#1d1b16">0.8%</text>
</g>
<!-- DI2 -->
<g id="node24" class="node">
<title>DI2</title>
<path fill="#e3e5e9" stroke="#9aa0a6" stroke-width="1.3" d="M535,-492C535,-492 505,-492 505,-492 499,-492 493,-486 493,-480 493,-480 493,-468 493,-468 493,-462 499,-456 505,-456 505,-456 535,-456 535,-456 541,-456 547,-462 547,-468 547,-468 547,-480 547,-480 547,-486 541,-492 535,-492"/>
<text text-anchor="start" x="507.5" y="-476.1" font-family="Helvetica,sans-Serif" font-weight="bold" font-size="13.00" fill="#1d1b16">DI2</text>
<text text-anchor="start" x="507.5" y="-465.5" font-family="Helvetica,sans-Serif" font-size="10.00" fill="#1d1b16">0.8%</text>
</g>
<!-- TRAP3 -->
<g id="node25" class="node">
<title>TRAP3</title>
<path fill="#d3f1e9" stroke="#1aa39a" stroke-width="1.3" d="M541,-416C541,-416 499,-416 499,-416 493,-416 487,-410 487,-404 487,-404 487,-392 487,-392 487,-386 493,-380 499,-380 499,-380 541,-380 541,-380 547,-380 553,-386 553,-392 553,-392 553,-404 553,-404 553,-410 547,-416 541,-416"/>
<text text-anchor="start" x="496" y="-400.1" font-family="Helvetica,sans-Serif" font-weight="bold" font-size="13.00" fill="#1d1b16">TRAP3</text>
<text text-anchor="start" x="507.5" y="-389.5" font-family="Helvetica,sans-Serif" font-size="10.00" fill="#1d1b16">1.6%</text>
</g>
<!-- DI2&#45;&gt;TRAP3 -->
<g id="edge34" class="edge">
<title>DI2&#45;&gt;TRAP3</title>
<path fill="none" stroke="#a89f90" stroke-width="1.1" d="M520,-455.84C520,-446.12 520,-433.82 520,-423.15"/>
<polygon fill="#a89f90" stroke="#a89f90" stroke-width="1.1" points="522.45,-423.07 520,-416.07 517.55,-423.07 522.45,-423.07"/>
</g>
</g>
</svg>
